<svg xmlns="http://www.w3.org/2000/svg" viewBox="0 0 1920 1080"><defs><style>.cls-1{fill:#ffffe5;}.cls-2{fill:#b8e7ff;}.cls-3{fill:#998675;}.cls-4{fill:#736357;}.cls-5{fill:#c7b299;}.cls-6{fill:#333;}.cls-7{fill:#4d4d4d;}.cls-8{fill:#c69c6d;}.cls-9{fill:gray;}.cls-10{fill:#999;}.cls-11{fill:#b3b3b3;}.cls-12{fill:#ccc;}.cls-13{fill:#e6e6e6;}.cls-14{fill:#ffffc6;}.cls-15{fill:#ad7e52;}.cls-16{fill:#a67c52;}.cls-17{fill:#8c6239;}.cls-18{fill:#cbf1ff;}.cls-19,.cls-20,.cls-21,.cls-22{fill:#cae7ff;stroke:#534741;stroke-miterlimit:10;}.cls-19{stroke-width:7.77px;}.cls-20{stroke-width:9px;}.cls-21{stroke-width:6.52px;}.cls-22{stroke-width:7.71px;}</style></defs><g id="Lag_1" data-name="Lag 1"><rect class="cls-1" x="-4" y="736" width="1921" height="205" rx="14"/><rect class="cls-2" width="1919.82" height="1079.64"/><rect class="cls-3" x="1" y="923" width="1921" height="159" rx="14"/><rect class="cls-4" x="-4" y="923" width="977" height="159" rx="14"/><ellipse class="cls-5" cx="592.32" cy="1002.74" rx="51.68" ry="51.26"/><rect class="cls-6" x="580.51" y="952.81" width="23.94" height="99.98" rx="11.97" transform="translate(1184.96 2005.6) rotate(180)"/><ellipse class="cls-5" cx="817.32" cy="1003.24" rx="52.68" ry="50.76"/><rect class="cls-6" x="807.02" y="953.81" width="24.41" height="99" rx="12.2" transform="translate(1638.45 2006.62) rotate(180)"/><rect class="cls-7" x="585.75" y="953.07" width="23.94" height="99.98" rx="11.97" transform="translate(1195.45 2006.11) rotate(-180)"/><rect class="cls-7" x="811.52" y="953.44" width="23.94" height="99.98" rx="11.97" transform="translate(1646.99 2006.85) rotate(-180)"/><rect class="cls-8" x="944.06" y="876" width="977.06" height="47" rx="11.6"/><rect class="cls-9" x="363.5" y="427.65" width="89.76" height="142.35" rx="5.28"/><rect class="cls-9" x="281.24" y="418" width="97.76" height="152" rx="5.84"/><rect class="cls-9" x="449.24" y="320" width="89.76" height="250" rx="6.83"/><rect class="cls-9" x="544.78" y="346" width="89.76" height="225.31" rx="6.25"/><rect class="cls-10" x="630.5" y="494" width="75.5" height="75.65" rx="5.04"/><rect class="cls-10" x="703.63" y="469" width="57.37" height="100.47" rx="5.08"/><rect class="cls-9" x="415.93" y="400.7" width="28" height="100.47" rx="4.48"/><rect class="cls-9" x="220.29" y="346.22" width="45.71" height="152" rx="3.25"/><rect class="cls-10" x="768.34" y="469.96" width="57.37" height="100.47" rx="5.08"/><rect class="cls-10" x="866.79" y="425.82" width="89.76" height="142.35" rx="5.28"/><rect class="cls-9" x="640.54" y="366.17" width="139.03" height="203" rx="4.39"/><rect class="cls-9" x="784.54" y="416.17" width="97.76" height="152" rx="5.84"/><rect class="cls-10" x="952.54" y="318.17" width="89.76" height="250" rx="6.83"/><rect class="cls-9" x="1048.07" y="344.17" width="89.76" height="225.31" rx="6.25"/><rect class="cls-10" x="1133.79" y="492.17" width="75.5" height="75.65" rx="5.04"/><rect class="cls-10" x="1206.92" y="467.17" width="57.37" height="100.47" rx="5.08"/><rect class="cls-10" x="919.22" y="398.86" width="28" height="100.47" rx="4.48"/><rect class="cls-9" x="723.59" y="344.38" width="45.71" height="152" rx="3.25"/><rect class="cls-10" x="1271.64" y="468.13" width="57.37" height="100.47" rx="5.08"/><rect class="cls-10" x="1371.79" y="424.82" width="89.76" height="142.35" rx="5.28"/><rect class="cls-10" x="1145.54" y="365.17" width="139.03" height="203" rx="4.39"/><rect class="cls-9" x="1289.54" y="415.17" width="97.76" height="152" rx="5.84"/><rect class="cls-10" x="1457.54" y="317.17" width="89.76" height="250" rx="6.83"/><rect class="cls-10" x="1553.07" y="343.17" width="89.76" height="225.31" rx="6.25"/><rect class="cls-9" x="1638.79" y="415" width="75.5" height="151.82" rx="5.04"/><rect class="cls-10" x="1424.22" y="397.86" width="28" height="100.47" rx="4.48"/><rect class="cls-10" x="1228.59" y="343.38" width="45.71" height="152" rx="3.25"/><rect class="cls-11" x="326.72" y="556.36" width="89.76" height="142.35" rx="5.28"/><rect class="cls-12" x="243.46" y="518" width="86.54" height="178.72" rx="5.84"/><rect class="cls-11" x="408.46" y="456" width="89.54" height="242.72" rx="6.83"/><rect class="cls-13" x="678.99" y="470" width="142.01" height="226.03" rx="6.25"/><rect class="cls-12" x="490.72" y="529" width="75.28" height="169.36" rx="5.04"/><rect class="cls-11" x="563.84" y="540" width="120.16" height="157.19" rx="5.08"/><rect class="cls-12" x="817.56" y="495" width="129.44" height="202.15" rx="5.08"/><rect class="cls-12" x="947.42" y="518.01" width="86.54" height="178.72" rx="5.84"/><rect class="cls-13" x="1025.42" y="461" width="146.58" height="234.73" rx="5.84"/><rect class="cls-12" x="1171.42" y="513.01" width="64.58" height="178.72" rx="5.84"/><rect class="cls-13" x="1229.62" y="491" width="99.38" height="200.97" rx="5.08"/><rect class="cls-12" x="1327.62" y="529" width="96.38" height="162.97" rx="5.08"/><rect class="cls-12" x="1416.41" y="456" width="85.59" height="237.24" rx="5.84"/><rect class="cls-13" x="1499.41" y="470" width="95.59" height="225.24" rx="5.84"/><rect class="cls-13" x="1595.41" y="529" width="118.59" height="164.24" rx="5.84"/><path class="cls-1" d="M1908,879H15c-6.7,0-13-6.3-13-14V666a14,14,0,0,1,14-14H1909a14,14,0,0,1,14,14V865C1923,872.7,1916.7,879,1908,879Z"/><rect class="cls-14" x="-2" y="652" width="970" height="225" rx="14"/><rect class="cls-15" x="-3" y="879" width="974.99" height="47" rx="8.11"/><path class="cls-16" d="M947.3,917.32h975a0,0,0,0,1,0,0v11.81a4.41,4.41,0,0,1-4.41,4.41H947.3a0,0,0,0,1,0,0V917.32a0,0,0,0,1,0,0Z"/><path class="cls-17" d="M-3,917H972a0,0,0,0,1,0,0v11.81a4.41,4.41,0,0,1-4.41,4.41H-3a0,0,0,0,1,0,0V917A0,0,0,0,1-3,917Z"/><rect class="cls-1" x="1390.5" y="323.5" width="859" height="212" transform="translate(1390.5 2249.5) rotate(-90)"/><rect class="cls-14" x="-317" y="318" width="877" height="241" transform="translate(560 317) rotate(90)"/><ellipse class="cls-5" cx="364.63" cy="1005.04" rx="52.18" ry="50.76"/><rect class="cls-6" x="352.7" y="955.61" width="24.17" height="99" rx="12.09" transform="translate(729.58 2010.23) rotate(180)"/><rect class="cls-7" x="357.82" y="954.22" width="23.94" height="99.98" rx="11.97" transform="translate(739.58 2008.42) rotate(180)"/><rect class="cls-18" x="428.52" y="-102.63" width="54.05" height="500.12" rx="14" transform="translate(273.27 -295.32) rotate(49.69)"/><rect class="cls-18" x="595.62" y="-144.78" width="84.07" height="588.39" rx="14" transform="translate(339.09 -433.49) rotate(49.69)"/><ellipse class="cls-5" cx="142.61" cy="1004.78" rx="52.18" ry="50.76"/><rect class="cls-6" x="130.68" y="955.35" width="24.17" height="99" rx="12.09" transform="translate(285.54 2009.7) rotate(180)"/><rect class="cls-7" x="135.8" y="953.96" width="23.94" height="99.98" rx="11.97" transform="translate(295.54 2007.9) rotate(-180)"/></g><g id="Lag_2" data-name="Lag 2"><path class="cls-19" d="M239,649l1475-1.53"/><path class="cls-20" d="M1715.41,0l-.84,650.91"/><path class="cls-21" d="M242.17,1q-.22,325.42-.44,650.86"/><path class="cls-22" d="M239,202.08l1476.65-1.5"/><path class="cls-22" d="M238.82,438.16l1476.65-1.5"/><path class="cls-20" d="M964.55-5.38l-.84,650.9"/><path class="cls-20" d="M1344.55,1.62l-.84,650.9"/><path class="cls-20" d="M590.55-.38l-.84,650.9"/></g></svg>