<svg id="Lag_1" data-name="Lag 1" xmlns="http://www.w3.org/2000/svg" viewBox="0 0 198 198"><path d="M62.87,87.08q-10.29-12.37-21-24.38c-.65-.73-1.71.34-1.06,1.06q10.71,12,21,24.38c.61.75,1.67-.32,1.06-1.06Z"/><path d="M87.06,76.13C83.58,67,80.36,57.63,76,48.85c-.43-.87-1.72-.11-1.29.76C79,58.27,82.18,67.49,85.61,76.53c.34.89,1.79.5,1.45-.4Z"/><path d="M115.27,76.7a257.94,257.94,0,0,0,6.5-27.27c.17-1-1.27-1.35-1.44-.4a263,263,0,0,1-6.5,27.27.75.75,0,0,0,1.44.4Z"/><path d="M140.47,88.53A134.49,134.49,0,0,0,163,65.61c.59-.77-.71-1.52-1.29-.76a132.84,132.84,0,0,1-22.28,22.62c-.75.6.31,1.66,1.06,1.06Z"/><path d="M150.92,112.08a198.87,198.87,0,0,0,27.79-10.21c.88-.39.12-1.69-.75-1.29a196.72,196.72,0,0,1-27.44,10,.75.75,0,0,0,.4,1.45Z"/><path d="M151.91,136.11a170,170,0,0,0,30.59,1.16c1-.05,1-1.55,0-1.5a170,170,0,0,1-30.59-1.16c-1-.12-.95,1.38,0,1.5Z"/><path d="M16.34,139A207.78,207.78,0,0,0,47,137.23c.94-.12,1-1.63,0-1.5a207.78,207.78,0,0,1-30.63,1.75.75.75,0,0,0,0,1.5Z"/><path d="M19,100.32a209.2,209.2,0,0,0,28.9,10.88.75.75,0,0,0,.4-1.45A206.44,206.44,0,0,1,19.8,99c-.87-.41-1.63.89-.76,1.29Z"/></svg>