<svg xmlns="http://www.w3.org/2000/svg" width="256" height="256" viewBox="0 0 100 100"><rect width="100" height="100" rx="20" fill="#e1d6c6"></rect><path fill="#fff" d="M62.28 68.83L58.67 59.33L35.17 59.33Q33.68 62.94 32.62 65.71Q31.56 68.48 30.90 70.50Q30.24 72.53 29.98 73.94Q29.72 75.34 29.72 76.22L29.72 76.22Q29.72 78.69 31.30 79.61Q32.88 80.54 36.58 80.54L36.58 80.54L36.58 83.88L15.20 83.88L15.20 80.54Q17.22 80.27 18.67 79.83Q20.12 79.39 21.22 78.60Q22.32 77.81 23.16 76.53Q24.00 75.26 24.79 73.41L24.79 73.41L47.67 16.12L51.45 16.12L71.43 65.75Q73.45 70.68 74.95 73.63Q76.44 76.58 77.85 78.07Q79.26 79.57 80.89 80.01Q82.52 80.45 84.80 80.45L84.80 80.45L84.80 83.88L56.12 83.88L56.12 80.45Q60.78 80.45 62.54 79.57Q64.30 78.69 64.30 76.66L64.30 76.66Q64.30 75.78 64.21 75.04Q64.12 74.29 63.90 73.41Q63.68 72.53 63.29 71.43Q62.89 70.33 62.28 68.83L62.28 68.83ZM47.23 28.97L36.93 54.93L57.00 54.93L47.23 28.97Z"></path></svg>