<svg id="Lag_1" data-name="Lag 1" xmlns="http://www.w3.org/2000/svg" viewBox="0 0 1920 1080"><defs><style>.cls-1{font-size:102px;font-family:SignPainter-HouseScript, SignPainter;}.cls-2{letter-spacing:-0.01em;}.cls-3{letter-spacing:-0.03em;}.cls-4{letter-spacing:-0.03em;}</style></defs><path d="M759.24,509.09c6.28-1.48,11.52-5.52,16.79-9A148.07,148.07,0,0,1,794.61,490a421.62,421.62,0,0,1,40.57-16.27c6.76-2.4,13.59-4.62,20.3-7.17a112.92,112.92,0,0,0,19.39-10.08,380.07,380.07,0,0,1,38.83-21c14.94-7,30.2-13.36,45.46-19.67.83-.34.46-1.7-.37-1.35-27,11.19-54.24,22.44-79.39,37.56-6.21,3.74-12.22,7.86-18.83,10.89s-13.93,5.27-20.93,7.73c-13.59,4.77-27.14,9.69-40.28,15.59a187.23,187.23,0,0,0-21.27,10.83c-6.2,3.81-12,9-19.22,10.67-.88.21-.51,1.56.37,1.36Z"/><path d="M757.83,510.51c5,16.68,9.6,33.48,14,50.33,4.23,16.21,8.31,32.45,12.6,48.64q3.84,14.5,7.94,28.95a.7.7,0,0,0,1.35-.37c-4.78-16.76-9.2-33.6-13.54-50.47-4.17-16.22-8.3-32.45-12.72-48.6q-4-14.47-8.27-28.85a.7.7,0,0,0-1.35.37Z"/><path d="M558.51,479.94c-.13,7.14,3.6,13.9,6.49,20.23,3.18,6.93,6.52,13.79,9.94,20.61,6.8,13.57,13.91,27,20.66,40.58,3,6.12,6.11,12.26,8.77,18.55,2.34,5.53,4.37,11.18,6.22,16.89a338,338,0,0,1,9.61,37.34,345.85,345.85,0,0,1,5.86,40.64c.07.89,1.47.9,1.4,0a350.92,350.92,0,0,0-13.94-73.3c-1.74-5.78-3.67-11.51-5.85-17.14-2.26-5.81-4.89-11.44-7.61-17.05-6.61-13.66-13.69-27.09-20.58-40.62-3.85-7.58-7.64-15.19-11.26-22.88-1.81-3.87-3.6-7.74-5.28-11.66s-3.11-7.92-3-12.19a.7.7,0,0,0-1.4,0Z"/><path d="M627.11,676c14.44,2.48,29,4.59,43.57,6,5.13.49,10.24.79,15.34,1.55s10.1,1.65,15.14,2.58q5.05.93,10.1,1.93c1.61.32,3.27.38,4.9.61,3.45.51,6.87,1.19,10.3,1.85a108.14,108.14,0,0,0,18.45,2.16q8.16.15,16.32.41c11.77.39,23.64.79,35.33,2.35,1.09.14,2.18.31,3.26.49.88.15,1.26-1.2.37-1.35-11.05-1.89-22.42-2.25-33.61-2.7q-8.73-.35-17.47-.52l-6.91-.12a68.3,68.3,0,0,1-10.09-1.11c-3.52-.6-7-1.32-10.53-2-3.12-.57-6.22-.93-9.35-1.34-2.45-.32-4.9-1-7.33-1.42-9.35-1.77-18.73-3.56-28.22-4.29-14.8-1.14-29.54-3.22-44.18-5.62l-5-.85c-.88-.15-1.26,1.2-.37,1.36Z"/><path d="M559.71,480.08c26.58,0,53.23,0,79.69,2.69a323.54,323.54,0,0,1,38.91,6.35c12.72,2.92,25.26,6.52,37.82,10,14.08,3.94,28.21,7.78,42.6,10.44.88.17,1.26-1.19.37-1.35-25.75-4.77-50.58-13.3-76-19.44-25.72-6.21-52-8.81-78.37-9.66-15-.49-30-.48-45-.47a.7.7,0,0,0,0,1.4Z"/><path d="M975.07,425.32c4.4,10.93,8.06,22.13,11.59,33.36s7.12,22.76,10.64,34.14c7,22.67,13.94,45.38,20.43,68.21q4.9,17.24,9.46,34.57,2.24,8.55,4.37,17.13c.36,1.47.73,2.94,1.08,4.41s1,3.16-.11,4.36a9.78,9.78,0,0,1-3.16,1.75l-3.81,1.69c-20.15,8.86-40.79,16.5-61.2,24.71-20.16,8.1-40.17,16.76-59,27.58-2.34,1.35-4.67,2.73-7,4.14a.7.7,0,0,0,.71,1.21c19-11.61,39.3-20.82,59.87-29.23s41.24-16,61.59-24.71q3.84-1.64,7.65-3.33c1.93-.85,4.77-1.6,5.91-3.54s-.06-4.91-.56-7q-1.1-4.41-2.2-8.81-4.44-17.5-9.29-34.89c-6.48-23.26-13.43-46.4-20.54-69.48q-5.31-17.25-10.72-34.48c-3.53-11.34-7-22.69-11.13-33.84q-1.54-4.2-3.22-8.36c-.33-.82-1.69-.46-1.35.38Z"/><path d="M601.52,466.28a615,615,0,0,0,7.21-76.88c.17-5.64.35-11.34-.58-16.93-.88-5.28-3.37-9.83-5.22-14.79-1.75-4.65-3.25-9.42-5.37-13.92a30,30,0,0,0-3.67-5.73,8.71,8.71,0,0,1-2.36-5.85c.11-5,3.71-7.87,6.46-11.56,1.13-1.52,2.39-3.24,2.26-5.21s-.94-4-.41-6c.69-2.57,4.22-4,6.37-5.16a60.27,60.27,0,0,0,6.59-3.85,48.23,48.23,0,0,0,10.27-9.75,55.09,55.09,0,0,0,11-26c.33-2.36.47-4.72.58-7.11.12-2.58.3-5.33,1.63-7.62C639.16,245,646,245,651,244.68a175.87,175.87,0,0,1,38.29,1.84c12.11,1.92,23.85,5.91,36,7.32a62.62,62.62,0,0,0,9.29.4.72.72,0,0,0,.7-.7c.41-4.4-3.28-7.69-7.08-9.09a36.57,36.57,0,0,0-7.69-1.56c-2.88-.39-5.74-.82-8.6-1.3A291.88,291.88,0,0,1,679,234.15c-3-.85-5.91-1.73-8.84-2.7a21.81,21.81,0,0,1-8-4.18l-.31,1.17c9.67-3.35,19.23,1.91,28.52,4.12,7.17,1.7,15.77,2.14,21.48-3.33a.71.71,0,0,0-.31-1.18l-13.69-2.83c-2.88-.6-9.7-1-9.68-5.16a2.72,2.72,0,0,1,.7-1.91c.8-.76,1.43-.14,2.27.25a13,13,0,0,0,5.65,1.5c2.76-.06,5.88-2.11,5.87-5.15,0-1.65-1.14-2.79-2.4-3.69-.76-.55-1.78-1.06-2.2-1.95s-.41-2,.59-2.13.51-1.5-.37-1.35a2.34,2.34,0,0,0-1.84,2.61,4.39,4.39,0,0,0,2.23,3.41,7,7,0,0,1,2.33,2.08,2.79,2.79,0,0,1-.53,3c-1.59,2-4.17,2-6.41,1.3a24.12,24.12,0,0,1-3.47-1.48,1.84,1.84,0,0,0-1.92,0,3.77,3.77,0,0,0-1.89,3.18c-.26,3.85,3.8,5.34,6.89,6,5.82,1.27,11.67,2.42,17.5,3.63l-.31-1.18c-5.91,5.67-15.17,4.43-22.35,2.39-8.72-2.48-17.91-6.69-27-3.53a.7.7,0,0,0-.31,1.17c3.53,3.2,8.28,4.46,12.74,5.83q7.82,2.4,15.78,4.35A329,329,0,0,0,722,244.5c4.83.68,12.48,2.65,11.88,9l.71-.7c-12.85.43-25.13-3.81-37.57-6.34A178.53,178.53,0,0,0,659,243q-4.77.08-9.52.41a38.33,38.33,0,0,0-7.54,1,11.65,11.65,0,0,0-5.81,3.37,12,12,0,0,0-2.57,6.37c-.33,2.47-.29,5-.51,7.45a52.09,52.09,0,0,1-1.22,7.55,54.21,54.21,0,0,1-5.3,13.79,49.93,49.93,0,0,1-8.92,11.72c-3.85,3.73-8.22,6.29-12.88,8.82-2,1.09-4.71,2.41-5.82,4.52-.89,1.72-.61,3.72-.31,5.56a9.14,9.14,0,0,1,.28,2.6,8.44,8.44,0,0,1-1.66,3.16c-1.27,1.83-2.86,3.39-4.22,5.16-2.52,3.28-4,8-1.93,11.91,1,1.86,2.53,3.34,3.66,5.08a37.41,37.41,0,0,1,3.21,6.69c1.87,4.76,3.39,9.66,5.44,14.35a36.93,36.93,0,0,1,4,16.67c.24,6.12-.1,12.27-.37,18.38q-.43,9.81-1.18,19.61-1.49,19.63-4.25,39.14-.68,4.8-1.44,9.6c-.14.88,1.22,1.26,1.36.37Z"/><path d="M734.69,260.2c4.33,1.49,8.5,4.09,10.94,8.07,2.78,4.57,2.42,10,.87,14.94-1.67,5.28-4.49,10.13-7.06,15-2.68,5.09-5.29,10.23-8.11,15.25-4.88,8.67-11.45,18.83-22.11,20.49-5.3.82-11,.27-16.29,0a147.17,147.17,0,0,1-15.52-1.66,88.65,88.65,0,0,1-16.58-4.31,65.8,65.8,0,0,1-8-3.61c-2.14-1.14-6-2.72-5.93-5.62l-.35.61a22,22,0,0,1,11.63-2.65c4.36.23,8.54,1.87,12.65,3.23l25.78,8.53c.86.28,1.23-1.07.38-1.35l-27.21-9c-4-1.34-8.14-2.78-12.46-2.84a23.54,23.54,0,0,0-11.47,2.86.71.71,0,0,0-.35.61c0,2.3,1.69,3.89,3.5,5.05a56.87,56.87,0,0,0,7.17,3.76,80.28,80.28,0,0,0,15.62,5.07A124.58,124.58,0,0,0,688.18,335a155,155,0,0,0,17.1.7,23.46,23.46,0,0,0,14.7-5.16c4.3-3.47,7.61-8.1,10.47-12.78,3.21-5.23,5.95-10.74,8.81-16.17,2.78-5.27,5.86-10.5,7.94-16.1s2.95-11.85,0-17.26c-2.54-4.65-7.24-7.67-12.14-9.36-.86-.29-1.23,1.07-.38,1.36Z"/><path d="M614.42,316.48l18.72-1,4.43-.25a11.83,11.83,0,0,1,4.36.23c2.47.84,2.92,3.7,4.12,5.69s3.36,3.66,5.28,5.19q3.23,2.55,6.57,5,6.83,4.94,14.09,9.22a184.43,184.43,0,0,0,17.18,9v-1.21a13.31,13.31,0,0,1-14-2.39c-.66-.62-1.66.37-1,1a14.74,14.74,0,0,0,15.72,2.61.7.7,0,0,0,0-1.21,186.61,186.61,0,0,1-30-17.3q-3.66-2.61-7.21-5.39c-2.12-1.67-4.48-3.33-5.75-5.78-.95-1.84-1.53-4-3.38-5.16-2.15-1.38-5-.9-7.45-.77l-21.67,1.2c-.89.05-.9,1.45,0,1.4Z"/><path d="M679.74,351c-2.11,3.45-6.78,3.58-10.3,2.66a35.22,35.22,0,0,1-11.31-5.77c-7.24-5.17-13.6-11.38-22.07-14.58a42,42,0,0,0-16-2.65c-.9,0-.91,1.43,0,1.4a41,41,0,0,1,15.43,2.53A48.68,48.68,0,0,1,648,341.8c6.77,5.15,13.65,11.94,22.37,13.48,3.87.68,8.38,0,10.59-3.6.47-.77-.74-1.47-1.21-.7Z"/><path d="M772.87,664.29l-6.78-5-3.33-2.46a17.6,17.6,0,0,1-3-2.46c-.69-.79-1.22-2.11-.55-3.07s1.85-.8,2.75-.72a22.84,22.84,0,0,1,7.53,1.92c.92.42,2.17,1.21,1.82,2.41-.43,1.42-2.17,1.71-3.42,1.94-.89.16-.51,1.51.37,1.35a5.87,5.87,0,0,0,3.82-1.81,2.92,2.92,0,0,0,.19-3.47,6,6,0,0,0-3-2,27.18,27.18,0,0,0-4.91-1.39c-2.26-.42-6.1-1-6.8,2s2.6,5.1,4.73,6.68l9.88,7.29c.72.53,1.42-.68.7-1.21Z"/><path d="M773.29,653.4c19.08,5.64,36.88,15,56.27,19.7a95.45,95.45,0,0,0,16.13,2.5c.9,0,.89-1.35,0-1.41-19.73-1.27-37.91-9.76-56.13-16.68-5.24-2-10.52-3.87-15.89-5.46a.7.7,0,0,0-.38,1.35Z"/><path d="M762.55,642.72a25.07,25.07,0,0,0,8.53,4.61c2.72.8,5.86.94,8.24-.81.72-.53,0-1.74-.71-1.21-2.17,1.6-4.94,1.35-7.39.59a23.71,23.71,0,0,1-7.68-4.17c-.7-.56-1.69.43-1,1Z"/><path d="M779.52,638.39c23.87.35,45.57,12.08,69,15.26,3,.4,5.92.56,8.89.82s6.19.88,8.48,3.07l.31-1.17c-2.93.89-3.64,4.3-3.51,7a41.84,41.84,0,0,0,2.62,11.5c2.57,7.54,6.3,15.41,4.66,23.56-.18.88,1.17,1.26,1.35.38,1.48-7.34-1.12-14.41-3.57-21.22a70.26,70.26,0,0,1-3.25-10.92c-.46-2.54-1.32-7.93,2.07-9a.7.7,0,0,0,.31-1.17c-3.86-3.71-9.52-3.4-14.48-3.86a115.7,115.7,0,0,1-18.09-3.35c-11.65-3-23-7.1-34.75-9.76a97.18,97.18,0,0,0-20-2.59.7.7,0,0,0,0,1.4Z"/><path d="M668.21,356.16l12.48,6V361A15.61,15.61,0,0,1,665,359.72c-.75-.52-1.45.7-.71,1.21a17,17,0,0,0,17.07,1.28.71.71,0,0,0,0-1.21L668.92,355c-.81-.4-1.52.81-.71,1.21Z"/><path d="M670,362.83c-4.24,1.35-8.48,2.49-12.89,1.17-4.13-1.24-7.54-4-10.83-6.66a49.51,49.51,0,0,0-9.93-6.68,40.76,40.76,0,0,0-11.25-3.46c-.88-.14-1.26,1.21-.37,1.35a39.38,39.38,0,0,1,12,3.89c3.92,2,7.18,4.89,10.62,7.61,3.15,2.48,6.61,4.77,10.59,5.63,4.25.92,8.34-.21,12.38-1.5.86-.27.49-1.63-.37-1.35Z"/><path d="M664.77,365.11c-5.92,7.07-9.82,15.34-10.29,24.62a75.82,75.82,0,0,0,.34,9.88,81.46,81.46,0,0,1,.11,8.27c-.23,8.14-.19,16.31.05,24.45.12,4,.29,8,.61,12,.3,3.67.92,7.3,1.2,11a29.09,29.09,0,0,0,.22,4.38,17,17,0,0,0,.85,2.39c.83,2.13,1.64,4.26,2.45,6.39.31.84,1.67.48,1.35-.37-1-2.77-2.28-5.51-3.17-8.34a10.12,10.12,0,0,1-.2-2.77c-.11-3.38-.71-6.72-1.06-10.08-.38-3.64-.57-7.3-.72-10.95-.33-8.24-.4-16.49-.26-24.73,0-3,.29-5.93.15-8.89s-.48-5.94-.56-8.93a39.71,39.71,0,0,1,1.48-12.27,42.64,42.64,0,0,1,8.44-15.06c.58-.68-.41-1.68-1-1Z"/><path d="M772,665.94a429.67,429.67,0,0,0,61.28,31.33q9,3.72,18.14,7c.85.31,1.22-1,.38-1.35a426,426,0,0,1-62.24-28.33q-8.54-4.75-16.85-9.88c-.77-.48-1.47.74-.71,1.21Z"/><path d="M792.5,679.2c-.41,3.56,1.25,6.8,3.36,9.55a77.32,77.32,0,0,0,7.8,8.38,115.81,115.81,0,0,0,29,20.41c.81.4,1.52-.81.71-1.22A115.13,115.13,0,0,1,799,690.25c-2.75-3-5.55-6.7-5-11,.1-.89-1.3-.89-1.41,0Z"/><path d="M799.31,695.29c-.35,11.16,8.05,19.88,15.73,26.88q7.29,6.66,15.09,12.72c2.23,1.74,4.44,3.58,7.29,4.09,3.1.55,6.39.1,9.51-.1,12.54-.79,25-1.57,37.55-.43,7.87.71,15.62,2.34,23.47,3.14,10.61,1.09,21.13-.3,31.49-2.58.88-.2.51-1.55-.37-1.36-9.26,2-18.69,3.43-28.19,2.79-7.28-.49-14.46-2-21.7-2.9a185.51,185.51,0,0,0-34.31-.59c-3.31.22-6.62.46-9.93.65-3.1.18-6.58.68-9.48-.71s-5.15-3.6-7.5-5.5-4.91-4-7.3-6.1c-8.8-7.63-20.35-17.16-19.95-30,0-.9-1.38-.9-1.4,0Z"/><path d="M763.52,641.54a6.92,6.92,0,0,1-1-1.25,3.44,3.44,0,0,1-.34-.66c-.1-.29-.14-.33.11-.49s1.17,0,1.55,0c.62.05,1.24.14,1.87.23a40.38,40.38,0,0,0,6.6.45,28.27,28.27,0,0,0,6.42-.65q.19-.36.21-.09a2.23,2.23,0,0,1,0,.23,3,3,0,0,1,.09.73,9.88,9.88,0,0,1,.07,1.33,3.3,3.3,0,0,1-.93,2.43c-.65.62.34,1.61,1,1a4.45,4.45,0,0,0,1.3-2.9,7.82,7.82,0,0,0-.31-3.47c-.54-1.22-2.25-.51-3.22-.37a37.57,37.57,0,0,1-4.85.37,38.76,38.76,0,0,1-4.69-.23,31.11,31.11,0,0,0-4.81-.48c-1.08,0-2,.49-1.93,1.73a5.64,5.64,0,0,0,1.81,3.08c.63.65,1.62-.34,1-1Z"/><path d="M954.83,614.57a.71.71,0,0,0,0-1.41.71.71,0,0,0,0,1.41Z"/><path d="M776.45,532.81c7.84-3.88,16.94-2.7,25.16-5.24,6.47-2,12.34-6.63,12.37-13.92a9.51,9.51,0,0,0-4.22-8.29l.14,1.1c14.24-14.5,33.61-22,52.16-29.32q16.41-6.48,32.86-12.88l16.69-6.47,3.94-1.52a28.11,28.11,0,0,1,4.14-1.51c2.42-.52,4.42.85,6,2.55,1.89,2.06,2.8,4.85,3.66,7.45.95,2.84,1.83,5.71,2.52,8.62,1.1,4.57,1.89,9.44,1,14.11-.17.89,1.19,1.26,1.35.38a32.56,32.56,0,0,0-.45-12.28,74,74,0,0,0-4.57-15.2c-1.62-3.68-5.05-7.84-9.54-7.05a20.67,20.67,0,0,0-3.81,1.31l-4.63,1.79-8.81,3.41Q885,466.6,867.7,473.42c-10.08,4-20.25,7.79-30,12.48-10.51,5-20.57,11.21-28.78,19.57a.71.71,0,0,0,.15,1.1c5.37,3.39,4,11.47,0,15.34-5.49,5.28-13.77,5.61-20.9,6.48a37.73,37.73,0,0,0-12.4,3.21c-.81.4-.1,1.61.71,1.21Z"/><path d="M932.86,487.68c-.52,4.15-4.76,7.27-8.2,9.07-4.14,2.16-8.76,3.49-13.11,5.14s-8.9,3.48-13.21,5.53-8.69,4.43-13.11,6.49c-15.61,7.27-33.11,10.3-47.69,19.8-2,1.28-3.9,3.14-6.19,3.77-3.06.85-4-2.06-4.8-4.37L820.88,517c-.3-.84-1.66-.48-1.36.37l5.36,15.22c.62,1.77,1.1,3.91,2.46,5.29a4.47,4.47,0,0,0,4.94.79c2.07-.79,3.78-2.28,5.61-3.48a69.13,69.13,0,0,1,6-3.53,108.59,108.59,0,0,1,12.7-5.57c8.56-3.19,17.34-5.77,25.76-9.34,4.75-2,9.3-4.42,13.91-6.72s9.6-4.44,14.55-6.33c2.76-1.06,5.53-2.07,8.3-3.09a45.88,45.88,0,0,0,7-3c3.71-2.1,7.58-5.41,8.15-9.87.11-.89-1.29-.88-1.41,0Z"/><path d="M759.2,508.57c6.28-1.47,11.52-5.52,16.78-9a148.14,148.14,0,0,1,18.58-10.09,425.27,425.27,0,0,1,40.57-16.27c6.76-2.4,13.6-4.62,20.3-7.17a112.64,112.64,0,0,0,19.4-10.08,378.94,378.94,0,0,1,38.82-21c14.94-7,30.21-13.36,45.47-19.68.82-.34.46-1.69-.38-1.35-27,11.19-54.24,22.45-79.39,37.57-6.21,3.73-12.22,7.85-18.83,10.88s-13.93,5.28-20.93,7.74c-13.58,4.77-27.14,9.68-40.28,15.59A185.54,185.54,0,0,0,778,496.54c-6.2,3.82-12,9-19.22,10.68-.88.2-.5,1.56.38,1.35Z"/><path d="M757.29,508.84c6.11-1.55,11.13-5.73,16.13-9.35a140.36,140.36,0,0,1,18.09-10.68,393.53,393.53,0,0,1,39.87-17.33c6.76-2.59,13.63-5,20.32-7.77A110.31,110.31,0,0,0,870.61,453a360.13,360.13,0,0,1,37.73-22c14.55-7.41,29.45-14.09,44.35-20.75.83-.37.11-1.58-.71-1.21-26.44,11.83-53,23.77-77.36,39.6-6.19,4-12.15,8.46-18.81,11.7s-13.64,5.55-20.49,8.15c-13.23,5-26.42,10.22-39.15,16.43a170.42,170.42,0,0,0-20.8,11.5c-5.89,4-11.4,9.29-18.46,11.07a.71.71,0,0,0,.38,1.36Z"/><path d="M563.11,473.36c26,0,52.17,0,78,3.29a258.86,258.86,0,0,1,38.36,7.84c12.27,3.51,24.3,7.78,36.37,11.95,13.5,4.67,27.08,9.21,41,12.4.88.2,1.26-1.15.38-1.36-25-5.71-48.79-15.78-73.35-23.15a261.56,261.56,0,0,0-37.83-8.41,379.87,379.87,0,0,0-38.85-3.39c-14.71-.59-29.44-.59-44.15-.58a.71.71,0,0,0,0,1.41Z"/><path d="M565.75,466.52c26.48,0,53.11,0,79.33,4.17a222.77,222.77,0,0,1,37.73,9.44c12.15,4.21,24,9.25,35.87,14.15,13.23,5.46,26.55,10.79,40.38,14.56a.71.71,0,0,0,.37-1.36c-24.78-6.76-47.82-18.4-71.9-27.16A227,227,0,0,0,649.47,470a313.22,313.22,0,0,0-39.12-4.17c-14.86-.74-29.73-.73-44.6-.72a.7.7,0,0,0,0,1.4Z"/><path d="M957.87,415.78a117.91,117.91,0,0,0,12-4.12l-.87-.49q3,7.5,6.27,14.86c.37.82,1.58.11,1.21-.71q-3.24-7.19-6.12-14.53a.72.72,0,0,0-.87-.49,115.4,115.4,0,0,1-12,4.13.7.7,0,0,0,.37,1.35Z"/><path d="M758.73,508.46c5.91-1.64,10.63-5.95,15.32-9.69a134,134,0,0,1,17.7-11.48c12.35-7,25.31-12.76,38.37-18.26,6.39-2.69,12.89-5.19,19.21-8.06,6.72-3.05,12.62-7.21,18.53-11.57,11.7-8.62,23.83-16.65,36.26-24.18q20.8-12.57,42.67-23.29c.81-.39.1-1.6-.71-1.21a523.93,523.93,0,0,0-74.4,44.17c-5.79,4.16-11.38,8.71-17.64,12.17s-13.36,6.05-20.1,8.86c-12.9,5.38-25.75,10.91-38.08,17.51a157.82,157.82,0,0,0-20.11,12.26c-5.47,4.09-10.63,9.54-17.39,11.42a.7.7,0,0,0,.37,1.35Z"/><path d="M939.07,252.72a121.47,121.47,0,0,0,.79,29.88l.67-.19a75.45,75.45,0,0,1-3.34-21c0-.38-.63-.5-.69-.09a60.21,60.21,0,0,0,7.21,39,.35.35,0,0,0,.6-.35,59.6,59.6,0,0,1-7.14-38.43l-.69-.09a76.46,76.46,0,0,0,3.38,21.18.35.35,0,0,0,.67-.19,120,120,0,0,1-.75-29.69c0-.45-.66-.45-.71,0Z"/><path d="M933.53,216.39c.93-1,1.83-2,2.71-3,1.36-1.58,2.48-3.53,4.54-4.27a4.63,4.63,0,0,1,5.3,1.41c1.15,1.56,1.25,3.75,1.26,5.61a91.45,91.45,0,0,1-.9,14.79A47.36,47.36,0,0,1,942,244.68,127.37,127.37,0,0,1,934,258l1.28.17a4.7,4.7,0,0,0-3-3,.71.71,0,0,0-.69,1.17,6.41,6.41,0,0,1,2.23,6.05c-.42,1.78-2.7,3.64-4.43,2.22l.18.68c.52-2.77-1.49-6.21-4.63-5.82-.73.1-1,1.16-.18,1.38,2.89.78,4.37,4.43,3.5,7.17a4.71,4.71,0,0,1-6.83,2.75c-.76-.48-1.47.74-.71,1.21,3.24,2,7.5.18,8.79-3.28s-.64-8.19-4.38-9.2l-.19,1.38c2.18-.28,3.65,2.07,3.27,4a.71.71,0,0,0,.18.68c2.17,1.77,5.17.6,6.38-1.74,1.49-2.88.06-6.48-2.18-8.51l-.69,1.17a3.21,3.21,0,0,1,2.06,2.05.71.71,0,0,0,1.28.16c5.79-8.77,11.27-17.71,12.75-28.31.38-2.72.56-5.46.67-8.21a63.66,63.66,0,0,0,.08-7.69,8.65,8.65,0,0,0-1.91-5.3,5.91,5.91,0,0,0-4.92-1.72,7.72,7.72,0,0,0-5.24,3.31c-1.28,1.6-2.65,3.14-4.08,4.61-.63.64.36,1.64,1,1Z"/><path d="M941.34,246.89c-.54,11.38-1.11,23,1.7,34.2a172.85,172.85,0,0,0,5.87,17.55c2.75,7.39,5.65,14.76,9.12,21.84a97.38,97.38,0,0,0,7.85,13c10.55,15,22.28,30.42,38.34,39.92,10.16,6,22,9,33.71,6.85a48.49,48.49,0,0,0,18.86-8.18l1-.72c.73-.53,0-1.75-.7-1.22a49.92,49.92,0,0,1-16.17,8c-10.66,2.88-21.81,1.22-31.66-3.6-17-8.31-28.94-23.61-39.84-38.51a123.33,123.33,0,0,1-8.23-12.48,160,160,0,0,1-8.93-20c-2.51-6.43-4.9-12.93-6.94-19.53-2.85-9.27-3.2-19-2.92-28.6.08-2.83.21-5.65.35-8.48,0-.9-1.36-.9-1.41,0Z"/><path d="M904,309a.71.71,0,0,0,0-1.41.71.71,0,0,0,0,1.41Z"/><path d="M848.12,206.48c-.12,3.35-1,6.62-1.08,10a.71.71,0,0,0,.89.67,128,128,0,0,1,22.57-5.63c3.84-.66,7.71-1.22,11.58-1.65a41.27,41.27,0,0,1,6.48-.33,21.94,21.94,0,0,1,7,1.75c5,2,10.06,4.18,15.09,6.27.83.35,1.19-1,.37-1.35q-6.88-2.87-13.78-5.73a28.65,28.65,0,0,0-6.69-2.13,28.36,28.36,0,0,0-6.89,0,179.13,179.13,0,0,0-23.47,3.85,102.85,102.85,0,0,0-12.66,3.65l.89.68c.11-3.35.95-6.62,1.07-10,0-.9-1.37-.9-1.4,0Z"/><path d="M870.14,242.81a27.84,27.84,0,0,0,12.07,1.52c3.27-.33,7.54-1.69,10.25.87l1-1a22,22,0,0,1-2.85-3l-.49,1.2,9.2.68a.71.71,0,0,0,.19-1.38l-6.24-1.48v1.35a26.24,26.24,0,0,1,11.49-.57l.19-1.38a14.06,14.06,0,0,1-6.39-.89l.17,1.28c3.51-2.23,8-2.67,12-3.49.89-.19.51-1.54-.37-1.36-4.13.86-8.7,1.34-12.33,3.64a.71.71,0,0,0,.16,1.28,15.18,15.18,0,0,0,6.77,1c.72-.07,1-1.23.18-1.38a27.92,27.92,0,0,0-12.23.57.7.7,0,0,0,0,1.35l6.23,1.49.19-1.38-9.2-.68c-.68-.05-.83.77-.5,1.2a20.81,20.81,0,0,0,2.85,3c.67.59,1.65-.37,1-1-2.6-2.46-6.21-2-9.47-1.51a28.15,28.15,0,0,1-13.47-1.24c-.85-.31-1.22,1-.37,1.35Z"/><path d="M885,243.64c6.76-2,13.65-4.11,19.1-8.77l-1-1a27.57,27.57,0,0,1-18.6,7.14.7.7,0,0,0,0,1.4,29,29,0,0,0,19.59-7.55c.67-.61-.31-1.57-1-1-5.25,4.49-12,6.51-18.48,8.41a.7.7,0,0,0,.37,1.35Z"/><path d="M855.72,308.69c0,.09,0,.09,0,.06s.07-.25.25-.42c-.07.06.31-.17.3-.15s0,.09,0,0-.69-.36-.9-.5c-1.17-.73-2.28-1.58-3.39-2.41-3.35-2.5-6.66-5.07-10.08-7.48-3-2.14-6.26-4.44-9.8-5.68a5.2,5.2,0,0,0-3.32-.29,6.87,6.87,0,0,0-2,1.6,9.25,9.25,0,0,0-1.94,1.91c-.34.54-.58.88-1.24.68a5,5,0,0,1-1.2-.81c-.8-.59-1.58-1.24-2.39-1.81-1.72-1.19-3.19,0-4.57,1.11a125.13,125.13,0,0,0-11.19,10,.7.7,0,0,0,.31,1.17c4.19,1.25,8.4.09,12.63-.28,4.46-.39,8.84,1.32,13.27.59,2.28-.38,4.4-1.18,6.73-.62a45.32,45.32,0,0,1,5.78,2.38,26.13,26.13,0,0,0,12.77,1.65L855.6,308a73,73,0,0,1-23.79,4.66,71.56,71.56,0,0,1-12.15-.7c-2-.28-4-.66-6-1.12a38,38,0,0,0-5-1.15c-2.92-.27-4.91,2-3.87,4.82s4,5.28,6.5,7a30.09,30.09,0,0,0,19.14,5c8.27-.61,16-4.27,22.38-9.42.71-.56-.29-1.55-1-1-10.41,8.37-25,12.35-37.36,5.67a22.63,22.63,0,0,1-7.42-6.08c-.86-1.15-2-3.51-.22-4.43,1.34-.7,3.18.05,4.52.4A73.81,73.81,0,0,0,856,309.37c.67-.25.66-1.48-.19-1.38A25.2,25.2,0,0,1,842.54,306a26,26,0,0,0-5.34-2.11,13.71,13.71,0,0,0-5.76.44c-4.5,1-8.79-.68-13.3-.44s-8.81,1.69-13.16.4l.31,1.17a124,124,0,0,1,10.28-9.29c.81-.66,2-2,3.08-1.87.83.1,1.77,1.08,2.46,1.58,1,.72,2.39,2.1,3.76,1.52,1-.42,1.28-1.68,2.08-2.34a16.15,16.15,0,0,1,2.22-2c.94-.44,2.36.19,3.22.54,3.76,1.55,7.18,4.09,10.45,6.46s6.58,5,9.91,7.39a11.08,11.08,0,0,0,3.12,2c1.1.31,1.48-.63,1.06-1.52s-1.59-.11-1.21.71Z"/><path d="M589.71,548.94l-5.3,28.28c-1.67,8.91-3.92,18-3.94,27.09a37.18,37.18,0,0,0,2.14,12.93,64.25,64.25,0,0,0,5.67,11.19A122.56,122.56,0,0,0,603.8,649c5.73,6.07,12.77,11.74,21.35,12.63.9.09.89-1.31,0-1.4-7.61-.79-14-5.74-19.2-11a116.34,116.34,0,0,1-15.25-19.55,77.21,77.21,0,0,1-6-11A35.54,35.54,0,0,1,581.89,606c-.29-8.88,1.88-17.73,3.51-26.4l5.66-30.24c.16-.88-1.19-1.26-1.35-.37Z"/><path d="M866.22,657.56c8.47,3.48,14.09,11.17,20.76,17.07s14.85,10.83,23.68,13a40,40,0,0,0,15,.94c.88-.12.89-1.53,0-1.41-9.16,1.22-18.29-1.16-26.32-5.56a62.79,62.79,0,0,1-11.34-8c-3.36-3-6.39-6.3-9.66-9.37a39.2,39.2,0,0,0-11.72-8.07c-.83-.34-1.2,1-.37,1.36Z"/><path d="M850.61,132.91c7.24,3.79,14.68,7.18,21.92,11A124,124,0,0,1,893,157.07c12.4,10,22.57,22.34,28.58,37.2,3.57,8.82,5.9,18.07,8.05,27.32.15.65,1.24.7,1.35,0,.88-5.56,5.9-8.73,9.57-12.4a.7.7,0,0,0-1-1c-1.67,1.66-3.57,3.05-5.19,4.78-2.16,2.3-4.24,5-4.74,8.24h1.35c-3.79-16.34-8.43-32.6-18.57-46.25-9.41-12.67-22-22.93-35.8-30.51-8.27-4.55-16.88-8.4-25.24-12.76-.8-.41-1.51.8-.71,1.21Z"/><path d="M851.89,132.47a205.86,205.86,0,0,1,7.94-19.06q2.08-4.36,4.37-8.63c.8-1.49,1.61-3,2.45-4.42a28.25,28.25,0,0,1,2.58-4.21c2-2.41,5.77-1.56,8.49-1.14a45.67,45.67,0,0,1,7.41,1.77,54.51,54.51,0,0,1,14.06,7.1c19.74,13.69,30.1,36.55,35.62,59.21,3.52,14.44,5.36,29.22,7.17,43.95.11.88,1.52.89,1.41,0-3.25-26.32-6.45-54-19.72-77.53a81.85,81.85,0,0,0-22.13-25.66,58,58,0,0,0-14-7.72,47.27,47.27,0,0,0-7.84-2.2c-2.56-.49-5.52-1.08-8.12-.68-3.38.53-4.84,4.15-6.34,6.8q-3,5.2-5.59,10.57a209.65,209.65,0,0,0-9.08,21.48c-.31.85,1,1.22,1.35.37Z"/><path d="M843,133.77c6.79-12.67,13.42-25.42,20.21-38.09.43-.79-.78-1.5-1.21-.7-6.79,12.66-13.42,25.41-20.21,38.08-.43.8.78,1.51,1.21.71Z"/><path d="M842.38,132.71c-12.37,1.48-24.82,4.21-35.76,10.41-10.28,5.82-18.39,14.52-24.7,24.42a143.35,143.35,0,0,0-10,19.09,66.66,66.66,0,0,0-5.75,22.43c-.57,7.63-.33,15.29-1.1,22.9-.48,4.64-1.45,9.15-2.35,13.71-.84,4.29-1.43,8.63-1.87,13-1.76,17.28-1.05,34.7-2.62,52a130.09,130.09,0,0,1-5,25.08,100.76,100.76,0,0,1-8,19.86c-4.87,8.93-11.65,16.09-19,23-3.29,3.06-6.57,6.13-9.56,9.5-3.13,3.53-6.31,6.95-9.73,10.22-8.35,8-16.91,15.82-24.28,24.78a105.44,105.44,0,0,0-20,36.61,101.38,101.38,0,0,0-2.73,11.77c-.16.88,1.2,1.26,1.35.37A99.68,99.68,0,0,1,678.3,431c7.1-10,15.8-18.66,24.69-27.06,3.6-3.41,7.24-6.78,10.64-10.38,3.09-3.27,5.93-6.73,9.17-9.87,6.64-6.44,13.62-12.43,19-20,8.09-11.35,12.54-24.89,15.54-38.37,3.6-16.15,3.08-32.92,3.73-49.36a214.45,214.45,0,0,1,2.36-26.66c.74-4.42,1.85-8.76,2.48-13.2A119.11,119.11,0,0,0,767,224c.31-7.47.12-15,1.48-22.38,1.46-7.91,4.85-15.27,8.45-22.41,5.64-11.19,12.76-21.92,22.7-29.76C809,142.08,820.4,138,832.06,135.7c3.42-.66,6.86-1.17,10.32-1.58.89-.11.9-1.51,0-1.41Z"/><path d="M849.17,206.86c7.63-1.75,15.5-2.57,23.25-3.6,3.47-.46,6.93-.93,10.39-1.48a20,20,0,0,1,8.37,0,23.83,23.83,0,0,1,6.72,3.28,90.29,90.29,0,0,1,13.82,11.39v-1a25.79,25.79,0,0,0-6.84,8.54c-1.75,3.5-2.56,7.44-5.6,10.14-5.61,5-14,7-21.34,6.49A31.09,31.09,0,0,1,865.39,237c-.79-.43-1.5.78-.71,1.21a32.82,32.82,0,0,0,22.44,3.22,32,32,0,0,0,11-4.58,15.77,15.77,0,0,0,3.95-3.56,22.23,22.23,0,0,0,2.66-5.26,26.94,26.94,0,0,1,8-11.52.71.71,0,0,0,0-1,96.62,96.62,0,0,0-12.3-10.36c-4.22-3-8.67-5.44-14-5.16-4,.2-8,1.09-12,1.62-4.3.58-8.59,1.13-12.88,1.74s-8.52,1.22-12.71,2.18c-.88.2-.51,1.56.37,1.35Z"/><path d="M920.53,253.53c-.79,9.67-.84,19.51-3,29a39.26,39.26,0,0,1-1.93,6.25A43,43,0,0,1,912,295a154.85,154.85,0,0,1-10.41,15.13,99.28,99.28,0,0,1-12.72,12.64,138.73,138.73,0,0,1-14.31,10.74,148,148,0,0,1-15.39,8.79,73.59,73.59,0,0,1-17.67,6.51,43.15,43.15,0,0,1-31.91-6.26,34.55,34.55,0,0,1-10.71-11c-2.32-3.79-4.74-7.49-6.82-11.42a239.6,239.6,0,0,1-11.88-26.9c-3.1-8.18-6-16.46-8.4-24.86-.91-3.14-1.76-6.31-2.61-9.47a55.51,55.51,0,0,1-1.71-13c-.08-2.95-.17-7.61,2.44-9.7,1-.81,1.89-.57,3-.7.67-.08,1.1-.68.59-1.27s-1.58.31-1,1c0,0,.14-1.28.43-1.13,0,0-.05,0-.06,0s-.16,0-.22,0a3.14,3.14,0,0,0-.75,0,5,5,0,0,0-2.16.57c-2.35,1.24-3.17,4.13-3.5,6.56-1.15,8.3,1.11,16.41,3.23,24.33,2.2,8.18,4.93,16.23,7.85,24.18a272.32,272.32,0,0,0,11.7,27.69,112.91,112.91,0,0,0,6.5,11.56c1.27,1.95,2.4,4,3.75,5.9a32.83,32.83,0,0,0,5.35,5.76,44.54,44.54,0,0,0,29.72,10.47c12.19-.35,23.8-6.19,34.15-12.18a141.82,141.82,0,0,0,28.81-22,89.24,89.24,0,0,0,11.26-14c1.7-2.55,3.33-5.14,5-7.74a40.23,40.23,0,0,0,3.34-6,54.81,54.81,0,0,0,3.23-13.73c.67-5.08,1-10.2,1.33-15.31.14-2.19.27-4.39.45-6.58.07-.9-1.33-.89-1.4,0Z"/><path d="M821.3,217v18.32c0,4.49,0,8.73-1.36,13.06a24.83,24.83,0,0,1-5.27,9.48c-2.12,2.35-4.22,4.67-4.78,7.89a9.4,9.4,0,0,0,2.84,8.53c5,4.85,16,8,21.33,2.08l-.68.18c2.4.81,5.06,1.61,7.58.85a5.73,5.73,0,0,0,4-3.69c.28-.86-1.08-1.23-1.35-.37-1.34,4.21-6.77,2.88-9.81,1.85a.73.73,0,0,0-.69.18c-4.8,5.35-14.88,2.26-19.34-2.07a8.29,8.29,0,0,1-1.85-9.44c1-2.43,3.25-4.23,4.89-6.24a27.19,27.19,0,0,0,4.86-10c1.08-3.94,1.07-7.84,1.07-11.9V217a.7.7,0,0,0-1.4,0Z"/><path d="M696.65,327.94c5.61,4.48,13.05,1.91,17.78-2.54a47.5,47.5,0,0,0,6.82-8.52,81.14,81.14,0,0,0,5.7-10,85.35,85.35,0,0,0,7.11-22c.32-1.83.59-3.66.8-5.51a16.7,16.7,0,0,0,.12-5.64c-.82-3.32-4.38-4.7-7.19-5.94a178.57,178.57,0,0,0-47.25-13.19,228.28,228.28,0,0,0-24.5-2.11c-2.06-.06-4.11-.11-6.16-.12-1.65,0-3.67-.31-5.1.71s-2,2.74-2.59,4.14a34.36,34.36,0,0,0-1.81,5.41c-2,8-2.21,16.62-1.61,24.85a144.53,144.53,0,0,0,4.38,25.36c.53,2.08,1.1,4.15,1.69,6.22a.7.7,0,0,0,1.35-.38c-4.37-15.33-7.49-31.35-5.84-47.35a51.79,51.79,0,0,1,2.25-11.3,22.37,22.37,0,0,1,2.21-4.91c1.22-1.88,3.8-1.36,5.75-1.34,7.61.08,15.21.5,22.78,1.32a187,187,0,0,1,44.6,10.2c3.66,1.35,7.28,2.82,10.82,4.45a11.64,11.64,0,0,1,3.81,2.43c1.47,1.6,1.23,3.7,1,5.69A83.27,83.27,0,0,1,728.76,299a81.14,81.14,0,0,1-11.52,21.09c-2.35,3.07-5.13,6.08-8.72,7.69s-7.81,1.59-10.88-.86c-.69-.56-1.69.42-1,1Z"/><path d="M757.88,510.07c.08,5.65,5.39,11.64,11.42,10.44,2.46-.49,4.58-2.89,3.11-5.39a4.53,4.53,0,0,0-6.53-1.32c-2.57,1.84-3.31,5.33-3.46,8.29a36.87,36.87,0,0,0,1.47,11.43c.87,3.07,2.37,6.19,5.13,8,2.36,1.53,5.65,2.06,8.13.5,3.64-2.3,3.29-9.93-1.78-10.06-2.77-.07-4.6,2.41-5.54,4.74a24.89,24.89,0,0,0-1.24,10.53A33.65,33.65,0,0,0,771.07,558c1.28,3.06,3,6.39,5.9,8.19a5.33,5.33,0,0,0,7.24-1.22,13.88,13.88,0,0,0,2.48-8c0-2.13-.7-5.07-3.32-5.13-3-.06-5.29,3.63-6.32,6-2.5,5.74-1.63,12.6.44,18.34s6.45,12.22,13.39,10.68a6.4,6.4,0,0,0,2.78-11.17,5,5,0,0,0-6.4.84c-2.16,2.07-3.16,5.19-3.59,8.07a47.29,47.29,0,0,0-.31,12.06,21.71,21.71,0,0,0,3.34,10.15c3.55,5.08,11.22,7.67,15.67,2.15a7.75,7.75,0,0,0,1.69-3.77,4.29,4.29,0,0,0,0-1.92c-.21-.53-.91-.76-1.41-.93-2.85-1-5.74.78-7.66,2.78a21.83,21.83,0,0,0-4.74,9.31A31,31,0,0,0,789.14,626c.34,3.18,1.34,6.48,3.66,8.78a8.87,8.87,0,0,0,7.65,2.48c3-.55,4.85-3.07,5.6-5.93.7-2.67,1.45-6.77-1.17-8.66-2.07-1.51-4.86-.46-6.69,1a11.9,11.9,0,0,0-4.3,7.79c-.3,3,1.4,5.81,2.83,8.32a.7.7,0,0,0,1.21-.7c-1.2-2.12-2.71-4.48-2.67-7a10.33,10.33,0,0,1,3.17-6.77c1.37-1.29,4-2.82,5.78-1.33,2,1.69.95,5.87.21,8-2,5.78-9.07,4.81-11.92.26-3-4.76-2.42-11.41-1.08-16.6a21.84,21.84,0,0,1,4.06-8.79c1.82-2.14,4.74-4.22,7.55-2.62l-.35-.61a6.84,6.84,0,0,1-6.94,7.27c-4.24-.09-7.59-3.47-9.23-7.12-1.82-4-2.1-8.75-2-13.13.12-3.94.41-8.38,2.71-11.74.91-1.34,2.31-2.6,4-2.45a3.53,3.53,0,0,1,3,2.64,5.08,5.08,0,0,1-4.77,6.72c-8.29.52-11.7-10.65-12.4-17.14A19.41,19.41,0,0,1,778.55,558a9.77,9.77,0,0,1,3.64-4.36c2.16-1.11,3,1,3.09,2.77.16,2.89-.89,7.91-3.92,9.1-4.13,1.62-7.23-4.1-8.58-7a31.79,31.79,0,0,1-2.84-13c0-3.57.19-8.23,2.83-11,1.11-1.15,2.94-1.69,4.23-.51a4.58,4.58,0,0,1,1.21,3.76c-.4,3.94-5,4.44-7.88,2.88-3.77-2-5-6.61-5.77-10.51-.77-4.14-1.6-9.27.47-13.18.83-1.58,2.39-3.09,4.31-2.53s3,2.93,1,4.19c-3.23,2-7.63-.72-9.46-3.42a9.23,9.23,0,0,1-1.63-5.13.71.71,0,0,0-1.41,0Z"/><path d="M674.34,345a3.5,3.5,0,0,1-.14-.46c0-.08,0-.16-.05-.24s0-.06,0,0a.49.49,0,0,1,0-.12,2.68,2.68,0,0,1,0-.49,1.93,1.93,0,0,1,0-.24s0-.08,0-.12,0,.06,0,0a5.15,5.15,0,0,1,.26-.93c0-.1,0,.1,0,0a1.17,1.17,0,0,0,.05-.11l.12-.21a4,4,0,0,1,.28-.43.7.7,0,0,0-.25-.95.71.71,0,0,0-1,.25,4.81,4.81,0,0,0-.65,4.45.7.7,0,1,0,1.35-.38Z"/><path d="M664.75,359.37a3.44,3.44,0,0,1-.18-5.14c.66-.62-.33-1.61-1-1A4.81,4.81,0,0,0,662.1,357a4.87,4.87,0,0,0,1.94,3.55.7.7,0,1,0,.71-1.21Z"/><path d="M763.41,250.57c3.06-6.78,4.88-13.91,3.94-21.37-.83-6.6-3.18-12.91-4.46-19.43-1.72-8.77-1.79-17.9-1.5-26.81A102.06,102.06,0,0,1,764,162.14c2.6-10.58,7.92-19.74,14.47-28.34,3.74-4.92,7.51-10,11.65-14.55a77.83,77.83,0,0,1,18.64-15C822.82,96,839.54,91.72,855.84,93.6c2,.24,4.08.59,6.1,1,.88.19,1.25-1.16.37-1.35-16-3.47-32.87-.66-47.59,6.25a82.83,82.83,0,0,0-20.22,13.34c-5.23,4.72-9.47,10.29-13.82,15.79-6.68,8.45-12.94,17.17-16.42,27.47a82.13,82.13,0,0,0-3.76,18.63,154.88,154.88,0,0,0-.21,26.2c.56,7.57,2.6,14.73,4.42,22.06a44.53,44.53,0,0,1,1.5,9.53,33.77,33.77,0,0,1-1.53,10.84,53.45,53.45,0,0,1-2.49,6.48c-.36.81.84,1.53,1.22.71Z"/><path d="M931.75,231c1.13-2.21,2.24-4.43,3.38-6.64.91-1.75,2.72-4.13,4.61-1.89,1.38,1.63.77,4.24.09,6.05a24.37,24.37,0,0,1-2.58,4.73c-2,3-4.16,6-4.73,9.57-.33,2.1-.1,4.28-.61,6.35-.38,1.6-1.75,4.42-3.86,3.55-1.42-.58,0-1.94.52-2.7a8,8,0,0,0,1.15-2.74,9,9,0,0,0-.61-5.69c-.22-.51-1-.39-1.21,0a28.92,28.92,0,0,0-3,6c-.38,1.08-.67,2.18-.95,3.3a5,5,0,0,1-.54,1.54c-.36.55-1.22,1-1.57.19s-1.57-.12-1.21.7A2,2,0,0,0,923,254.4a3.2,3.2,0,0,0,2.11-2.42c.51-1.62.83-3.26,1.45-4.84a27.78,27.78,0,0,1,2.55-4.86H927.9a7.49,7.49,0,0,1-1,7.65c-1,1.35-1.37,3.08.4,4a3.71,3.71,0,0,0,4.48-1.25c1.51-1.82,1.77-4.24,1.88-6.5a16.84,16.84,0,0,1,1.86-7.61c1.05-1.92,2.36-3.68,3.53-5.53,2-3.13,4.85-8.94,1.25-12a3.5,3.5,0,0,0-5.2.71,20.58,20.58,0,0,0-2.08,3.69l-2.48,4.87c-.41.8.8,1.51,1.21.7Z"/><path d="M931.12,218.07a28,28,0,0,0-.37-7.54.71.71,0,0,0-.86-.49.72.72,0,0,0-.49.86,26.94,26.94,0,0,1,.32,7.17.7.7,0,1,0,1.4,0Z"/><path d="M930.69,216.52c2-1.12,2.27-4,2.41-6a18,18,0,0,0-1.27-8c-.16-.41-.84-.23-.67.19a17.75,17.75,0,0,1,1.28,7.06,17,17,0,0,1-.46,3.48,3.94,3.94,0,0,1-1.65,2.66c-.39.22,0,.82.36.6Z"/><path d="M932.89,214.31a5.86,5.86,0,0,0,3.87-3.52,14,14,0,0,0,.66-6.65c-.06-.89-1.46-.9-1.4,0a13.74,13.74,0,0,1-.44,5.85,4.55,4.55,0,0,1-3.06,3c-.88.2-.51,1.56.37,1.35Z"/><path d="M937.53,210.2c2.47-.51,2.38-3.68,2.46-5.62a18.45,18.45,0,0,0-.92-7.64c-.17-.42-.85-.24-.68.18a16.67,16.67,0,0,1,.93,6.54,32.57,32.57,0,0,1-.18,3.27c-.13,1.11-.58,2.34-1.79,2.6-.45.09-.26.77.18.67Z"/><path d="M852.58,131.8c.62.08,1.33.19,2,.33s1.39.32,2.07.51a.7.7,0,1,0,.37-1.35,27.83,27.83,0,0,0-4.45-.89.7.7,0,0,0,0,1.4Z"/><path d="M853,129.64a11.2,11.2,0,0,1,7.87.58l.27-.65L856.24,128c-.39-.12-2.75-.65-1.53-1.28a3.72,3.72,0,0,1,1.16-.1l1-.08c3-.2,6.06-.09,8.7,1.48l.36-.6a25.46,25.46,0,0,0-6-2.59c-1.06-.3-2.2-.39-3.26-.72-.85-.27-1.43-1.28-.42-1.78a3.37,3.37,0,0,1,1.38-.28,18.84,18.84,0,0,1,12.54,4.15c.35.28.85-.22.5-.5a20.13,20.13,0,0,0-7.17-3.68,19.16,19.16,0,0,0-3.83-.64,8.63,8.63,0,0,0-3.47.2,1.64,1.64,0,0,0-1.24,1.68c.14,1,1.19,1.47,2.1,1.65a26.84,26.84,0,0,1,8.53,3.11.35.35,0,0,0,.36-.6c-3.34-2-7.65-1.93-11.38-1.39-1.45.22-1.3,1.56-.13,2.12a23.78,23.78,0,0,0,2.89.94l3.56,1.14c.38.12.64-.47.27-.64a12,12,0,0,0-8.41-.65.35.35,0,0,0,.19.68Z"/><path d="M857.27,120.7a3,3,0,0,1,2.52-2.89c1.64-.34,3.35.5,4.78,1.16l.27-.64-3.05-1c-.78-.25-2.42-.5-2.95-1.23-1.13-1.57,1.6-1.73,2.23-1.73.82,0,1.63,0,2.45.11,3.43.29,6.86,1.3,9.21,4,.26.3.74-.08.55-.42-2.76-4.71-10-2.76-12.57-7.56l-.21.52a23.23,23.23,0,0,1,20,6,.35.35,0,0,0,.49-.5c-3.15-3.35-7.52-4.76-11.79-6.1-1.2-.37-2.4-.75-3.58-1.18-.41-.15-1.76-.45-1.93-.8-.34-.73,1.23-.68,1.64-.71a25.81,25.81,0,0,1,8.31.67c.37.09.63-.45.27-.64a28.14,28.14,0,0,0-10-3.2l.36.36c0-1.46,2.43-1.75,3.5-1.9a11.91,11.91,0,0,1,3.86.09c.31.06.65-.34.34-.58-1.12-.91-2.57-1-3.73-1.74-1.34-.89-.94-2.55.33-3.35a7.5,7.5,0,0,1,2.73-.89,14.85,14.85,0,0,1,11.56,2.89c.35.28.7-.33.35-.6a15.18,15.18,0,0,0-13.93-2.5c-1.57.56-3.26,2.14-2.42,4s3.26,1.63,4.62,2.72l.34-.58a12.62,12.62,0,0,0-5.73.21c-1.17.32-2.48.87-2.53,2.27a.38.38,0,0,0,.35.35,26.81,26.81,0,0,1,9.62,3.09l.27-.64a26.33,26.33,0,0,0-9.19-.62c-.63.07-1.65.08-1.86.86s.7,1.16,1.26,1.4c5.59,2.39,12.1,3,16.47,7.66l.49-.5a24,24,0,0,0-20.66-6.2.34.34,0,0,0-.21.51c2.58,4.91,9.85,2.93,12.56,7.56l.55-.42c-3.07-3.49-8.2-4.49-12.67-4.27-1.21.06-3.17.73-2.57,2.33a2.92,2.92,0,0,0,2,1.47c1.56.54,3.14,1,4.71,1.51.37.12.63-.47.27-.64-1.82-.84-4-1.81-6-1a3.55,3.55,0,0,0-2.39,3.37c0,.45.72.45.7,0Z"/><path d="M820.56,519.79c0-.74,0-1.48,0-2.22l-.35.61c1-.66,2-1.38,3-2.08a9.37,9.37,0,0,1,1.53-1c.89-.39,1.42.08,2.06.61l6.23,5.15c2,1.67,4,3.42,6,5,1.24.95,3.06-.63,3.87-1.59,2.79-3.32,2.13-7.72,1.71-11.69a17.87,17.87,0,0,1,2.62-12.06A16.54,16.54,0,0,1,858,493.15l-.37-1.35a19.83,19.83,0,0,0-13.65,12.29c-.87,2.35-1.63,6,.63,7.83,2.47,2,5.95-.2,7.38-2.42a7.25,7.25,0,0,0,1-2.48,26.27,26.27,0,0,1,.47-3.32,3.51,3.51,0,0,1,4.73-2l.54-1.28a5.88,5.88,0,0,0-6.66,3.51,3.83,3.83,0,0,0,.22,3.9,3.3,3.3,0,0,0,3.59.65c1.71-.59,3.23-2,5-.68A4,4,0,0,1,862,513a5.83,5.83,0,0,1-9.14,1.21c-.62-.66-1.61.34-1,1a7.18,7.18,0,0,0,8.39,1.32c2.63-1.33,4.44-4.43,3.34-7.35a5.19,5.19,0,0,0-2.86-3c-1.51-.62-2.85-.1-4.24.55-.77.36-2.38,1.2-3.1.29s-.19-2.39.36-3.22a4.43,4.43,0,0,1,4.62-2c.74.17,1.29-.92.54-1.28a4.92,4.92,0,0,0-6.91,3.27c-.25,1.13-.15,2.3-.48,3.41a6,6,0,0,1-1.64,2.71c-1.53,1.45-4.41,2.25-5.17-.37a8.4,8.4,0,0,1,.69-5.21A18.41,18.41,0,0,1,858,493.15c.89-.21.51-1.51-.37-1.35C851.2,493,846,498,844,504.09c-1.24,3.69-.81,7.23-.44,11,.34,3.41.11,8.54-4,9.69l.68.18c-4.33-3.6-8.65-7.22-13-10.78a2.52,2.52,0,0,0-2.12-.85,8.34,8.34,0,0,0-2.79,1.66l-1.46,1a7,7,0,0,0-1.49,1c-.49.62-.22,1.95-.21,2.71a.71.71,0,0,0,1.41,0Z"/><path d="M951.77,410.17a25.12,25.12,0,0,0,1.83,6.18.7.7,0,0,0,1,.25.73.73,0,0,0,.25-1,23.38,23.38,0,0,1-1.68-5.84.7.7,0,0,0-1.36.37Z"/><path d="M562.23,472.92a23.55,23.55,0,0,0,1.64,5.7.71.71,0,0,0,1,.26.73.73,0,0,0,.26-1,21.91,21.91,0,0,1-1.51-5.37.7.7,0,0,0-.86-.49.72.72,0,0,0-.49.86Z"/><path d="M564.74,466.6a23.13,23.13,0,0,0,1.65,5.7.7.7,0,0,0,1,.25.72.72,0,0,0,.25-1,22.28,22.28,0,0,1-1.51-5.36.69.69,0,0,0-.86-.49.71.71,0,0,0-.49.86Z"/><path d="M931,370.25c-7.78-5.15-16.94-8.87-23.06-16.17s-7.77-17.59-7.94-26.87a69.66,69.66,0,0,1,1.37-15.58c.18-.88-1.17-1.25-1.36-.37a69.61,69.61,0,0,0,.11,29.17,35.1,35.1,0,0,0,5.34,12.73,38.26,38.26,0,0,0,10.4,9.52c4.7,3.11,9.73,5.67,14.43,8.79.76.5,1.46-.72.71-1.22Z"/><path d="M945.82,401.55A32.85,32.85,0,0,0,948.4,410a.71.71,0,0,0,1,.25.72.72,0,0,0,.25-1,31.55,31.55,0,0,1-2.44-8.1.7.7,0,0,0-.86-.49.71.71,0,0,0-.49.86Z"/><path d="M842.56,132.2c-12-1.45-25.2-2.77-35.65,4.58-.37.25,0,.84.35.6,10.92-6.53,23.81-8.41,36.35-7.7.38,0,.44-.47.18-.65a22.71,22.71,0,0,0-13-4.22l.1.69a29.78,29.78,0,0,1,14,1.2.33.33,0,0,0,.39-.16,3.05,3.05,0,0,0-.77-3.51c-1.23-1.19-3.09-1.24-4.7-1.26l.18.66c2-1.23,4.32,1.41,6.53.4,1.61-.73,1.33-2.59.11-3.54-1.88-1.46-4.93-1.52-7.2-1.7a39.42,39.42,0,0,0-9.27.41l.19.67a28.42,28.42,0,0,1,15.11.64c1.34.41,2.94.73,3.94-.51s.36-2.39-.88-3c-3.75-1.8-8.43-2.45-12.55-2.57a37.66,37.66,0,0,0-13.52,2.09l.19.68a34.51,34.51,0,0,1,17.71-2.37c4.06.54,10.59,3.54,13.26-1.28a.36.36,0,0,0-.13-.48,21.32,21.32,0,0,0-9.68-1.82.35.35,0,0,0,0,.7c2.53.23,5.08.59,7.61.68,1.6.06,2.13-1,2.33-2.49a.37.37,0,0,0-.16-.4l-3.74-1.62a.35.35,0,0,0-.35.6c1.61,1.06,3.9,1.67,5.45.17a2.8,2.8,0,0,0,0-4.2c-1.51-1.3-4-1.14-5.82-1.17a67.15,67.15,0,0,0-9.61.53l.09.68a25.65,25.65,0,0,1,11.64-.88c2.34.37,5.24,1.38,7.11-.63a.35.35,0,0,0,0-.49,16.24,16.24,0,0,0-11.79-3.71.35.35,0,0,0,0,.7,24.75,24.75,0,0,1,5.95.61c1.68.38,3.45,1.33,5.2,1.19,2-.17,3.61-2.41,2-4.1a5.57,5.57,0,0,0-3.15-1.42,52.57,52.57,0,0,0-5.31-.59,54.23,54.23,0,0,0-11,.24,39.35,39.35,0,0,0-11.35,3.19c-.41.19,0,.8.36.61,7-3.22,14.84-3.91,22.47-3.3a30.43,30.43,0,0,1,5.46.69,4.11,4.11,0,0,1,2.06,1.08c1,1.12.21,2.48-1.12,2.82a6.42,6.42,0,0,1-3.44-.56c-.87-.26-1.74-.5-2.62-.67a25.23,25.23,0,0,0-5.48-.49v.7A15.56,15.56,0,0,1,857.9,102v-.49c-1.18,1.26-2.91,1.08-4.47.81a41.83,41.83,0,0,0-4.33-.64,26.24,26.24,0,0,0-9.64,1.16c-.36.11-.31.74.1.69a60.84,60.84,0,0,1,12-.44c1.51.11,3.87.58,3.66,2.59-.28,2.85-3.68,2.32-5.37,1.22l-.35.6,3.73,1.63-.16-.4c-.13,1-.33,1.77-1.46,2a10.52,10.52,0,0,1-2.61-.23l-5.19-.47v.7a20.47,20.47,0,0,1,9.33,1.73L853,112c-1.46,2.64-4.66,2.57-7.24,2a51.51,51.51,0,0,0-7.79-1.31,35.23,35.23,0,0,0-15.52,2.62c-.41.17-.25.83.19.68a37.09,37.09,0,0,1,22.78-.54c.84.25,1.69.52,2.51.85,2.35,1,.78,2.86-1.07,2.62s-3.72-1.09-5.63-1.39a28.09,28.09,0,0,0-11.07.45c-.44.1-.25.74.19.67a38.51,38.51,0,0,1,7.43-.47,26.9,26.9,0,0,1,6.93.91c.94.29,2.64,1.09,2.21,2.37-.39,1.13-2,1-2.84.71-1.51-.43-2.93-1.28-4.45-.37a.36.36,0,0,0,.18.66,8.77,8.77,0,0,1,3.1.37c1.3.5,2.4,1.9,1.77,3.34l.39-.16a30.54,30.54,0,0,0-14.42-1.21c-.4.06-.29.69.09.69a22,22,0,0,1,12.69,4.12l.18-.65c-12.66-.72-25.69,1.21-36.7,7.8l.35.6c10.35-7.27,23.45-5.92,35.3-4.48.45,0,.45-.65,0-.7Z"/><path d="M767.19,210c.79-13.53-2.69-28.85,5.46-40.84l-.64-.27a33,33,0,0,0-1.52,16,.35.35,0,0,0,.67,0A69.79,69.79,0,0,1,788,151.59c.31-.33-.19-.83-.5-.5a70.55,70.55,0,0,0-17,33.6h.67a32.24,32.24,0,0,1,1.53-15.64c.14-.4-.43-.59-.64-.27-8.24,12.1-4.76,27.53-5.56,41.19,0,.45.68.45.7,0Z"/><path d="M864.55,237.45c1.33-2.42,1-5.19,1.9-7.71a7.45,7.45,0,0,1,2.67-3.09,26.39,26.39,0,0,1,3.76-2.23c.8-.42.1-1.63-.71-1.22a27.77,27.77,0,0,0-3.85,2.3,9.44,9.44,0,0,0-3,3.21c-1.2,2.54-.67,5.55-2,8-.43.79.78,1.5,1.21.71Z"/><path d="M805.26,342c9.35,13.73,9.06,31.23,15.32,46.23a54.42,54.42,0,0,0,6.17,10.86c2.71,3.76,5.69,7.31,8.22,11.19a57.15,57.15,0,0,1,8.59,23.35A58.29,58.29,0,0,1,840.49,462c-.31.85,1,1.22,1.36.38a60.2,60.2,0,0,0-3.3-48.78c-4.33-8.06-11.12-14.49-15.23-22.69-3.75-7.5-5.45-15.81-7.31-23.92-2-8.92-4.32-18-9.54-25.67-.51-.74-1.72,0-1.21.71Z"/><path d="M805,236.54a28.1,28.1,0,0,1-13.29,2.39c-3.21-.15-6.85-.3-9.18,2.32-.59.67.36,1.65,1,1a22.59,22.59,0,0,0,2.69-3.4c.36-.56-.24-1.12-.79-1l-9.12,1.5.38,1.35,6.08-2c.6-.2.73-1.22,0-1.36a28,28,0,0,0-12.24.5.71.71,0,0,0,.19,1.38,15.55,15.55,0,0,0,6.83-1.61.71.71,0,0,0,0-1.21c-3.88-2-8.53-2.06-12.78-2.55-.89-.1-.88,1.3,0,1.4,4,.46,8.43.49,12.07,2.36v-1.21a14,14,0,0,1-6.12,1.42l.19,1.38a26.08,26.08,0,0,1,11.49-.5v-1.36l-6.09,2a.7.7,0,0,0,.38,1.35l9.11-1.5-.79-1a20.72,20.72,0,0,1-2.48,3.12l1,1c2.5-2.82,6.78-1.87,10.11-1.84a28.28,28.28,0,0,0,12.07-2.65c.82-.38.11-1.58-.71-1.21Z"/><path d="M822.43,216.81a30.07,30.07,0,0,1-1.16-6,3.72,3.72,0,0,1,.07-1.41c.27-.78.89-1.25,1.54-.34a5.23,5.23,0,0,1,.37,1.33c.33,1.27,1,2.88.71,4.22-.48,2.68-5.51,1.15-7.09.78-2.79-.65-5.52-1.48-8.29-2.23-5.35-1.43-10.71-2.86-16-4.44a31.21,31.21,0,0,0-4-1.11,26.9,26.9,0,0,0-10.76.33,21.52,21.52,0,0,0-5.11,2.11,15.84,15.84,0,0,1-5.54,2.25l.36,1.31q3.22-2.4,6.46-4.79c1.91-1.42,3.86-3.3,6.05-4.28s5.49-.08,7.85.31c7.07,1.13,14.13,2.43,21.25,3.27a68.8,68.8,0,0,0,12.67.4c.9-.06.91-1.46,0-1.4-7.76.5-15.42-.67-23.06-1.9-3.5-.56-7-1.16-10.49-1.73-2.24-.36-4.76-1-7-.71-2.69.36-4.87,2.55-7,4.1l-7.44,5.51c-.48.36-.42,1.41.35,1.31,3.83-.46,6.77-3.19,10.41-4.24a24.62,24.62,0,0,1,10.8-.47,59.68,59.68,0,0,1,6.27,1.79c6.3,1.81,12.63,3.49,18.95,5.22a47.5,47.5,0,0,0,6,1.34,7.5,7.5,0,0,0,4-.22c2.46-1.06,1.9-3.82,1.39-5.92-.34-1.37-.53-3.85-2.33-4.08a2.59,2.59,0,0,0-2.7,2.49c-.28,2.47.56,5.23,1.2,7.6a.7.7,0,0,0,1.35-.38Z"/><path d="M798.9,238.87c-5.58.13-11.6.29-16.92-1.68-3.69-1.36-6.71-4-9.79-6.34-.63-.48-1.48.61-.85,1.1a37.66,37.66,0,0,0,27,8.26c.89-.09.9-1.49,0-1.4a36.29,36.29,0,0,1-26-7.85l-.85,1.1c3.2,2.44,6.3,5.07,10.12,6.48,5.44,2,11.6,1.87,17.3,1.73a.7.7,0,0,0,0-1.4Z"/><path d="M806,236.7c-1.07-2.06-1.39-4.4-2.3-6.52a9,9,0,0,0-1.85-2.82,18.28,18.28,0,0,0-3-2.29c-.75-.51-1.45.7-.7,1.21a16.69,16.69,0,0,1,2.74,2.14,8.27,8.27,0,0,1,1.69,2.8c.78,2.05,1.15,4.23,2.17,6.19.42.8,1.63.09,1.21-.71Z"/><path d="M772.29,230.75a7.19,7.19,0,0,1,3.53-4.61.71.71,0,0,0,.25-1,.7.7,0,0,0-1-.25,8.61,8.61,0,0,0-4.17,5.44.72.72,0,0,0,.49.87.7.7,0,0,0,.86-.49Z"/><path d="M130.35,777.61c5.92-3.72,13.1-5.15,20-5.91a145.35,145.35,0,0,1,26.22-.24,256.83,256.83,0,0,1,54,9.59,105.33,105.33,0,0,1,19,7.05c9,4.64,15.85,13.12,25.75,16.13,4.63,1.41,9.93,1.62,14.44-.34s6.53-5.75,8.78-9.89c1.4-2.6,3.19-5.16,6.16-6s6,.07,8.47,1.58c5.25,3.17,8.16,8.45,9.55,14.26,2.45,10.3,2.58,22,12.28,28.52,9.16,6.16,20.91,5.07,30.81,1.5,6.15-2.22,11.94-5.29,17.82-8.13q9.74-4.71,19.71-8.92c13.39-5.7,27-10.83,40.7-15.77q10.18-3.68,20.4-7.24c5.67-2,11.45-3.92,17.45-4.64s12.2-.18,17.2,3.35c4.31,3,6.94,7.77,9.63,12.17,2.14,3.5,4.39,7.13,7.67,9.68,4,3.13,8.92,3.64,13.79,2.49,6.66-1.58,13-4.88,19.45-7.2s13-4.43,19.69-6.29a286.37,286.37,0,0,1,42.43-8.5c13.56-1.66,27.06-2,40.7-2.09,9.89-.08,20.82-1.54,25.81-11.26,2.67-5.21,3.35-11.21,6.18-16.35a23.17,23.17,0,0,1,28.89-9.75c.82.36,1.53-.85.71-1.21A24.77,24.77,0,0,0,688.37,758c-4,3.37-6.28,7.82-7.88,12.74-2,6.06-3.5,12.59-9.1,16.4-4.9,3.33-11.14,4-16.9,4.11-6.53.18-13.06,0-19.58.24a287.38,287.38,0,0,0-82.71,15.64c-6.43,2.24-12.65,5-19.07,7.26s-13,2.21-18-3c-6.53-6.88-9-17.18-18-21.63-9.79-4.83-21.64-1.35-31.3,2C439,801,412,810.66,386.3,822.79c-12,5.65-24.52,13.6-38.3,12.45-6.05-.5-12.18-2.85-16.25-7.5s-5.33-11.08-6.4-17.07c-1.71-9.53-4.33-20.35-14.75-23.83a10,10,0,0,0-11,2.79c-3.68,4.16-4.46,9.94-9.82,12.65-12.35,6.24-24.28-4.93-33.55-11.58a66.17,66.17,0,0,0-17.33-8.45c-16.46-5.7-33.85-9.11-51.12-11.14-16.28-1.91-34.42-3.32-50.3,1.74a34.52,34.52,0,0,0-7.83,3.54c-.77.48-.06,1.7.7,1.22Z"/><path d="M303.35,760.08a168.5,168.5,0,0,1,23.52,41.12c2.84,7.07,5.42,14.58,10,20.77a16.37,16.37,0,0,0,7.55,6.06c3.57,1.27,7.6,1.16,11.32.92,15.65-1,30.05-8,44.22-14.09q23-9.93,46.8-17.69,11.88-3.87,23.93-7.19,6-1.65,12-3.15a35.09,35.09,0,0,0,9.21-3.21,13.51,13.51,0,0,0,3.56-3,.72.72,0,0,0,0-1,185.69,185.69,0,0,0-19.1-14.78c-3.19-2.15-6.46-4.52-10.1-5.85a16.54,16.54,0,0,0-10.85.14c-13.93,4.46-23.81,16.38-36.62,22.94-3.69,1.89-7.57,3-11.71,2.09s-7.76-3.07-11.42-4.94q-11.14-5.67-22-12-5.44-3.19-10.81-6.55c-3-1.89-6.91-3.73-8.95-6.76a5.37,5.37,0,0,1-.83-4.54,3.16,3.16,0,0,1,3.3-2.57c1.88.18,3.39,1.75,4.72,2.93s2.8,2.41,4.23,3.57a126.47,126.47,0,0,0,38.65,21.27c1.74.59,3.5,1.13,5.26,1.65a.71.71,0,0,0,.86-.49c3.59-15,14-27.65,27.43-35A52.28,52.28,0,0,1,460.76,734a26.34,26.34,0,0,1,13.43,2.84,27.41,27.41,0,0,1,8.21,7c5.39,6.71,8.34,15.11,11,23.18l1.28-.54c-5.39-9.74-15.95-15-26.52-17.07-12-2.37-25.88-1.77-36.39,5.15A29.56,29.56,0,0,0,420,769.13c-.2.55.54,1.16,1,.8,9.14-6.81,19.15-13,30.42-15.48,9.61-2.07,19.93-.77,28.25,4.67A26.39,26.39,0,0,1,489.81,771c.34.82,1.69.46,1.35-.37-3.75-9.07-12.22-15-21.55-17.39-10.83-2.72-22-.21-31.85,4.56a108.61,108.61,0,0,0-17.44,10.91l1,.8c4-11.32,15.35-17.75,26.73-19.37,10.92-1.56,23.15,0,32.95,5.21a30.16,30.16,0,0,1,12.44,11.85c.38.68,1.54.22,1.28-.54-2.48-7.52-5.2-15.2-9.79-21.72-4.74-6.72-11.4-11.33-19.71-12.21-8.57-.89-17.56,1.52-25.27,5.17A59.4,59.4,0,0,0,421.11,752a54.4,54.4,0,0,0-12.4,23.38l.86-.49a125.16,125.16,0,0,1-41.25-21c-1.64-1.26-3.25-2.57-4.82-3.91a44.62,44.62,0,0,0-4.09-3.42c-2.34-1.58-5.42-1.73-7.06.9a6.76,6.76,0,0,0,.75,7.74c2.18,2.8,5.66,4.56,8.61,6.41q11.1,7,22.63,13.25,5.66,3.08,11.39,6c3.56,1.8,7.19,3.84,11.12,4.69,7.65,1.66,14.83-3.16,20.83-7.33s11.85-9.13,18.23-13a44.16,44.16,0,0,1,10.45-4.92,16.66,16.66,0,0,1,6.23-.71,16.3,16.3,0,0,1,6.25,2.2,142.4,142.4,0,0,1,20.77,14.76c1.62,1.33,3.21,2.7,4.78,4.08v-1c-2.2,2.61-5.33,3.92-8.54,4.86-3.63,1.05-7.32,1.88-11,2.85q-11.73,3.12-23.31,6.77-23.16,7.29-45.61,16.64c-14.27,5.94-28.37,13.36-43.76,16a56.66,56.66,0,0,1-11.63.86c-3.94-.14-7.54-1.12-10.41-3.93a33.81,33.81,0,0,1-6.09-9.16c-1.79-3.56-3.27-7.26-4.74-11a179.5,179.5,0,0,0-21.63-40.07c-1.09-1.5-2.21-3-3.36-4.44-.55-.71-1.54.29-1,1Z"/><path d="M303.56,758.23a81,81,0,0,1,40.08-13.63.71.71,0,0,0,.35-1.31L323,728.2l-.16,1.28c18.88-6.71,36.81,6.79,52.61,15.17a79.62,79.62,0,0,0,14.4,6.11.7.7,0,0,0,.69-.18c12.68-13.2,29.46-23,47.75-25.49a61.57,61.57,0,0,1,47.43,13.09,52.36,52.36,0,0,1,16.09,22.33.71.71,0,0,0,1.35,0c2.4-6.9,2.79-14.26,2.39-21.5A185.22,185.22,0,0,0,503,717.89a213,213,0,0,0-11.23-40.55q-3.8-9.8-8.52-19.19a153.37,153.37,0,0,0-10.32-18.06c-4-5.76-10.47-8.64-16.54-11.73a193.61,193.61,0,0,0-19.69-8.79c-14.88-5.61-30.81-8.92-46.75-7.33a.71.71,0,0,0-.5,1.19,134.19,134.19,0,0,1,32.72,47.15,143.24,143.24,0,0,1,8,27.19c.87,4.4,1.77,8.85,3.69,12.92a19.93,19.93,0,0,0,8.89,9.32c4.69,2.45,10,3.53,14.78,5.65A57.17,57.17,0,0,1,472.14,725c.67.6,1.67-.39,1-1a58.44,58.44,0,0,0-12.41-8.35c-4.27-2.14-8.81-3.43-13.28-5.09s-8.67-4.15-11.26-8.43c-2.36-3.88-3.42-8.4-4.31-12.8a161.08,161.08,0,0,0-7.61-27.21A136.68,136.68,0,0,0,411,636.69a134.47,134.47,0,0,0-20.6-24.25l-.49,1.2c14-1.39,28,1,41.25,5.45a171.18,171.18,0,0,1,19.59,8.06q4.82,2.31,9.52,4.84c3,1.62,6.22,3.2,8.72,5.59s4.22,5.52,6,8.47,3.4,5.87,5,8.87q4.84,9.12,8.78,18.68A213.51,213.51,0,0,1,500.64,713a197.44,197.44,0,0,1,3.27,23.22c.63,8,.52,16.21-2.15,23.89h1.35c-5.82-16-19.53-28-35.4-33.59-17.32-6.09-36.29-3.67-52.61,4.26a90.35,90.35,0,0,0-25.61,18.78l.69-.18c-18.43-5.48-32.95-20.32-52.47-22.76a33.11,33.11,0,0,0-15.3,1.48.71.71,0,0,0-.16,1.28l21,15.09.35-1.3A82.36,82.36,0,0,0,302.85,757c-.74.5,0,1.72.71,1.21Z"/><path d="M326.94,724.28c-1.53.08-2.47-1.24-2.72-2.64A4.6,4.6,0,0,1,326,717.4a17.07,17.07,0,0,1,4-2.48c1.78-.87,3.58-1.72,5.37-2.57,7.25-3.43,14.59-6.69,22.15-9.38,14.25-5.07,29.51-8.07,44.64-5.93a59.07,59.07,0,0,1,22.84,8l.35-1.3c-25.33-1.57-51.71-3.08-75.85,6.31A80.34,80.34,0,0,0,332,719.46c-.73.52,0,1.74.71,1.21,20.28-14.47,45.86-17.18,70.09-16.61,7.54.18,15.06.65,22.58,1.11.73.05.92-1,.36-1.31-13.47-8.31-29.87-10.22-45.34-8.12-17.2,2.34-33.31,9.44-48.84,16.89-3.12,1.5-7.47,3.1-8.58,6.78-.82,2.68.83,6.44,4,6.27.9,0,.91-1.45,0-1.4Z"/><path d="M450.43,623.11c9.32,2.61,19.42,5.5,26.06,13,3.76,4.27,6.3,9.71,8.87,14.74s4.84,9.89,7,15a244.83,244.83,0,0,1,19.56,97.33q-.06,8.28-.68,16.54c-.18,2.48-.74,5.12-.55,7.61.15,1.91,1.2,3.6,3.23,3.85,2.28.28,4.56-1,6.52-2,2.3-1.17,4.54-2.48,6.73-3.87,4.46-2.82,8.72-6,13.05-9a106.51,106.51,0,0,1,13.6-8.37,69.22,69.22,0,0,1,13.58-4.9c18.1-4.63,38.27-3.79,54.78-13.54a45.45,45.45,0,0,0,5.51-3.82c.71-.57-.29-1.55-1-1-15.07,12.09-35.62,12-53.71,15.65A91.14,91.14,0,0,0,559.42,764a71.51,71.51,0,0,0-13.24,6.62c-8.87,5.56-16.92,12.4-26.26,17.2-1.76.91-5.73,3.4-7.34,1.06a5.22,5.22,0,0,1-.44-3.33c.12-1.44.28-2.87.4-4.3q.66-8.15.77-16.31a246.27,246.27,0,0,0-18-95.78A196.89,196.89,0,0,0,481,640a32,32,0,0,0-10.27-10.5,57.39,57.39,0,0,0-13.17-5.75c-2.24-.72-4.5-1.36-6.77-2a.7.7,0,0,0-.37,1.35Z"/><path d="M450.2,620a43.86,43.86,0,0,0-2.9-16.38l-.86.86c27.13,3.94,54.79,7.95,80.13,19,3.15,1.37,6.27,2.85,9.32,4.44a14.81,14.81,0,0,1,3.8,2.55,7.91,7.91,0,0,1,1.95,5.12c.28,3.63.25,7.31.3,11s.07,7.49,0,11.23q-.18,22.23-2.31,44.38a502.65,502.65,0,0,1-7.39,50c-.17.87,1.13,1.26,1.35.37,7.36-29.47,14.74-59.08,17.9-89.36.89-8.49,1.43-17,1.55-25.55l-1.3.35c7.36,11,5.05,25.15,3.12,37.42q-3.6,22.93-7.21,45.87c-.63,4-1.17,8-1.93,12-.66,3.5-1.67,7-4,9.75-.42.49,0,1.43.69,1.18a141.84,141.84,0,0,0,32.1-16.25c2.36-1.6,4.73-3.86,7.48-4.79,3.21-1.08,6.58.71,9.51,1.89l18.38,7.39L631,740.94l-.31-1.17-5.71,5c-.63.54.17,1.46.85,1.1a18.14,18.14,0,0,1,18.74,1.24l.17-1.29c-16.51,6.65-33.06,13.3-50.17,18.28-7.78,2.26-15.67,4-23.59,5.69a144.66,144.66,0,0,0-20.79,5.61c-7.24,2.72-14,6.6-19.34,12.3a.71.71,0,0,0,.68,1.18c15.41-3.84,30.83-7.69,46.1-12.07a452.46,452.46,0,0,0,45-15.2c8.18-3.31,16.24-6.93,24.11-10.94l-1-.42a152.24,152.24,0,0,0,16.59,37.33l.42-1c-15.27,2.54-30.8,2.31-46.22,2.11-15.11-.2-30.34-.43-45.3,2a99.1,99.1,0,0,0-24.09,7.08l.71,1.21a139.17,139.17,0,0,1,43.4-15.18,145.71,145.71,0,0,1,22.65-2c7.08-.1,14.19,0,21.24-.71,7.5-.8,14.9-2.71,21.25-6.93.74-.49,0-1.71-.71-1.21-11.92,7.92-26.84,7.29-40.55,7.43a145.74,145.74,0,0,0-44.53,7.1,140.11,140.11,0,0,0-23.46,10.25c-.81.45-.1,1.57.71,1.21,13.85-6.17,29-8.27,44-8.85,15.3-.58,30.62.29,45.92-.07a177.56,177.56,0,0,0,25.33-2.18.7.7,0,0,0,.42-1,150.56,150.56,0,0,1-16.44-37,.71.71,0,0,0-1-.42,333.24,333.24,0,0,1-43.68,18.17c-15,5.09-30.18,9.38-45.47,13.37-8.58,2.24-17.18,4.38-25.78,6.52l.68,1.18c9.82-10.54,24.21-14.25,37.81-17.19,7.63-1.65,15.25-3.23,22.78-5.34,8.41-2.36,16.69-5.14,24.89-8.15,9.34-3.42,18.56-7.13,27.79-10.84a.72.72,0,0,0,.17-1.29,19.55,19.55,0,0,0-20.16-1.23l.85,1.1,5.71-5a.71.71,0,0,0-.31-1.17l-38.13-15.35c-2.83-1.14-5.81-2.71-8.91-2.83-2.8-.1-5.05,1.43-7.23,3a140.4,140.4,0,0,1-15.59,9.77A138.42,138.42,0,0,1,542,742.83l.69,1.18c4.43-5.12,4.79-12.56,5.79-19l3.72-23.68,3.72-23.67c1-6.62,2.18-13.28,2.25-20,.08-7.17-1.16-14.43-5.2-20.48a.71.71,0,0,0-1.31.36c-.44,30.32-6.29,60.19-13.27,89.59-2,8.33-4,16.64-6.13,25l1.35.37a505.43,505.43,0,0,0,9.71-90.89q.17-11.48-.17-23c-.09-2.95,0-6.23-2-8.66s-5.42-3.82-8.22-5.18a189.26,189.26,0,0,0-39.31-13.5c-15.44-3.64-31.16-5.95-46.86-8.22-.46-.07-1.07.3-.86.86a42.93,42.93,0,0,1,2.84,16,.71.71,0,0,0,1.41,0Z"/><path d="M1020.88,790q8.37.66,16.76.73a132.75,132.75,0,0,0,14.92-.49,37.79,37.79,0,0,0,12.11-3.09,22.91,22.91,0,0,0,5.17-3.35c1.4-1.22,2.9-2.85,2.9-4.83a3.38,3.38,0,0,0-2.68-3.42c-1.78-.23-3.11,1.37-3.56,2.93-1.19,4.13,2,7.92,5.41,9.74,3.89,2.08,8.43,3.16,12.6,4.54q6.56,2.16,13.13,4.29,28.08,9.06,56.41,17.25c19.32,5.56,38.75,10.77,58.31,15.44,18.63,4.45,37.39,8.43,56.29,11.55,2.21.37,4.43.72,6.64,1.06.88.14,1.26-1.21.37-1.35-17.4-2.68-34.68-6.13-51.85-10-18.29-4.16-36.45-8.82-54.52-13.82q-26.82-7.43-53.38-15.77-12.67-4-25.31-8.1c-4-1.32-8.09-2.65-12.12-4s-9.2-2.84-10.56-7.46a5.21,5.21,0,0,1,0-3.15c.46-1.33,2-2.51,3.06-1,1.41,2.16-1.3,4.47-2.81,5.66a26.5,26.5,0,0,1-11.26,4.81,71.6,71.6,0,0,1-12.75,1.11q-7.76.15-15.52-.21-3.89-.18-7.75-.48c-.9-.07-.9,1.33,0,1.4Z"/><path d="M1072.85,777.14q29.14-6.55,58.41-12.58,29.71-6.16,59.5-12,16.44-3.25,32.89-6.45c.89-.17.51-1.52-.37-1.35q-29.51,5.75-59,11.64-29.71,6-59.35,12.28-16.26,3.48-32.49,7.11c-.89.2-.51,1.55.37,1.36Z"/><path d="M1129.67,573.9l26.59,49.41L1183,672.94q13.18,24.48,26.38,49T1236,770.74Q1249.47,795,1263.31,819l3.48,6a.7.7,0,0,0,1.21-.71q-13.93-24-27.39-48.19t-26.75-48.81q-13.23-24.4-26.36-48.88l-26.71-49.63-26.59-49.4-3.32-6.18c-.43-.8-1.64-.09-1.21.71Z"/><path d="M1130,572.48a375.18,375.18,0,0,1,61.71-1.52c10.23.58,20.45,1.42,30.69,2.09s20.43,1,30.67,1.09c16.07.12,32.13.19,48.2.08q17.41-.11,34.81-.47c12.37-.24,24.74-.51,37.11-.72l5.49-.1a.7.7,0,0,0,0-1.4c-12.82.21-25.63.48-38.44.74q-17.13.35-34.25.52c-15.24.12-30.48.09-45.73,0-10.09-.07-20.17-.15-30.25-.69-10.24-.55-20.46-1.38-30.69-2.07s-20.65-1.22-31-1.16-20.54.56-30.77,1.46c-2.52.23-5,.48-7.56.75-.89.1-.9,1.5,0,1.4Z"/><path d="M1267.13,826.25c5.75,3.4,12.7,2.44,18.87.89,7.71-1.95,15.33-4.4,23-6.68q23.46-7,46.78-14.44t46.46-15.31q23.13-7.87,46.12-16.19t45.77-17l5.66-2.18c.84-.33.48-1.68-.37-1.36q-45.12,17.43-90.88,33.14-45.59,15.66-91.75,29.59-13.07,3.95-26.17,7.75c-7.17,2.08-15.79,4.74-22.74.63a.7.7,0,0,0-.71,1.21Z"/><path d="M1379,572.73c8.87,11.27,16.5,23.52,24,35.73,8.26,13.45,16.26,27.07,24.71,40.4,7,11.12,14.55,21.91,22.32,32.53,7.29,10,14.7,19.85,21.75,30q12.8,18.39,23.93,37.84,1.63,2.87,3.24,5.74a.7.7,0,0,0,1.21-.7q-11.34-20.35-24.44-39.63c-7.08-10.36-14.56-20.44-22-30.55-7.62-10.36-15.1-20.83-22.07-31.64-8.53-13.23-16.53-26.79-24.72-40.22-7.63-12.54-15.35-25.11-24.16-36.86q-1.38-1.83-2.79-3.62c-.56-.71-1.54.29-1,1Z"/><path d="M1267,825.71a14.87,14.87,0,0,0-.22,8.44c.59,2.53,1.78,5.31,4,6.77,3.34,2.15,8.2,1.37,11.8.46,4.77-1.22,9.44-3,14.11-4.49l58.16-19,57.81-18.84c18.35-6,36.7-12,54.61-19.22,8.81-3.56,17.52-7.39,26-11.63,1.59-.79,3.18-1.56,4.8-2.28a12.26,12.26,0,0,0,3.51-2,2.09,2.09,0,0,0,.6-2.55,6.1,6.1,0,0,1-1.07-2.59c0-.78.11-1.55.11-2.32a2.3,2.3,0,0,0-1.66-2.44c-.86-.31-1.22,1.05-.38,1.35,1.2.43.45,2.83.57,3.83a5.12,5.12,0,0,0,.7,2.11c.36.6.79.84.29,1.46-.8,1-2.39,1.52-3.51,2-1.51.67-3,1.39-4.46,2.13-8.18,4.08-16.55,7.79-25,11.23-16.8,6.81-34,12.55-51.21,18.18q-27.24,8.91-54.49,17.77L1307.29,832l-13.53,4.41c-4.37,1.42-8.76,3.15-13.29,4-3.49.69-8.18,1-10.49-2.28a14.21,14.21,0,0,1-2.28-8.22,11.11,11.11,0,0,1,.65-3.84c.32-.85-1-1.22-1.35-.38Z"/><path d="M1076.83,778.14c20.67,6.34,41.25,13.2,62.29,18.24a79.69,79.69,0,0,0,11.52,2.23c.78.07.84-.94.36-1.31a12.57,12.57,0,0,0-3.32-1.37c-2-.74-4.11-1.44-6.18-2.15s-4.2-1.42-6.29-2.17a12.65,12.65,0,0,1-3.38-1.38l-.16,1.28c16.86-5.39,33.75-10.71,50.73-15.71,10.12-3,20.29-5.79,30.44-8.63q9.32-2.61,18.61-5.32a.71.71,0,0,0-.37-1.36c-10.37,3-20.79,5.93-31.2,8.84q-18,5.05-35.9,10.55-16.38,5-32.69,10.28a.71.71,0,0,0-.16,1.28,12.53,12.53,0,0,0,3.31,1.38c2,.74,4.12,1.44,6.18,2.14s4.2,1.43,6.29,2.18a13,13,0,0,1,3.38,1.37l.35-1.3a72.12,72.12,0,0,1-10-1.9c-4.43-1-8.84-2.2-13.24-3.39-9.16-2.5-18.23-5.32-27.31-8.1l-22.92-7c-.86-.26-1.23,1.09-.37,1.36Z"/><path d="M1134.06,795.06l55.32,11.51c8.26,1.72,16.64,3.16,24.77,5.4,3.19.88,6.34,1.76,9.66,1.39a60.7,60.7,0,0,0,11.35-2.71c3.66-1.15,7.24-2.55,10.77-4a45,45,0,0,0,6.54-3.11c.76-.48.06-1.69-.71-1.21a40.15,40.15,0,0,1-5.36,2.6c-3.06,1.34-6.17,2.57-9.32,3.66a93.24,93.24,0,0,1-10.73,3,17.94,17.94,0,0,1-5.88.47,33.86,33.86,0,0,1-4.55-1c-7.92-2.1-16-3.66-24-5.33l-27-5.63-30.46-6.33c-.88-.19-1.25,1.16-.37,1.35Z"/><path d="M1153.33,786.33a109.68,109.68,0,0,1,16.89,6.91V792c-5.39,2.49-11.48,3.58-17.16,5.21l.54,1.28c7.56-4.3,16.94-4.16,24.52-8.46a.72.72,0,0,0,.14-1.11,64.76,64.76,0,0,0-13-8.38l-.36,1.3a20.87,20.87,0,0,1,8.88,3.56c1.34.9,2.49,2,3.73,3a4.57,4.57,0,0,0,3.44,1.21,22.51,22.51,0,0,0,4.8-1.45l5.34-1.84,10.9-3.74a.7.7,0,0,0,0-1.35,49.81,49.81,0,0,1-12.63-7.27c-.68-.55-1.66.35-1,1,2.95,2.79,6.14,5.7,10.08,7,4.32,1.38,8.13-.36,12.18-1.77,8.55-3,17.52-4.61,26-7.82.84-.31.48-1.67-.37-1.35-8,3-16.34,4.63-24.41,7.28-4,1.3-8,3.59-12.28,2.52-4-1-7.26-4-10.2-6.81l-1,1a51.45,51.45,0,0,0,13.25,7.63v-1.35L1191,784.91l-5.11,1.75c-1.61.56-3.58,1.61-5.3,1.6s-2.71-1.49-3.85-2.42a26.83,26.83,0,0,0-3.6-2.49,21.26,21.26,0,0,0-8.19-2.89.71.71,0,0,0-.35,1.31,63.29,63.29,0,0,1,12.69,8.17l.14-1.11c-7.57,4.31-17,4.16-24.52,8.47a.71.71,0,0,0,.54,1.29c5.81-1.67,12-2.81,17.5-5.35a.72.72,0,0,0,0-1.22,112.64,112.64,0,0,0-17.23-7c-.86-.28-1.23,1.08-.37,1.35Z"/><path d="M1200.07,816.57a4,4,0,0,0,.22,4.37,3.7,3.7,0,0,0,4,1.14,3.92,3.92,0,0,0,1.11-6.46l-.68,1.18c3,.59,6,1.31,9,1.9l-.42-1c-1,1.44-2.25,2.79-2.18,4.66a.73.73,0,0,0,.51.68c2.84.9,5.67,1.81,8.51,2.7,1.81.57,3.43.65,4.51-1.1a10.46,10.46,0,0,0,1-2.12,2.76,2.76,0,0,0,.19-.84c0-.33-.31-.87-.15-1.15-.11.2.16.17.45.32a7.87,7.87,0,0,1,.91.59,16.33,16.33,0,0,1,1.86,1.66l-.11-.85c-.7,1.35-1.44,3-.83,4.57s2.39,1.91,3.81,2.37c2.25.73,4.49,1.56,6.77,2.18a6.22,6.22,0,0,0,5.25-.45,4.27,4.27,0,0,0,0-7.06c-1.38-1.05-2.77-1.09-4.42-1.25a26.61,26.61,0,0,1-5.94-1.47c-3.92-1.33-7.73-2.9-11.88-3.39a14.32,14.32,0,0,1-5.35-1.31c-.66-.37-1.57-.93-1.5-1.75a1.55,1.55,0,0,1,.82-1.21c1-.56,2.48-.29,3.55-.09a35.48,35.48,0,0,1,3.92,1.07c3.9,1.24,7.83,2.39,11.76,3.57l31.38,9.42a.7.7,0,0,0,.37-1.35l-26.63-8-13.07-3.92a64,64,0,0,0-7.76-2.21c-1.81-.31-4.26-.46-5.33,1.37a2.46,2.46,0,0,0,.06,2.92,7.61,7.61,0,0,0,3.84,2.23,41.29,41.29,0,0,0,4.94.79,34.09,34.09,0,0,1,5.81,1.55c3.6,1.24,7.19,2.82,11,3.18,1.91.18,3.93.41,4.77,2.46a2.69,2.69,0,0,1-.77,3,4.07,4.07,0,0,1-3.74.7,65.65,65.65,0,0,1-7.22-2.27c-1-.32-2.48-.51-3-1.49s.16-2.51.66-3.46a.74.74,0,0,0-.11-.85,10.47,10.47,0,0,0-3.69-2.76c-1.29-.43-2.06.43-1.9,1.71a3.42,3.42,0,0,1-.59,2.29,4.83,4.83,0,0,1-.64,1,2.07,2.07,0,0,1-2.06.16c-3-.79-6.06-1.92-9.07-2.87l.51.67c-.06-1.56,1.14-2.76,2-4a.7.7,0,0,0-.42-1c-3-.59-6-1.31-9-1.91-.62-.12-1.28.69-.68,1.17a2.55,2.55,0,0,1-.18,3.94,2.23,2.23,0,0,1-2.45-.11,2.43,2.43,0,0,1-.49-3.17c.38-.81-.83-1.52-1.21-.7Z"/><path d="M1177.33,789.84c5.78,1.85,10.94,5,16.31,7.8v-1.21c-5.07,2.34-10.55,3.69-15.68,5.89l.7,1.21c7.57-4.31,16.95-4.16,24.52-8.47a.7.7,0,0,0,.14-1.1,64.57,64.57,0,0,0-13.31-8l-.36,1.31a22.88,22.88,0,0,1,9,3.17,23.82,23.82,0,0,1,3.53,2.66,5.24,5.24,0,0,0,3.44,1.61c1.62,0,3.25-.82,4.75-1.33l5.57-1.91,11.14-3.83a.71.71,0,0,0,0-1.35c-5-1.92-10.18-3.9-14.4-7.22-.69-.54-1.67.37-1,1a23.65,23.65,0,0,0,7.38,4.22c2.7,1.08,5.43,2.13,8.14,3.16,1.33.51,3,0,4.3-.37,2.24-.59,4.44-1.35,6.62-2.14,1.82-.67,3.63-1.37,5.45-2.07.83-.32.47-1.68-.37-1.35-4.43,1.69-8.93,3.66-13.6,4.57a3.33,3.33,0,0,1-2.23-.11c-1.54-.7-3.13-1.26-4.71-1.83-3.48-1.27-7.22-2.53-10-5.08l-1,1c4.43,3.47,9.81,5.55,15,7.57v-1.35L1216,789.92l-5.57,1.92c-1.54.52-3.68,1.69-5.33,1.38-1.44-.27-2.49-1.69-3.61-2.55a22.6,22.6,0,0,0-3.71-2.32,24,24,0,0,0-8.17-2.51.7.7,0,0,0-.35,1.3,63.94,63.94,0,0,1,13,7.81l.14-1.1c-7.56,4.3-16.94,4.16-24.51,8.47-.81.46-.1,1.55.7,1.21,5.14-2.2,10.62-3.54,15.68-5.89a.7.7,0,0,0,0-1.21c-5.47-2.82-10.74-6.06-16.64-7.94-.86-.28-1.23,1.07-.37,1.35Z"/><path d="M1203.17,795.89c4.08,1.88,8.24,3.54,12.33,5.38,1.71.77,3.53,1.86,5.47,1.73a9.19,9.19,0,0,0,2.48-.74c1-.34,2-.59,3-.88a154.64,154.64,0,0,0,20.73-7.24c.83-.37.11-1.58-.7-1.21a145.76,145.76,0,0,1-19.56,6.85c-1.81.52-3.59,1.2-5.4,1.7-2.1.57-4.38-1-6.22-1.81-3.81-1.69-7.68-3.25-11.46-5-.82-.38-1.53.83-.71,1.21Z"/><path d="M1220.47,803.32a.71.71,0,0,0,0-1.41.71.71,0,0,0,0,1.41Z"/><path d="M1220.07,801.75q-6.87,3.57-13.92,6.79c-.82.37-.11,1.58.7,1.21q7.05-3.21,13.93-6.79c.8-.41.09-1.62-.71-1.21Z"/><path d="M713.57,755.71c15.43,3.82,32.16,8.26,48,4.38a40.46,40.46,0,0,0,10.64-4.24c3.74-2.16,7-5,10.38-7.65a50.31,50.31,0,0,1,22.82-9.84c9.34-1.6,18.89-1.34,28.32-1,.9,0,.9-1.37,0-1.4-15.85-.54-33.18-.94-47.16,7.74-3.7,2.29-7,5.21-10.41,7.82a40.49,40.49,0,0,1-11,6.06c-7.55,2.66-15.68,3-23.58,2.21-9.37-.87-18.55-3.16-27.66-5.42-.88-.21-1.25,1.14-.38,1.36Z"/><path d="M939.55,738.72a35.49,35.49,0,0,0,17.29-9.2c1.39-1.33,3.52-3.15,4-5.11.4-1.74-1-3-2.57-3.36a6.79,6.79,0,0,0-4.73.69,8.65,8.65,0,0,0-4.58,8.46c.48,3.43,3.38,5.76,6.53,6.73,3.83,1.18,7.79.63,11.63-.17,5-1,9.92-2.08,14.65.48,3.09,1.68,7.81,5.1,7.24,9.18-.18,1.28-.77,2.43-.88,3.74a29,29,0,0,0,.08,4.47c.14,2.24.45,4.53.39,6.78a11.94,11.94,0,0,1-2.31,6.33,10.11,10.11,0,0,1-4.67,3.86,21.78,21.78,0,0,1-6.47,1c-3.87.15-8.62-.07-11.46-3.09a9.27,9.27,0,0,1-2.31-8.66A16,16,0,0,1,968,751.6c4.28-2.54,9.86-2.16,14.62-1.85a29.51,29.51,0,0,1,7.54,1.12,15.77,15.77,0,0,1,5.75,3.81c3,3,5.81,7.34,5.1,11.76a37,37,0,0,0-.78,4.45,13.37,13.37,0,0,0,.53,4.22c1.94,6.66,8.29,10.9,14.45,13.24a45.58,45.58,0,0,0,6.68,1.94c.88.19,1.26-1.16.37-1.35-7.35-1.58-15.81-4.94-19.34-12.12a12.51,12.51,0,0,1-.89-8.61,13.43,13.43,0,0,0-2.3-11.15c-2.33-3.42-5.76-6.55-9.79-7.73a33.35,33.35,0,0,0-7.1-1,55.55,55.55,0,0,0-7.41-.13c-4.15.29-8.09,1.44-11,4.52a17.15,17.15,0,0,0-4.84,9.79,11,11,0,0,0,3,7.9c2.53,2.77,6.51,3.48,10.09,3.6s8.34,0,11.48-2.19a14,14,0,0,0,5.8-10.07c.26-3.83-.75-7.67-.46-11.51.11-1.32.73-2.46.89-3.75a7.09,7.09,0,0,0-1.29-4.71,18.55,18.55,0,0,0-9.22-6.94c-4.71-1.64-9.78-.12-14.47.8-3.81.76-8.19,1-11.69-1a6.38,6.38,0,0,1-1.76-9.86,6.46,6.46,0,0,1,4.85-2.52c1.19,0,2.9.43,2.56,1.93-.26,1.19-1.58,2.33-2.39,3.19a34.72,34.72,0,0,1-11.22,7.88,33.77,33.77,0,0,1-6.56,2.07c-.89.19-.51,1.55.37,1.36Z"/><path d="M1067.62,211.12c2.25-1.25,1.77-4.65,0-6.1a7.57,7.57,0,0,0-4.39-1.35c-2.14-.14-4.29-.17-6.43-.26-4.55-.18-9.12-.21-13.65-.57-4-.32-8.31-1.51-10.52-5.14s-1.17-8-1.86-11.95c-.72-4.08-3.37-7.66-5.44-11.15-4.43-7.43-8.83-15-11.44-23.29s-3.26-16.83-.77-25.1a42.14,42.14,0,0,1,12.11-19,38.4,38.4,0,0,1,18.29-9.24,31,31,0,0,1,10-.29,39.93,39.93,0,0,1,11.58,3.83c6.92,3.28,14.12,6.92,18.1,13.79,3.76,6.48,4.52,14.25,4.65,21.59,0,1.88,0,3.76,0,5.63a.7.7,0,0,0,1.4,0c.13-7.46,0-15.2-2.35-22.35a27.48,27.48,0,0,0-5.16-9.35,32.94,32.94,0,0,0-8.94-7c-6.66-3.77-14-7.4-21.73-7.81a36,36,0,0,0-19.38,4.8c-13.21,7.42-22.05,22.24-21.56,37.48.27,8.57,3.14,16.82,6.92,24.44,2,4,4.27,7.92,6.57,11.79,2.21,3.72,5.17,7.58,5.83,12,.58,3.87-.21,8,1.75,11.61,1.73,3.15,5.08,5,8.5,5.71,4.34.91,9,.72,13.38.89l7.15.28c2,.08,4.48-.17,6.21,1,1.19.77,2,3.15.46,4-.79.44-.08,1.65.71,1.21Z"/><path d="M1056.37,206.34a44.58,44.58,0,0,0-11.58-.85c-2.92.18-6.54.45-8.56,2.88-1.44,1.73-1.76,4.79.21,6.28s4.8-.13,3.72-2.61-4.31-1.64-5.68.13a6,6,0,0,0,0,6.94c1.13,1.61,4.39,3.33,5.7.95s-1.46-4.35-3.55-3.42c-3.05,1.35-2.5,5.64-.6,7.73s5.76,1.75,6.17-1.41a.67.67,0,0,0-.35-.61c-2.6-1.12-5,.85-5.38,3.48-.4,2.91,1.27,5.67,3.48,7.42,2.63,2.08,6,2.81,9.24,3.23,3,.4,6.36.46,8.94-1.45a.71.71,0,0,0,0-1.21,12.35,12.35,0,0,0-7-1.53c-2.17.16-4.9.88-6.46,2.49s0,3.42,1.63,4a13.21,13.21,0,0,0,6.55.28,16.78,16.78,0,0,0,10.88-7c1.13-1.68,2.55-4.27,1.47-6.3-.76-1.43-3-2.17-4.1-.71s0,3.3,1.47,3.78c2.29.74,4.3-1.54,5.1-3.4s1-4.64-.5-6.24a2.64,2.64,0,0,0-4.19.43c-.86,1.74,1,3.25,2.66,3.23a4.33,4.33,0,0,0,4-3.82,4.63,4.63,0,0,0-2.82-4.61c-1.36-.62-4.22-.74-3.76,1.54.56,2.71,4,1.17,5-.34a4.47,4.47,0,0,0-.91-6c-1.14-.92-4.49-1.92-4.74.4a2.13,2.13,0,0,0,1.15,2c1.2.6,2.52-.14,3.51-.8.75-.49,0-1.71-.71-1.21-.55.37-1.41,1-2.09.72-1-.5.09-.82.68-.69a3.1,3.1,0,0,1,.93,5.73s-1.29.5-1.39,0c-.13-.65.85-.41,1.06-.37a3.77,3.77,0,0,1,1.77,1,2.91,2.91,0,0,1,.65,3.37c-.52,1.08-2.44,2.46-3.53,1.21-.49-.55-.08-1.15.56-1.25a1.51,1.51,0,0,1,1.58,1.08,5.34,5.34,0,0,1-.29,4.25c-.53,1.11-2,3-3.44,2.34a1.36,1.36,0,0,1-.76-1.16c.09-1.05,1.47-.51,1.84.07,1.22,2-1.55,5.41-2.83,6.76a15.39,15.39,0,0,1-11.91,4.77c-1-.06-3.18-.18-3.66-1.24-.59-1.34,2.73-2.37,3.53-2.6a11.06,11.06,0,0,1,8.32,1v-1.21a9.44,9.44,0,0,1-6.46,1.44,23.9,23.9,0,0,1-7.48-1.57,9.5,9.5,0,0,1-5.1-4.54,5.47,5.47,0,0,1-.46-3.51c.33-1.4,1.7-2.73,3.22-2.08l-.34-.6c-.17,1.29-1.79,1.67-2.8,1.18a4.13,4.13,0,0,1-2-2.72c-.31-1.21-.21-2.79,1-3.43a1.32,1.32,0,0,1,1.78.28,1,1,0,0,1-.11,1.37c-.88.67-2.3-.37-2.85-1a4.71,4.71,0,0,1-1.09-2.61c-.16-1.69,1-4.74,3.25-4.1,1.41.4,1.08,2.61-.54,1.77a2.5,2.5,0,0,1-1-2.76c.42-2.17,2.54-3.15,4.5-3.58a37.25,37.25,0,0,1,15,.35c.88.17,1.25-1.18.37-1.36Z"/><path d="M1087.91,142.55c-.51,9.3-4.52,17.85-9.12,25.79-2.23,3.86-4.77,7.64-6,12-1.27,4.61-1,9.46-1.92,14.13-.44,2.22-1.09,4.55-3.2,5.73s-4.63,1.33-6.86,1.59a52.32,52.32,0,0,1-7.51.35c-1.22,0-2.43-.11-3.64-.22a5.69,5.69,0,0,1-1.75-.24c-.85-.39-.85-1.35-1-2.12a76.94,76.94,0,0,1-.48-15.17,72.32,72.32,0,0,1,.91-7.76c.22-1.31.39-2.45,1.75-3a8.75,8.75,0,0,0,2.31-1.15c2.78-2.25,3.13-6.45,3.58-9.73.32-2.36.75-4.73,1-7.11a3.52,3.52,0,0,0-2.31-3.9,9.13,9.13,0,0,0-8.78.74c-1.06.76-2.4,2.14-2.5,3.52-.14,1.73,2.3,2,3.54,2.09,1.41.08,4.24-.2,5-1.69s-1.42-2.39-2.33-3.18c-3.27-2.81-2.12-8.21-3.24-11.93-.93-3.09-3.86-6.4-7.38-6.09-2.92.25-4.75,3.43-2.21,5.58,2.82,2.38,7.65,1.93,11,1.47,4.19-.58,8.47-1.8,12.72-1.17a5.07,5.07,0,0,1,2.88,1c.88.89-.32,3.15-.66,4.15l-2.45,7.3-2.44,7.3c-.77,2.29-1.32,4.89-2.47,7a4.19,4.19,0,0,1-2.4,2,6.79,6.79,0,0,1-2.82.53l.49.49c.1.58.25-.17.27-.46a.93.93,0,0,0-.44-.88c-.36-.23-.75-.1-1.14-.1a8.11,8.11,0,0,1-1.55-.27c-2.79-.65-4.76-3.92-5.73-6.44a56.59,56.59,0,0,1-2-8.65c-.71-3.34-1.51-6.7-3.4-9.6-.49-.75-1.71,0-1.21.71,2,3,2.7,6.6,3.43,10.1a45.51,45.51,0,0,0,2,8.26,17.05,17.05,0,0,0,2.23,3.74,8.17,8.17,0,0,0,3.13,2.88,9.67,9.67,0,0,0,2.7.64,1.76,1.76,0,0,0,.51,0c.52-.14.18-.56,0-.48s-.23.7-.2.9a.68.68,0,0,0,.49.49,8,8,0,0,0,4.37-.85,6,6,0,0,0,3-3.54c1.73-4.56,3.12-9.27,4.66-13.88l2.29-6.83c.54-1.6,1.76-3.76.51-5.3-1-1.23-2.9-1.49-4.38-1.66a24.22,24.22,0,0,0-5.83.16c-3.94.52-7.89,1.61-11.9,1.34-1.62-.11-4.61-.41-5.4-2.15-1-2.1,2.13-2.64,3.47-2.19,4.73,1.56,4.8,6.75,5.3,10.84a13.23,13.23,0,0,0,1.37,4.81,6.64,6.64,0,0,0,1.39,1.78,6.57,6.57,0,0,0,1,.69c.42.25,1.24.52.78,1.1s-2.62.72-3.38.68a4.13,4.13,0,0,1-1.77-.36c-.56-.36-.15-.85.18-1.33a6.24,6.24,0,0,1,4.05-2.5,8,8,0,0,1,5,.66c1.31.66,1.27,1.75,1.11,3s-.34,2.51-.51,3.76c-.48,3.45-.46,8.47-3.1,11.13-1.19,1.2-3.16,1.1-4.09,2.6s-1,4.05-1.28,5.9a77.57,77.57,0,0,0-.51,14.29,53.76,53.76,0,0,0,.68,6.82c.33,1.73,1.31,2.35,3,2.55a53.21,53.21,0,0,0,14-.27c3.84-.58,7.39-1.48,8.84-5.47s1.32-8.73,1.89-13c.61-4.57,2.48-8.46,4.8-12.39,4.32-7.29,8.5-14.83,10.26-23.21a42.7,42.7,0,0,0,.82-6.27c0-.9-1.36-.9-1.41,0Z"/><path d="M1058.43,369.85c3.32-4.4,7.37-11.24,2-15.8-1.8-1.53-4.38-2.11-6.4-.63-2.17,1.59-2.74,4.72-2,7.2,1.38,4.7,7,7.63,11.65,6.38,5.2-1.39,8.34-6.91,8.43-12.05.1-6-3.73-11.32-8.4-14.69-5.79-4.17-13-5.59-19.85-7s-13.65-3.1-19.6-7.05a39.87,39.87,0,0,1-12.73-13.82,26.17,26.17,0,0,1-3.51-15.91c.68-5.28,3.95-10.44,9.69-11a10.38,10.38,0,0,1,11.16,12.06c-.93,5.63-6.09,8.63-11.29,9.6a30.59,30.59,0,0,1-8,.32c-3.22-.26-6.81-.77-9.63-2.4-3-1.75-4.71-5.06-6-8.17a37.93,37.93,0,0,1-2.55-9.77c-1.65-13.22,3.14-26.64,12.15-36.33s20.84-15.15,33.49-17.69c6.23-1.26,13-2.33,18.13-6.48a15.43,15.43,0,0,0,5.61-13.4,9.39,9.39,0,0,0-3.17-6c-.68-.59-1.68.4-1,1,4.32,3.74,3.17,10.21.27,14.46-3.75,5.49-10.85,7.16-17,8.41s-12.22,2.63-18,5.18a60,60,0,0,0-15.75,10,48.32,48.32,0,0,0-16.37,32.88,41,41,0,0,0,3,18.46c1.19,2.83,2.68,5.75,5.13,7.71s5.79,2.72,8.91,3.2c9,1.37,23.2-.51,23.65-12.26a11.62,11.62,0,0,0-21.94-5.93c-5.2,9.72,0,21.76,6.5,29.41a40.58,40.58,0,0,0,14.55,10.9c6.56,2.87,13.7,3.66,20.59,5.36,6.71,1.64,13.63,4.38,17.73,10.25,3.45,4.94,4.09,11.82-.15,16.54a8.38,8.38,0,0,1-7.44,2.94,8.74,8.74,0,0,1-6.49-4.58c-1.21-2.52-.62-7.29,3-7.28,3,0,5.12,3.39,5,6.12-.18,3.45-2.44,6.43-4.44,9.08-.54.73.68,1.43,1.21.71Z"/><path d="M881.5,478.9c-9.71,1.26-11.24,14.74-8.26,22.14,1.74,4.33,5.73,6.57,10.34,6.47a10.2,10.2,0,0,0,6-1.91,9.51,9.51,0,0,0,3.31-5.55c.68-2.87.49-5.87,1.16-8.74s2.48-5.59,5.41-6.15l-.54-1.28c-2.76,1.52-5.3,4.13-5.81,7.34a6.94,6.94,0,0,0,3.27,7.3,5.56,5.56,0,0,0,6.95-1.24c1.83-2.24,2-5.57,1.52-8.3a9.11,9.11,0,0,0-2.11-4.34,3.26,3.26,0,0,0-3.66-.84c-.86.27-.49,1.63.38,1.36,1.56-.49,2.23.26,3,1.52a8.77,8.77,0,0,1,1.19,4.67c0,2.55-.83,6-3.79,6.43-3.16.5-5.43-2.31-5.47-5.25,0-3.28,2.51-5.94,5.21-7.44.73-.41.21-1.43-.54-1.29-3.83.74-6,4.67-6.6,8.22-.68,4.15,0,9.82-3.9,12.59-3.51,2.48-9.43,1.94-12.32-1.26-2.74-3-3-7.81-2.79-11.7.3-4.81,2.61-10.64,8.06-11.35.89-.11.9-1.52,0-1.4Z"/><path d="M901.32,485.37a4.12,4.12,0,0,0,2.64.46,3.11,3.11,0,0,0,1.65-1,8.92,8.92,0,0,0,1.08-1.93c.71-1.54,1.5-3.07,3.1-3.83a8,8,0,0,1,4.34-.43c.89.11.89-1.3,0-1.4-3-.35-5.8.31-7.54,2.87a18.89,18.89,0,0,0-1.39,2.68,6.23,6.23,0,0,1-.62,1.1,2.26,2.26,0,0,1-.8.57,2.42,2.42,0,0,1-1.76-.27c-.82-.35-1.53.86-.7,1.22Z"/><path d="M834.09,809.53A33.16,33.16,0,0,1,832.46,797a16.83,16.83,0,0,1,5-10.41,25.13,25.13,0,0,1,9.58-5.39,76.9,76.9,0,0,1,12.69-3.14c8.63-1.42,17.4-1.68,26.12-2l27.57-1c4.65-.16,9.53,0,14.09-1.1A55.85,55.85,0,0,0,938,770c.82-.38.11-1.59-.7-1.21a57,57,0,0,1-9.8,3.83c-4.28,1.09-8.91.95-13.29,1.1l-28.56,1c-8.92.31-17.88.59-26.69,2.09a75.56,75.56,0,0,0-12.9,3.29,26.49,26.49,0,0,0-9.15,5.16A18.16,18.16,0,0,0,831.19,796c-.7,4.69.24,9.44,1.54,13.94a.71.71,0,0,0,1.36-.37Z"/><path d="M833.32,810.26a.7.7,0,0,0,0-1.4.7.7,0,0,0,0,1.4Z"/><path d="M832.63,809.75q15.69,39.48,28.14,80.14,3.51,11.48,6.76,23a.71.71,0,0,0,1.17.31c5.31-6.12,12.4-10.28,19.55-13.9a134.73,134.73,0,0,1,22.74-9,136.43,136.43,0,0,1,48-5.12,133.15,133.15,0,0,1,27.16,4.84.7.7,0,0,0,.37-1.35A135.44,135.44,0,0,0,937.64,884a137,137,0,0,0-47.39,12.82c-8.2,3.91-16.52,8.5-22.54,15.45l1.17.31q-11.52-40.92-26.31-80.81-4.16-11.22-8.58-22.35c-.33-.83-1.69-.47-1.36.37Z"/><path d="M832.1,798.72c-.73-3.56-1.72-7.28-4-10.19a16.82,16.82,0,0,0-5.92-4.47c-3.58-1.84-7-3.49-11.06-4.06a60.66,60.66,0,0,0-14.87.22,102.23,102.23,0,0,0-29.67,8c-9.07,4-17.28,9.45-25.53,14.85-9.09,5.94-18.43,11.8-29,14.68a.72.72,0,0,0-.49.86c2.46,15.62,7.61,30.61,12.83,45.48l16.29,46.43,9.23,26.29a.71.71,0,0,0,1.17.31,198.45,198.45,0,0,1,43.36-28.2,145.53,145.53,0,0,1,24.89-9.58c8.31-2.22,17.13-3.2,25.58-1.22,8.25,1.94,15.87,6.53,20.61,13.65l1-1c-13.23-9.36-30.12-10.41-45.52-6.8-17.06,4-31.93,13.7-46.15,23.55-8.38,5.8-16.67,11.75-25.43,17l1,.42c-5.72-14.61-10.71-29.49-15.87-44.31-5-14.39-10.25-28.72-16.59-42.59a258.47,258.47,0,0,0-12.27-23.66l-.6,1.06c4.08.5,6.24-4.35,9.7-5.56.85-.29.48-1.65-.37-1.35a13.79,13.79,0,0,0-4.41,3c-1.38,1.21-2.94,2.74-4.92,2.49-.55-.06-.85.64-.61,1.06a290.22,290.22,0,0,1,20,42.06c5.55,14.26,10.37,28.78,15.42,43.22,2.92,8.36,5.93,16.69,9.16,24.94a.71.71,0,0,0,1,.42c15.21-9.1,29-20.37,44.36-29.24,14.1-8.13,29.95-14,46.47-13A47.84,47.84,0,0,1,865.77,912c.58.41,1.34-.39,1-1a34.34,34.34,0,0,0-17.67-13.21c-8-2.71-16.48-2.68-24.67-1.12-9.1,1.74-17.85,5.19-26.27,8.95a197.65,197.65,0,0,0-23.66,12.58,201.86,201.86,0,0,0-24.37,17.87l1.17.31L735,889.94c-5.34-15.21-11-30.34-15.77-45.74a184.23,184.23,0,0,1-6.28-26l-.49.86c18.19-4.94,32.31-18.19,48.74-26.73a100.45,100.45,0,0,1,28.82-9.8,91.22,91.22,0,0,1,14.93-1.48,29,29,0,0,1,14,2.91c2.47,1.28,5.15,2.37,7.16,4.36,2.83,2.82,3.89,7,4.66,10.76.18.88,1.54.51,1.36-.37Z"/><path d="M867.71,912.66l-24.41,3.71c-8,1.21-16.08,2.31-23.86,4.61-7.49,2.22-14.63,5.43-21.78,8.5l-23,9.87L749,950.41c-.66.28-.29,1.31.36,1.3,15.15-.13,29-6.91,42.39-13.34a238,238,0,0,1,44.87-16.83,213.66,213.66,0,0,1,26.8-5c.89-.11.9-1.52,0-1.41A216.21,216.21,0,0,0,817.19,926,231.41,231.41,0,0,0,795.41,935c-7,3.34-14,6.87-21.2,9.74-8,3.15-16.28,5.46-24.88,5.53l.35,1.31,45.47-19.54c7.38-3.18,14.72-6.54,22.37-9s15.39-3.7,23.23-4.89L868.09,914c.89-.13.51-1.49-.38-1.35Z"/><path d="M867.32,915.12c9,.8,17.49-2.67,25.68-5.89q12.71-5,25.8-8.83a290.81,290.81,0,0,1,53.91-10.34c4.91-.47,10.32-1.27,14.85,1.2,4,2.15,6.71,6,9.3,9.53l.61-1.06c-17.52-.5-35.07-1-52.59-.22a182,182,0,0,0-25.09,2.43c-8.31,1.54-16,4.77-24,7.29A83.84,83.84,0,0,1,867.34,913c-.91,0-.91,1.36,0,1.4A84.42,84.42,0,0,0,892,911.76c8.13-2.11,15.79-5.67,24-7.59s16.9-2.62,25.42-3.09c8.75-.47,17.52-.61,26.28-.57,9.93.06,19.85.34,29.78.62a.7.7,0,0,0,.6-1c-2.23-3.08-4.53-6.22-7.57-8.56a17.27,17.27,0,0,0-11.39-3.34c-4.62.11-9.28.72-13.86,1.28s-9.12,1.21-13.65,2A293.57,293.57,0,0,0,897.44,906c-9.64,3.62-19.53,8.64-30.12,7.69-.9-.08-.89,1.33,0,1.41Z"/><path d="M936.8,769.29c1.22,7.86,3.93,15.36,6.84,22.74q4.53,11.52,9.23,23,9.32,22.9,19.07,45.62,5.53,12.9,11.21,25.73l1-1-24.74-15.07a.7.7,0,0,0-.71,1.21l24.74,15.07c.66.4,1.23-.36,1-1q-10-22.67-19.6-45.51T946,794.29c-3.27-8.24-6.51-16.57-7.88-25.37-.14-.89-1.49-.52-1.35.37Z"/><path d="M959.14,869.87a139.28,139.28,0,0,0-8.69-11c-.6-.68-1.59.32-1,1a134.38,134.38,0,0,1,8.47,10.7c.52.72,1.74,0,1.21-.71Z"/><path d="M958.64,870.2a47.93,47.93,0,0,1-9.91-2.18c-.76-.26-1.52-.55-2.26-.88a3.5,3.5,0,0,1-1.11-.55c-.2-.24,0-.55.18-.79.71-1,1.88-1.71,2.08-3.06.14-.88-1.22-1.27-1.35-.37-.22,1.43-1.89,2.12-2.32,3.51-.6,1.92,1.93,2.56,3.28,3.08a47.56,47.56,0,0,0,11.41,2.65c.9.11.89-1.3,0-1.41Z"/><path d="M884.78,817.14c-.92,1.63-2,3.2-3,4.78s-2.34,3.15-2.9,4.86c-.5,1.54.77,2.61,1.74,3.62,1.37,1.43,2.78,2.83,4.23,4.18a107.52,107.52,0,0,0,19.59,14.54.7.7,0,0,0,.71-1.21,106.48,106.48,0,0,1-21.69-16.61c-.83-.83-1.67-1.67-2.46-2.53-.56-.62-1-1-.62-1.92.06-.13.15-.26.22-.38.55-1,1.15-1.87,1.74-2.8,1.21-1.93,2.5-3.84,3.63-5.82a.71.71,0,0,0-1.22-.71Z"/><path d="M905.11,849.14a1.39,1.39,0,0,0,1.39-1.45c0-1.15-1.2-1.91-2-2.58l-6.7-6-6.71-6-3.27-2.91a7.12,7.12,0,0,1-1.41-1.44c-.31-.5-.53-1.5.29-1.67s.51-1.53-.37-1.35c-2,.4-1.84,2.85-.85,4.12a20.26,20.26,0,0,0,2.66,2.49l3.43,3.06,6.71,6,3.27,2.91,1.8,1.6.81.73a6.24,6.24,0,0,1,.91,1.05.71.71,0,0,0,0,1.41Z"/><path d="M886,826.86c2.87,2.54,6,4.68,9.15,6.93s6.2,4.75,9.24,7.21c5.75,4.66,11.59,9.32,18.3,12.53.82.38,1.53-.83.71-1.21-6.74-3.22-12.58-7.9-18.35-12.58-2.79-2.26-5.57-4.52-8.46-6.63-3.23-2.37-6.59-4.58-9.6-7.24-.67-.6-1.67.39-1,1Z"/><path d="M923.48,853.86a13.44,13.44,0,0,0,4.2-5.13.73.73,0,0,0-.25-1,.71.71,0,0,0-1,.25,12.92,12.92,0,0,1-1.57,2.57,13.3,13.3,0,0,1-1,1.1,11.73,11.73,0,0,1-1.12,1,.72.72,0,0,0-.25,1,.7.7,0,0,0,1,.25Z"/><path d="M922.33,853.61a73.83,73.83,0,0,0,13,9.54,65.1,65.1,0,0,0,9,3.83c.85.3,1.22-1.05.38-1.36a61,61,0,0,1-8.7-3.69,72.19,72.19,0,0,1-12.75-9.31c-.67-.59-1.67.4-1,1Z"/><path d="M950.69,859a122.42,122.42,0,0,0-10.52-7.72c-1.74-1.21-3.49-2.41-5.16-3.71-.59-.46-1.14-1-1.73-1.43a26.38,26.38,0,0,0-3.62-2.06c-1.95-1.09-3.67-2.68-5.56-3.89-2.44-1.57-4.79-3.26-7.09-5-4.48-3.42-8.77-7.08-13.25-10.5a71.89,71.89,0,0,0-16-9.58c-.84-.35-1.2,1-.38,1.35,10.47,4.32,18.82,12.09,27.64,18.94,4,3.07,8.22,5.66,12.19,8.69,2,1.5,4.24,2.36,6.15,3.94,1.34,1.12,2.79,2.13,4.22,3.14,4.07,2.87,8.37,5.56,12.13,8.83.68.59,1.68-.39,1-1Z"/><path d="M886.54,815.11a22.19,22.19,0,0,0-3.49,3.82,21.9,21.9,0,0,0-1.41,2.26c-.19.35-.37.71-.54,1.07-.1.19-.08.27-.24.28s-.4-.22-.53-.31c-.85-.59-1.67-1.21-2.51-1.81-.37-.27-.55-.37-.37-.84a11,11,0,0,1,.65-1.28,21,21,0,0,1,1.45-2.29,11.57,11.57,0,0,1,.82-1c.13-.14.11-.13.25-.1a1.36,1.36,0,0,1,.41.28c1.36.94,2.63,2,4,2.94.75.5,1.45-.71.7-1.21-1.45-1-2.77-2.15-4.24-3.11a1.6,1.6,0,0,0-1.26-.33,2.42,2.42,0,0,0-1.24,1,22.45,22.45,0,0,0-1.89,2.76c-.49.85-1.31,2-1.13,3a1.76,1.76,0,0,0,.78,1.14c.51.39,1,.76,1.57,1.14.77.56,1.73,1.54,2.77,1.44s1.46-1.53,1.92-2.36a20.56,20.56,0,0,1,4.51-5.49c.69-.59-.31-1.58-1-1Z"/><path d="M712.25,850.09q-22.39,19.27-43.87,39.6-6.18,5.84-12.26,11.76c-.65.63.35,1.62,1,1q21.21-20.62,43.37-40.22,6.35-5.61,12.77-11.13c.68-.59-.31-1.58-1-1Z"/><path d="M655.81,902.18a644.5,644.5,0,0,0,51.77,39.54c17.75,12.32,35.94,24,54.16,35.61L794.27,998c.76.49,1.47-.72.71-1.21-18.71-11.91-37.47-23.74-56.06-35.83-18.13-11.78-36.06-23.89-53.37-36.86q-14.73-11-28.75-23c-.68-.58-1.68.41-1,1Z"/><path d="M794.93,998.64c6.51,1.41,11.28-4.78,14.91-9.18q7.45-9,15.15-17.87,15.33-17.64,31.59-34.44,4.63-4.8,9.34-9.51c2.81-2.82,5.71-5.88,9.65-7l-.68-1.18c-4.21,5.42-5.86,14.29-.83,19.78,4,4.33,11.57,5,15.25,0,.48-.64-.56-1.42-1.1-.85-12.39,13.07-23.58,27.18-35.17,40.93s-23.43,27-37.26,38.22q-3,2.43-6.08,4.71l-1.34,1a4.34,4.34,0,0,1-.63.43c-.81.34-1,.05-1.46-.44a28.91,28.91,0,0,1-2.51-3.13,41.31,41.31,0,0,1-6.48-14,.71.71,0,0,0-1.36,0,17.86,17.86,0,0,0,6.3,20.13c.74.52,1.44-.69.71-1.21-5.74-4-8-12-5.65-18.55h-1.36a42.92,42.92,0,0,0,5.67,12.95,27.83,27.83,0,0,0,4,5.17c1.6,1.45,3,.16,4.43-.87a186.83,186.83,0,0,0,20.86-18c13.41-13.26,25.23-28,37.3-42.47,6.79-8.14,13.68-16.2,21-23.9l-1.1-.85c-3.22,4.36-10,3.28-13.26-.5-4.19-4.94-2.64-12.83,1-17.56.4-.52.06-1.39-.68-1.18-3.18.91-5.76,3-8.11,5.23-2.68,2.57-5.25,5.24-7.84,7.89q-8,8.18-15.79,16.55-15.76,17-30.63,34.73c-2.58,3.08-5,6.34-7.81,9.22-2.53,2.6-5.86,5.22-9.72,4.38-.88-.19-1.25,1.17-.37,1.36Z"/><path d="M802.52,1025.74c-4.28-4.9-9.75-8.45-15.27-11.81-6-3.63-11.92-7.23-17.86-10.87-12-7.32-23.88-14.72-35.64-22.37-23.5-15.28-46.41-31.57-67.62-49.94-5.29-4.58-11.56-9.11-13.51-16.21a11.68,11.68,0,0,1,.3-7.48c.26-.6,2.58-5,3.23-4.55s1.44-.7.71-1.21c-2.45-1.69-5.53,5.4-5.85,7-1.08,5.26,1.28,11,4.71,14.86a81.15,81.15,0,0,0,7.69,7.13q4.14,3.63,8.39,7.16,8.34,7,17,13.54c23.28,17.78,47.94,33.67,72.87,49q10.5,6.46,21.05,12.85c6.68,4,13.62,8,18.81,13.92.59.68,1.58-.32,1-1Z"/><path d="M874.76,918.71a34,34,0,0,1-11.93-3.9c-.8-.43-1.5.78-.71,1.21a36,36,0,0,0,12.64,4.09c.9.12.89-1.29,0-1.4Z"/><path d="M711.22,847q-22.25,20-43.49,41.15-6,6-12,12c-.63.64.36,1.64,1,1q21-21.4,43-41.8,6.18-5.73,12.45-11.38c.67-.61-.32-1.6-1-1Z"/><path d="M710.23,843.89q-22.08,21.65-43.07,44.37-5.94,6.42-11.79,12.93c-.6.67.39,1.66,1,1q20.73-23.05,42.56-45.08Q705,851,711.22,844.88c.65-.63-.34-1.62-1-1Z"/><path d="M832.57,795.75c-1.36-4.2.23-7.84,2.52-11.36a17.8,17.8,0,0,1,8.56-6.89,73.81,73.81,0,0,1,23.67-5.27c4.46-.28,8.94-.31,13.42-.37s9-.28,13.47-.37c4.23-.08,8.47-.07,12.7-.1,3.84,0,7.78.09,11.61-.32a46.38,46.38,0,0,0,8.58-1.78c2.23-.68,5.32-1.55,6.64-3.66.48-.77-.74-1.47-1.21-.71a5.69,5.69,0,0,1-2.51,1.8,27.05,27.05,0,0,1-4,1.43,42.05,42.05,0,0,1-7.86,1.55c-4.07.36-8.23.27-12.32.29-4.33,0-8.66,0-13,.13-4.58.11-9.16.29-13.74.36s-9.08.12-13.61.48a71.42,71.42,0,0,0-23.19,5.6,19.18,19.18,0,0,0-8.77,7.67c-2.33,3.69-3.71,7.59-2.32,11.89.28.86,1.63.49,1.36-.37Z"/><path d="M932.87,765.45a13.73,13.73,0,0,0,1.22,4.67.7.7,0,0,0,1.21-.71,12.39,12.39,0,0,1-1-4,.7.7,0,0,0-1.4,0Z"/><path d="M984.08,885.72c6.85.12,14.18-2.66,18.77-7.87,1.68-1.92,2.81-5.27.31-7.09s-4.84,1.5-5.55,3.65c-1,3-.59,6.45,2,8.45,2.38,1.83,5.65,1.94,8.47,1.34a19.51,19.51,0,0,0,8.58-4.49c2.89-2.48,4.84-5.66,7.25-8.56a17.51,17.51,0,0,1,20.63-4.86c.82.38,1.53-.83.71-1.21a18.74,18.74,0,0,0-15-.31,18.52,18.52,0,0,0-6.55,4.54c-2.17,2.36-3.79,5.16-6,7.5-3.73,4-9.86,7.83-15.51,5.84-3.32-1.17-4.24-4.53-3.27-7.68.37-1.2,1.37-3.71,3-3.27s1.43,2.89.76,4.07a13.53,13.53,0,0,1-3.67,3.68,24.63,24.63,0,0,1-4.58,2.73,23.91,23.91,0,0,1-10.33,2.14.7.7,0,0,0,0,1.4Z"/><path d="M800.8,1002.38a20.21,20.21,0,0,0,16.36-8.33c.5-.69-.63-1.56-1.18-.91a38.17,38.17,0,0,1-12.42,9.7c-.64.32-.36,1.15.18,1.37,4.65,1.87,9.37-1.14,13-3.89a96.39,96.39,0,0,0,12-10.94l-1.18-.91A84.53,84.53,0,0,1,808.17,1008a.75.75,0,0,0,.58,1.37c8.47-1.88,15.13-7.84,21-13.87a195.3,195.3,0,0,0,18.72-22.29c.57-.78-.73-1.53-1.29-.75A193.55,193.55,0,0,1,829,994.15c-5.81,6-12.31,12-20.69,13.81l.58,1.37a86.79,86.79,0,0,0,19.88-20.1c.49-.7-.61-1.53-1.18-.91a95,95,0,0,1-10.77,10c-3.45,2.74-8.08,6.35-12.72,4.48l.18,1.37A39.37,39.37,0,0,0,817,994.2l-1.18-.91a18.6,18.6,0,0,1-15.06,7.59.75.75,0,0,0,0,1.5Z"/><path d="M1556.15,733.69c4.13-3.64,4-11-.11-14.61-2-1.73-5.37-2.76-6.66.24-1.2,2.8.72,5.47,3.5,6.11a9.69,9.69,0,0,0,8.92-2.74,5.51,5.51,0,0,0,.21-7.61c-2.16-2.37-5.63-3.06-8.64-3.58-4-.7-8.1-1.3-12.13-2.09a62.57,62.57,0,0,1-13.41-3.94,35.4,35.4,0,0,1-5.74-3.19c-1.34-.92-5.18-3.71-3.1-5.59l-.69.09c3.73,2.56,7.54,5.16,11.88,6.57s9.11,1.31,13.71,1.41,9,.63,13.16,2.71a24.84,24.84,0,0,1,9.48,8.37.58.58,0,0,0,.9.11c4.56-4.24,3.81-11.39.3-16-4.17-5.48-11.11-8.38-17.52-10.27-7.7-2.27-15.73-3.5-23.6-5-5.61-1.1-13.78-3.57-17.63,2.34-4.38,6.73,1,14.12,5.29,19.19l.12-.89a7.15,7.15,0,0,0-3.06,6.86c.28,3.18,2.27,5.76,4.61,7.78a75,75,0,0,0,9.07,6.46,46.8,46.8,0,0,0,10.37,5.13,22,22,0,0,0,12.34.6.57.57,0,0,0,.34-.83,34,34,0,0,0-28-17,.58.58,0,0,0-.49.86c10,13.43,27.87,14.45,43.13,16,8.82.91,17.62,2.44,26.51,2.28,7.63-.13,15-2,22.22-4.56a44,44,0,0,0,19.89-13.8c.46-.57-.34-1.38-.8-.81A41.9,41.9,0,0,1,1613.15,727a71.44,71.44,0,0,1-20.64,5.13c-8.47.59-16.93-.66-25.32-1.65s-17.08-1.35-25.4-3.36c-8.11-2-16.1-5.78-21.19-12.6l-.5.85a32.87,32.87,0,0,1,27,16.42l.34-.83c-8.77,2.24-17.22-2.45-24.26-7.21-3.28-2.22-7.15-4.51-9.33-7.92-1.87-2.91-2.17-7.58,1.13-9.63a.59.59,0,0,0,.12-.9c-3.82-4.49-8.46-10.42-5.74-16.65,2.92-6.67,11.56-4,17-3,6.78,1.33,13.64,2.48,20.35,4.16,6.2,1.54,12.73,3.74,17.62,8a14.56,14.56,0,0,1,5.08,8.4,9.84,9.84,0,0,1-2.74,8.84l.9.11a26,26,0,0,0-14.87-10.66c-7.4-1.93-15.29,0-22.58-2.48-4.07-1.42-7.67-3.9-11.2-6.33a.59.59,0,0,0-.69.09c-2,1.86-.08,4.76,1.59,6.1a35.07,35.07,0,0,0,8.29,4.82c6.35,2.68,13.2,3.85,20,5a56.66,56.66,0,0,1,9.25,1.81c2.69.91,5.88,3,4.91,6.33-.93,3.15-4.89,4.76-7.91,4.58-1.6-.09-3.49-.79-4-2.48-.35-1.19,0-2.91,1.26-3.41,1.68-.65,3.79,1.17,4.73,2.42a9.08,9.08,0,0,1,1.61,3.78,8.61,8.61,0,0,1-2.55,8.09c-.55.49.26,1.29.81.81Z"/><path d="M1551.07,616.93c1.81-2.63,5.8-2.65,8.16-.76,2.82,2.27,3,6.58,1.88,9.75-1.27,3.67-4.24,6.49-7.19,8.87a99.72,99.72,0,0,1-10.51,7.27c-3.55,2.18-7.18,4.25-10.81,6.3a46.9,46.9,0,0,1-11.47,5c-3.47.87-8.34,1-9.52-3.25-.85-3,.5-6.5,2.19-9,3.92-5.78,10.39-9.57,16.29-13,3-1.76,6.06-3.47,9-5.39,2.62-1.72,6-3.72,7.36-6.7a4.41,4.41,0,0,0-2.33-6c-2.53-1.15-5.41-.77-8-.18a41.44,41.44,0,0,0-18.62,9.73,28.1,28.1,0,0,0-3.59,3.73,3.62,3.62,0,0,0-.86,3.22c.47,1.22,1.77,1.16,2.85,1,1.85-.29,3.69-.61,5.53-1,6.36-1.32,14.7-3.9,17.45-10.5a6.44,6.44,0,0,0-2-7.82c-2.89-2.19-6.64-1.91-10-1.11-5.76,1.37-11.95,4-15.55,8.92a14.44,14.44,0,0,0-2.6,9.24c.1,4,.55,7.92-2,11.32a10.58,10.58,0,0,1-9.24,4.16c-3.54-.22-6.85-1.82-10-3.23a32.82,32.82,0,0,0-9.4-3,17.25,17.25,0,0,0-9.27,1.65c-5.39,2.56-11.34,9.39-8.86,15.78a8.14,8.14,0,0,0,6.25,5,7.75,7.75,0,0,0,7.43-3.34c3.78-5.31-.25-11.94-5-15a19.89,19.89,0,0,0-16.49-2.06c-6.18,2-11.08,6.82-14.3,12.31a39.76,39.76,0,0,0-3.81,9,.57.57,0,0,0,1.1.3c3.38-11.69,13.32-23.69,26.8-21a16.88,16.88,0,0,1,7.67,3.6c2.36,2,4.49,5.17,4.42,8.39a7.16,7.16,0,0,1-6,6.77,6.92,6.92,0,0,1-7.25-5.27c-.78-3.71,1.33-7.54,3.87-10.1a17,17,0,0,1,8.25-4.56c6.74-1.54,12.58,2.22,18.64,4.51a17.36,17.36,0,0,0,8.7,1.34,11.55,11.55,0,0,0,7.29-4.27,13.16,13.16,0,0,0,2.55-8.76c-.08-3.67-.51-7.28,1.33-10.63,2.89-5.27,9-8.08,14.58-9.59,3.55-1,8-1.76,10.92,1.18s.93,7-1.57,9.46c-5.06,4.88-13,6.32-19.71,7.27-3.21.45-.26-3.07.56-3.94a40.1,40.1,0,0,1,12.5-8.92,36.85,36.85,0,0,1,9.66-3c2.33-.37,6.37-.3,7.3,2.44,1.17,3.44-3.47,6.25-5.79,7.84-2.71,1.87-5.56,3.53-8.41,5.19-5.5,3.18-11.12,6.39-15.59,11-3.45,3.54-7.39,9.55-4.77,14.64,3.18,6.18,12.36,2.55,16.93.41,3.45-1.63,6.75-3.6,10-5.51s6.83-4,10.12-6.17c5.38-3.58,12.05-7.9,14.16-14.37,1.65-5-.22-11.72-6.23-12.31a6.32,6.32,0,0,0-5.94,2.61c-.41.61.57,1.18,1,.58Z"/><path d="M1549.6,617.48c-.26,2.92,2.37,4.76,4.87,5.51a27.51,27.51,0,0,1,5.13,1.52,9.4,9.4,0,0,1,3,2.53c3.95,5,3.18,11.86.16,17-3.5,6-9.45,10.69-15.13,14.54-6,4-13,8.22-20.41,8.21a13.75,13.75,0,0,1-9.88-3.9,10.38,10.38,0,0,1-3.19-9.64c.17-.71-.93-1-1.09-.3-1.42,6.1,3,11.88,8.53,14,7.09,2.73,15-.55,21.22-4,6.6-3.74,13.2-8.46,18.1-14.32,4.08-4.88,6.75-11.13,5-17.51a12.27,12.27,0,0,0-5.19-7.29c-1.76-1.07-3.78-1.35-5.74-1.89s-4.47-2-4.26-4.47c.07-.73-1.07-.73-1.13,0Z"/><path d="M1546.72,613.77c7.74-10.85,20.56-17.17,33.68-18.34,14-1.26,27.71,3.61,39,11.61A77.32,77.32,0,0,1,1647,641.61a54,54,0,0,1,3.58,18.43,90.5,90.5,0,0,1-1.17,18.38c-2.1,11.6-8.54,21.54-15.28,31q-1.78,2.51-3.62,5c-.44.59.55,1.16,1,.57,7.5-10.16,15.45-20.89,18.42-33.4a81.94,81.94,0,0,0,1.82-17.61,59.54,59.54,0,0,0-2.43-19.23c-4.58-14.39-14.12-26.9-25.93-36.19-11.09-8.72-24.8-14.66-39.1-14.44-13.15.2-26.52,5.4-35.43,15.27a43.61,43.61,0,0,0-3.07,3.83c-.42.6.56,1.17,1,.58Z"/><path d="M1545.1,610.28a69.2,69.2,0,0,1,15.52-15.46,59.72,59.72,0,0,1,19.73-9.88,33.89,33.89,0,0,1,10.16-1.21,64.45,64.45,0,0,1,10,1.57,107.11,107.11,0,0,1,20.74,6.49,62.7,62.7,0,0,1,18,11.29c5.77,5.39,10,12.4,13.45,19.43a87.62,87.62,0,0,1,8.14,23.85,75.09,75.09,0,0,1,0,22.4,106.63,106.63,0,0,1-16,43.8c-1.23,1.92-2.53,3.8-3.88,5.64-.44.59.55,1.16,1,.57a107.78,107.78,0,0,0,19.31-45.39,85,85,0,0,0,1.3-22.06,78.3,78.3,0,0,0-6.53-24.19c-3.38-7.77-7.5-15.35-13.07-21.79-4.63-5.34-10.65-9.38-16.92-12.54a101.55,101.55,0,0,0-21.18-7.66c-6.56-1.62-13.45-3.19-20.21-2.25-7.33,1-14.29,4.16-20.5,8.08a74.2,74.2,0,0,0-17.07,14.78c-1.07,1.28-2.1,2.6-3.06,4-.43.6.56,1.16,1,.57Z"/><path d="M1640.92,718.93a53,53,0,0,1-12.22,12.78,47.49,47.49,0,0,1-13.75,6.81,74.26,74.26,0,0,1-36.56,1.72,91.81,91.81,0,0,1-22-7.57c-.65-.32-1.23.66-.57,1,12.63,6.17,26.67,9.83,40.8,9.18,10.88-.51,22.27-3.09,31.41-9.25a54,54,0,0,0,13.89-14.07c.42-.6-.56-1.17-1-.58Z"/><text class="cls-1" transform="translate(-261 -63.11)"><tspan class="cls-2">M</tspan><tspan x="57.43" y="0">in </tspan><tspan class="cls-2" x="139.53" y="0">P</tspan><tspan x="181.86" y="0">ortfolio</tspan><tspan x="0" y="122.4">2</tspan><tspan class="cls-3" x="43.14" y="122.4">0</tspan><tspan class="cls-4" x="90.17" y="122.4">2</tspan><tspan x="130.25" y="122.4">2</tspan></text><path d="M698.62,206.66c3.93,1.08,7.27-3.74,4.72-7-1.49-1.91-4-2.46-6.28-2.42-2.93.06-5.82.51-8.77.36-5.48-.26-11.07-2-14.73-6.33-.92-1.08-4.76-7-1.38-6.91,1.36,0,2.33,1.61,2.36,2.83a4.54,4.54,0,0,1-1.92,3.41c-4.25,3.41-11.13,2.68-15.15-.69a13.29,13.29,0,0,1-4.14-6.31c-.86-2.81-.44-5.45-.09-8.3A12.82,12.82,0,0,0,647.71,163c-4.29-3-10.06-3.5-15.1-2.56a10,10,0,0,0-6.34,4.13,19.41,19.41,0,0,1-5.62,5.06A18.34,18.34,0,0,1,613,172a14.69,14.69,0,0,1-6.45-1.35,28.66,28.66,0,0,1-6.47-3.77,8.62,8.62,0,0,1-2.7-3,25.55,25.55,0,0,1-2.34-9.57c-.21-3.44.2-7.3,3-9.61a14.58,14.58,0,0,0,2-2.07,35.35,35.35,0,0,0,5.8-9.83c1.57-4.15,2.12-8.83.3-13-2.52-5.76-8.7-8.8-14.4-10.52a60.19,60.19,0,0,0-6.91-1.6c-.88-.15-1.26,1.2-.37,1.36,6.89,1.2,15.51,3.36,19.53,9.7,2.57,4,2.21,8.93.64,13.28a32.65,32.65,0,0,1-5.85,9.93c-1,1.19-1.9,1.69-2.84,2.81-2.25,2.66-2.58,6.49-2.34,9.82A28.35,28.35,0,0,0,596,164.3c1.45,3.15,5,5.17,7.93,6.69a21.8,21.8,0,0,0,6.68,2.3,14.94,14.94,0,0,0,6.66-.71,20,20,0,0,0,6.47-3.37c2.1-1.66,3.39-4,5.36-5.74,2.27-2,6-2.15,8.9-2.05a16.68,16.68,0,0,1,8.53,2.46,12.09,12.09,0,0,1,4.93,6.16c1,2.94.14,5.77-.08,8.75a14.7,14.7,0,0,0,5.83,12.7,14.33,14.33,0,0,0,14,1.54,7.61,7.61,0,0,0,4.52-4.63,4.55,4.55,0,0,0-2.1-5c-1.63-.9-4-.21-4.31,1.8s1.38,4.77,2.61,6.37c3.14,4.08,8,6.36,13,7.13a37.39,37.39,0,0,0,8.72.21c2.75-.21,6.37-.91,8.43,1.49a3.09,3.09,0,0,1-3.14,4.92.7.7,0,0,0-.37,1.35Z"/><text/><path d="M823.14,394.19a32.88,32.88,0,0,0,14.41,4.42,51.64,51.64,0,0,0,20-2.95c13.37-4.7,24.52-14.17,33.35-25.05a165.54,165.54,0,0,0,13.83-20.38.51.51,0,0,0-.88-.51c-7.16,12.18-15.37,24-26.3,33.14-10.45,8.71-23.25,14.63-37,14.8a32.53,32.53,0,0,1-16.85-4.34.5.5,0,0,0-.51.87Z"/><path d="M836.29,412.11c12.73,3.13,25.54-.74,36.6-7.16,11.48-6.67,21.21-15.79,29.58-26,4.66-5.7,8.93-11.71,13-17.84.36-.55-.52-1.05-.87-.51-7.05,10.58-14.69,20.87-23.91,29.67S870,407.08,857.39,410.59a40.87,40.87,0,0,1-20.83.54.51.51,0,0,0-.27,1Z"/><path d="M898.71,360.15a14.25,14.25,0,0,1,4.89,3.54,35.83,35.83,0,0,1,4.68,5.6c.19.27.63,0,.44-.26a37,37,0,0,0-4.87-5.8,14.43,14.43,0,0,0-5-3.57c-.31-.1-.44.38-.13.49Z"/><path d="M873.44,387.2a22,22,0,0,0,3.41,5.41,30.76,30.76,0,0,0,6,5.09c.22.15.44-.22.21-.37a30.52,30.52,0,0,1-5.91-5A21.86,21.86,0,0,1,873.8,387c-.11-.25-.48,0-.36.22Z"/><path d="M881.52,380.63a62.22,62.22,0,0,1,9.18,9.46c.2.26.56-.1.36-.36a62.7,62.7,0,0,0-9.18-9.46c-.25-.2-.61.15-.36.36Z"/><path d="M891.37,369.73c4.5,1.07,7.48,4.85,10.12,8.37.19.26.63,0,.44-.25-2.72-3.64-5.79-7.51-10.43-8.61a.25.25,0,0,0-.13.49Z"/><path d="M845,412.37a13.09,13.09,0,0,1-2-13.53c.12-.29-.35-.41-.47-.13a13.57,13.57,0,0,0,2.11,14c.21.23.55-.11.34-.34Z"/><path d="M860.48,394.13a34.11,34.11,0,0,0,9,12.26c.2.18.5-.12.3-.29a34,34,0,0,1-8.9-12.18c-.1-.25-.46,0-.36.21Z"/><path d="M840.53,411.84a13.05,13.05,0,0,1-2-13.52c.11-.29-.35-.42-.47-.13a13.53,13.53,0,0,0,2.11,14c.2.23.54-.11.34-.35Z"/><path d="M853.33,396.22c.31,5.52,1.67,11.13,6.25,14.64.22.16.43-.2.22-.36-4.46-3.42-5.75-8.93-6-14.28,0-.27-.44-.27-.42,0Z"/><path d="M901.37,356a20.45,20.45,0,0,1,10.19,9.65c.12.29.61.16.49-.14a17.55,17.55,0,0,0-4.9-6.43,17.76,17.76,0,0,0-5.64-3.57c-.31-.1-.45.39-.14.49Z"/></svg>