<svg xmlns="http://www.w3.org/2000/svg" viewBox="0 0 1920 1080"><defs><style>.cls-1{fill:#ffffe5;}.cls-2{fill:#b8e7ff;}.cls-3{fill:#998675;}.cls-4{fill:#736357;}.cls-5{fill:#c7b299;}.cls-6{fill:#333;}.cls-7{fill:#4d4d4d;}.cls-8{fill:#c69c6d;}.cls-9{fill:gray;}.cls-10{fill:#999;}.cls-11{fill:#b3b3b3;}.cls-12{fill:#ccc;}.cls-13{fill:#e6e6e6;}.cls-14{fill:#ffffc6;}.cls-15{fill:#ad7e52;}.cls-16{fill:#a67c52;}.cls-17{fill:#8c6239;}.cls-18{fill:#cbf1ff;}.cls-19,.cls-20,.cls-21,.cls-22{fill:#cae7ff;stroke:#534741;}.cls-19,.cls-20,.cls-21,.cls-22,.cls-23,.cls-29,.cls-39{stroke-miterlimit:10;}.cls-19{stroke-width:7.77px;}.cls-20{stroke-width:9px;}.cls-21{stroke-width:6.52px;}.cls-22{stroke-width:7.71px;}.cls-23,.cls-26,.cls-31{fill:#fff;}.cls-23{stroke:#fff;stroke-width:1.04px;}.cls-24{fill:#7b7c8a;}.cls-25,.cls-29{fill:#e38556;}.cls-27{fill:#001300;}.cls-28{fill:#464f73;}.cls-29{stroke:#e38556;stroke-width:8.34px;}.cls-30{fill:#c69c6a;}.cls-31{font-size:77.83px;font-family:SignPainter-HouseScript, SignPainter;}.cls-32{letter-spacing:-0.01em;}.cls-33{fill:#499132;}.cls-34{fill:#006b36;}.cls-35{fill:#2c0040;}.cls-36{fill:#4c3c6d;}.cls-37{fill:#569ebf;}.cls-38{fill:#fff9e3;}.cls-39{fill:none;stroke:#291706;stroke-width:3.4px;}.cls-40{fill:#bebebe;}.cls-41{fill:#989898;}.cls-42{fill:#cb5720;}.cls-43{fill:#cb7c31;}.cls-44{fill:#ffa768;}.cls-45{fill:#ffcc8f;}.cls-46{fill:#cbcbcb;}</style></defs><g id="Lag_1" data-name="Lag 1"><rect class="cls-1" x="-4" y="736" width="1921" height="205" rx="14"/><rect class="cls-2" width="1919.82" height="1079.64"/><rect class="cls-3" x="1" y="923" width="1921" height="159" rx="14"/><rect class="cls-4" x="-4" y="923" width="977" height="159" rx="14"/><ellipse class="cls-5" cx="592.32" cy="1002.74" rx="51.68" ry="51.26"/><rect class="cls-6" x="580.51" y="952.81" width="23.94" height="99.98" rx="11.97" transform="translate(1184.96 2005.6) rotate(180)"/><ellipse class="cls-5" cx="817.32" cy="1003.24" rx="52.68" ry="50.76"/><rect class="cls-6" x="807.02" y="953.81" width="24.41" height="99" rx="12.2" transform="translate(1638.45 2006.62) rotate(180)"/><rect class="cls-7" x="585.75" y="953.07" width="23.94" height="99.98" rx="11.97" transform="translate(1195.45 2006.11) rotate(-180)"/><rect class="cls-7" x="811.52" y="953.44" width="23.94" height="99.98" rx="11.97" transform="translate(1646.99 2006.85) rotate(-180)"/><rect class="cls-8" x="944.06" y="876" width="977.06" height="47" rx="11.6"/><rect class="cls-9" x="363.5" y="427.65" width="89.76" height="142.35" rx="5.28"/><rect class="cls-9" x="281.24" y="418" width="97.76" height="152" rx="5.84"/><rect class="cls-9" x="449.24" y="320" width="89.76" height="250" rx="6.83"/><rect class="cls-9" x="544.78" y="346" width="89.76" height="225.31" rx="6.25"/><rect class="cls-10" x="630.5" y="494" width="75.5" height="75.65" rx="5.04"/><rect class="cls-10" x="703.63" y="469" width="57.37" height="100.47" rx="5.08"/><rect class="cls-9" x="415.93" y="400.7" width="28" height="100.47" rx="4.48"/><rect class="cls-9" x="220.29" y="346.22" width="45.71" height="152" rx="3.25"/><rect class="cls-10" x="768.34" y="469.96" width="57.37" height="100.47" rx="5.08"/><rect class="cls-10" x="866.79" y="425.82" width="89.76" height="142.35" rx="5.28"/><rect class="cls-9" x="640.54" y="366.17" width="139.03" height="203" rx="4.39"/><rect class="cls-9" x="784.54" y="416.17" width="97.76" height="152" rx="5.84"/><rect class="cls-10" x="919.22" y="398.86" width="28" height="100.47" rx="4.48"/><rect class="cls-9" x="723.59" y="344.38" width="45.71" height="152" rx="3.25"/><rect class="cls-10" x="1371.79" y="424.82" width="89.76" height="142.35" rx="5.28"/><rect class="cls-9" x="1289.54" y="415.17" width="97.76" height="152" rx="5.84"/><rect class="cls-10" x="1457.54" y="317.17" width="89.76" height="250" rx="6.83"/><rect class="cls-10" x="1553.07" y="343.17" width="89.76" height="225.31" rx="6.25"/><rect class="cls-9" x="1638.79" y="415" width="75.5" height="151.82" rx="5.04"/><rect class="cls-10" x="1424.22" y="397.86" width="28" height="100.47" rx="4.48"/><rect class="cls-11" x="326.72" y="556.36" width="89.76" height="142.35" rx="5.28"/><rect class="cls-12" x="243.46" y="518" width="86.54" height="178.72" rx="5.84"/><rect class="cls-11" x="408.46" y="456" width="89.54" height="242.72" rx="6.83"/><rect class="cls-13" x="678.99" y="470" width="142.01" height="226.03" rx="6.25"/><rect class="cls-12" x="490.72" y="529" width="75.28" height="169.36" rx="5.04"/><rect class="cls-11" x="563.84" y="540" width="120.16" height="157.19" rx="5.08"/><rect class="cls-12" x="817.56" y="495" width="129.44" height="202.15" rx="5.08"/><rect class="cls-12" x="947.42" y="518.01" width="86.54" height="178.72" rx="5.84"/><rect class="cls-12" x="1327.62" y="529" width="96.38" height="162.97" rx="5.08"/><rect class="cls-12" x="1416.41" y="456" width="85.59" height="237.24" rx="5.84"/><rect class="cls-13" x="1499.41" y="470" width="95.59" height="225.24" rx="5.84"/><rect class="cls-13" x="1595.41" y="529" width="118.59" height="164.24" rx="5.84"/><path class="cls-1" d="M1908,879H15c-6.7,0-13-6.3-13-14V666a14,14,0,0,1,14-14H1909a14,14,0,0,1,14,14V865C1923,872.7,1916.7,879,1908,879Z"/><rect class="cls-14" x="-2" y="652" width="970" height="225" rx="14"/><rect class="cls-15" x="-3" y="879" width="974.99" height="47" rx="8.11"/><path class="cls-16" d="M947.3,917.32h975a0,0,0,0,1,0,0v11.81a4.41,4.41,0,0,1-4.41,4.41H947.3a0,0,0,0,1,0,0V917.32a0,0,0,0,1,0,0Z"/><path class="cls-17" d="M-3,917H972a0,0,0,0,1,0,0v11.81a4.41,4.41,0,0,1-4.41,4.41H-3a0,0,0,0,1,0,0V917A0,0,0,0,1-3,917Z"/><rect class="cls-1" x="1390.5" y="323.5" width="859" height="212" transform="translate(1390.5 2249.5) rotate(-90)"/><rect class="cls-14" x="-317" y="318" width="877" height="241" transform="translate(560 317) rotate(90)"/><ellipse class="cls-5" cx="364.63" cy="1005.04" rx="52.18" ry="50.76"/><rect class="cls-6" x="352.7" y="955.61" width="24.17" height="99" rx="12.09" transform="translate(729.58 2010.23) rotate(180)"/><rect class="cls-7" x="357.82" y="954.22" width="23.94" height="99.98" rx="11.97" transform="translate(739.58 2008.42) rotate(180)"/><rect class="cls-18" x="428.52" y="-102.63" width="54.05" height="500.12" rx="14" transform="translate(273.27 -295.32) rotate(49.69)"/><rect class="cls-18" x="595.62" y="-144.78" width="84.07" height="588.39" rx="14" transform="translate(339.09 -433.49) rotate(49.69)"/><ellipse class="cls-5" cx="142.61" cy="1004.78" rx="52.18" ry="50.76"/><rect class="cls-6" x="130.68" y="955.35" width="24.17" height="99" rx="12.09" transform="translate(285.54 2009.7) rotate(180)"/><rect class="cls-7" x="135.8" y="953.96" width="23.94" height="99.98" rx="11.97" transform="translate(295.54 2007.9) rotate(-180)"/></g><g id="Lag_2" data-name="Lag 2"><path class="cls-19" d="M239,649l1475-1.53"/><path class="cls-20" d="M1715.41,0l-.84,650.91"/><path class="cls-21" d="M242.17,1q-.22,325.42-.44,650.86"/><path class="cls-22" d="M239,202.08l1476.65-1.5"/><path class="cls-22" d="M238.82,438.16l1476.65-1.5"/><path class="cls-20" d="M964.55-5.38l-.84,650.9"/><path class="cls-20" d="M1344.55,1.62l-.84,650.9"/><path class="cls-20" d="M624.55-6.38l-.84,650.9"/></g><g id="Lag_4" data-name="Lag 4"><path class="cls-23" d="M1200.55,491.89h31.12a2.51,2.51,0,0,1,2.51,2.51v15.46a2.52,2.52,0,0,1-2.52,2.52h-31.12a2.51,2.51,0,0,1-2.51-2.51V494.4a2.51,2.51,0,0,1,2.51-2.51Z" transform="translate(581.3 1654.56) rotate(-83.59)"/><path class="cls-23" d="M1187.15,482.87h20.25a2.52,2.52,0,0,1,2.52,2.52V516.5a2.52,2.52,0,0,1-2.52,2.52h-20.24a2.52,2.52,0,0,1-2.52-2.52V485.38a2.51,2.51,0,0,1,2.51-2.51Z" transform="translate(-43.61 120.67) rotate(-5.67)"/><path class="cls-24" d="M1122.52,648.11c27.6-.64,77.78-9.89,70.82-53.22-14.58-90.78,73.94,19.47,73.94,47.13s-35.5,50.09-79.3,50.09S1077.74,649.15,1122.52,648.11Z"/><path class="cls-24" d="M1056.91,663.76c-73.65-131.65,47.64-13.56,84.35-13.56s74.34,12.16,74.34,39.82-37.62,66.61-74.34,66.61S1070.4,687.89,1056.91,663.76Z"/><path class="cls-25" d="M1017.31,543.12c-6-20.14-61.43-67.19-35.39-60.93,0,0,56.63,44.19,97.9,59.48,19.69,7.3-16.67,53.22-45.83,42.79C1021.08,579.84,1023.36,563.26,1017.31,543.12Z"/><path class="cls-24" d="M1061.35,618.89h-11.47c-11.06,14.12-5.91,23.27-20.31-17.08a31.55,31.55,0,0,1-1.82-10.55v-7.19c0-6.28-.08-2.63,1.88-3.22a6.51,6.51,0,0,1,5.73.75l.78.56a7.56,7.56,0,0,0,8.49.21c4-2.62,7.81-6.74,17-4.44a7.53,7.53,0,0,1,4.93,4.1l15.74,33.39a7.42,7.42,0,0,0,1.46,2.09c22.06,22.19,43.92,28.49-19.62,1.93A8.57,8.57,0,0,0,1061.35,618.89Z"/><path class="cls-24" d="M1092.32,679.41c27.6-.64,112,42.64,105.38-.74-17.55-114.95,79.3,22.43,79.3,50.09s-6.54,124.92-50.34,124.92S1047.53,680.46,1092.32,679.41Z"/><path class="cls-24" d="M1447.45,1075.94c0,27.66-196-.07-232.24-6.26-42.18-7.22-132.27,29.75-132.27,2.09s102.75-237.15,51-295.31C1082.94,719.07,1447.45,1048.28,1447.45,1075.94Z"/><path class="cls-24" d="M1124.6,430c39.58-58.44,49.87-22.34,86.58-22.34s117.55,9.29,117.55,36.95-80.83,63.23-117.55,63.23S1109.1,452.91,1124.6,430Z"/><path class="cls-24" d="M1227.71,582.37c-13.54-33.39,22.5,7.63,53.11-39.65,50-77.22,68.74,99.13,84.29,118.41,17.35,21.52-40.49,124.72-84.29,124.72S1244.57,624,1227.71,582.37Z"/><path class="cls-24" d="M1063.15,1004.43c0-42,86.16-135.69,92.7-150.75,10.41-24-33.33,108.71-33.33,150.75s-13.29,76.13-29.68,76.13S1063.15,1046.48,1063.15,1004.43Z"/><path class="cls-25" d="M1039.51,540.41c-6-20.14,47-55.3,60.1-59.26s-18.61,24.79-12.56,44.94-3.12,43.16-24,48.38C1049.81,577.8,1045.56,560.56,1039.51,540.41Z"/><path class="cls-24" d="M1348.42,609.5c5.19,40.7,82.37,87.65,77.16,127.31-1.65,12.56-91.73,83.69-91.73,83.69l-9.69-47.42Z"/><polygon class="cls-24" points="1311.93 850.55 1307.56 827.59 1384.97 740.45 1384.97 766.62 1352.45 850.55 1311.93 850.55"/><path class="cls-24" d="M1258.91,392.26l19.78-13.42c13.34-8.18,26.49-2.12,34.89,1.38,9.92,4.14,0-5.52,13.65,2.76,23.58,14.31,44,66.26,54.61,77.3Z"/><path class="cls-24" d="M1288.47,415.15c32.5-43.24,57.73,39.82,108.88,50.67,75.13,15.95,83.66,84.07,59.77,120.25s-85,43.86-127.49,15.68S1262.45,449.77,1288.47,415.15Z"/><path class="cls-26" d="M1297.07,396.78c2.53,10.29-5.31,21.07-17.51,24.09s-36.52.17-39-10.12,17.68-24.13,29.88-27.14S1294.53,386.49,1297.07,396.78Z"/><path class="cls-27" d="M1243.33,411.24c0-7.28,6.77-14.88,14-14.88a13.13,13.13,0,0,1,13.08,13.18c0,7.27-2.15,13.17-9.38,13.17S1243.33,418.51,1243.33,411.24Z"/><path class="cls-25" d="M1016.29,478c-6-20.14,32.28-43.83,22.91-28.17,0,0-30.85,35.83,10.42,51.13,19.69,7.3,11.45,46.95-16.67,25C1022.13,517.59,1022.34,498.16,1016.29,478Z"/><path class="cls-25" d="M1067.32,464.45c11.46,16.7,32.27,8.79,32.73,11.89s-22.31,20.46-39-2.49c-12.35-17,14.72,95.22-21.87,21.91C1035,487.41,1055.43,447.12,1067.32,464.45Z"/><path class="cls-13" d="M1123.25,306.67a181.18,181.18,0,0,1,47.59,71.14c.34.94,1.85.53,1.51-.42a184.23,184.23,0,0,0-34.57-58.12,180.87,180.87,0,0,0-13.42-13.71c-.74-.68-1.85.43-1.11,1.11Z"/><path class="cls-13" d="M1160.6,327.87a123.24,123.24,0,0,1,13.28,22.21c3.78,8.2,7,17,7.53,26.09.06,1,1.62,1,1.57,0-.49-9.1-3.65-17.83-7.38-26.07a123.12,123.12,0,0,0-13.65-23c-.59-.8-2,0-1.35.79Z"/><path class="cls-13" d="M1085,303.48c14.28,10.54,27.47,22.46,40.76,34.19,3.41,3,7.17,5.91,9.33,10,.47.89,1.82.1,1.35-.79-1.84-3.49-4.79-6.1-7.71-8.67l-10.5-9.27c-6.77-6-13.57-11.9-20.57-17.59q-5.83-4.74-11.87-9.22c-.81-.6-1.59.76-.79,1.35Z"/><ellipse class="cls-24" cx="1184.14" cy="425.85" rx="66.48" ry="50.09"/><path class="cls-25" d="M1116.63,391.79c-6.05-20.14-.31-39.68,12.82-43.64s28.67,9.17,34.72,29.31-3.12,43.17-24,48.39C1126.92,429.18,1122.68,411.93,1116.63,391.79Z"/><path class="cls-24" d="M1340.7,772.13l5.52,10.08c18.39,3,11.63,18.3-8.74,30.11l-11.06,6.09c-5.49,3-2.26,1.33-3.72-.1a6.57,6.57,0,0,1-2.1-5.41l.11-.95a7.58,7.58,0,0,0-3.91-7.55c-4.23-2.29-9.65-3.61-12-12.76a7.57,7.57,0,0,1,1.21-6.3l21.64-29.9a7.57,7.57,0,0,0,1.13-2.32c4.53-15.55,4.74-14.92,11.19,16.86A7.49,7.49,0,0,0,1340.7,772.13Z"/><ellipse class="cls-24" cx="1287.49" cy="827.99" rx="72.29" ry="88.3"/><path class="cls-13" d="M1219,424.54c16.2,4.84,28.9,16.86,38.69,30.21,2.91,4,5.62,8.11,8.23,12.3.53.85,1.88.07,1.35-.79-9.1-14.63-19.88-28.9-35-37.67a59.92,59.92,0,0,0-12.81-5.56.78.78,0,0,0-.42,1.51Z"/><path class="cls-13" d="M1194.67,433.77c4,1.74,6.44,5.52,8.73,9.08q4,6.24,7.69,12.64,7.47,12.9,13.75,26.45c.42.91,1.77.12,1.35-.79a293.59,293.59,0,0,0-23-41.49c-2-3-4.36-5.79-7.71-7.24-.92-.39-1.72,1-.79,1.35Z"/><path class="cls-25" d="M1261,840.26c2.09-18.78,50.87-43.28,61.48-34.58,11.46,9.39-54,22.64-47.91,42.78s-2.08,23-6.25,24C1261.93,874.06,1258.68,861.17,1261,840.26Z"/><path class="cls-25" d="M1242.29,833.85c2.08-18.78,65.61-34.44,75-32.35,14.45,3.22-69.57,24.73-63.53,44.87s-3.12,24-10.41,28.18C1237.61,877.82,1240,854.76,1242.29,833.85Z"/><path class="cls-25" d="M1277.7,842.2c2.08-18.78,33.74-29.44,46.86-33.39s-45.08,36.13-27.08,47c10.42,6.26,2.09,6.26-3.12,7.31C1287.9,864.36,1275.38,863.1,1277.7,842.2Z"/><path class="cls-28" d="M1277.66,509.57a1.57,1.57,0,0,0,0-3.13,1.57,1.57,0,0,0,0,3.13Z"/><path class="cls-28" d="M1276.54,514.67a1.57,1.57,0,0,0,0-3.13,1.57,1.57,0,0,0,0,3.13Z"/><path class="cls-25" d="M1216.37,561.37c2.19,1.86,5,2.7,7.71,3.39a49.35,49.35,0,0,0,8.89,1.36c2,.12,2-3,0-3.13a44.43,44.43,0,0,1-7.78-1.17c-2.24-.55-4.8-1.13-6.61-2.66a1.6,1.6,0,0,0-2.21,0,1.57,1.57,0,0,0,0,2.21Z"/><path class="cls-25" d="M1182.72,538.44c2.86,1.89,5,4.6,7.48,7a102,102,0,0,0,8.68,7.26,1.61,1.61,0,0,0,2.21,0,1.57,1.57,0,0,0,0-2.21,100.9,100.9,0,0,1-8.9-7.48c-2.56-2.51-4.88-5.25-7.9-7.24-1.68-1.11-3.25,1.6-1.57,2.7Z"/><path class="cls-24" d="M1173.75,530a8.07,8.07,0,0,0-3.4,4.74,3.76,3.76,0,0,1,.37-2,8.63,8.63,0,0,1,1.16-2.26,3,3,0,0,1,2.14-1.21"/><path class="cls-25" d="M1173,528.65a9.72,9.72,0,0,0-4.12,5.68h3v-.1l.06.41a2.91,2.91,0,0,1,0-.59l-.05.41a7,7,0,0,1,.48-1.53,2.13,2.13,0,0,0,.14-.35c-.14.46,0,0,0-.06s.2-.42.32-.62a2.68,2.68,0,0,1,.18-.28c0-.06.07-.11.1-.16-.15.19-.17.22-.07.1a2.61,2.61,0,0,1,.23-.25,2.73,2.73,0,0,0,.25-.23l-.12.09.15-.1a2.69,2.69,0,0,1,.29-.16l-.14.06.16-.06.33-.07-.42.06.25,0a1.57,1.57,0,1,0,0-3.13,4.83,4.83,0,0,0-3.91,2.61,15.66,15.66,0,0,0-.92,2,7.52,7.52,0,0,0-.32,1,4.38,4.38,0,0,0,0,1.73,1.45,1.45,0,0,0,.56.81,1.53,1.53,0,0,0,.95.34,1.6,1.6,0,0,0,1.5-1.15q.09-.35.21-.69l.12-.31c.06-.17-.17.38,0,.1a1,1,0,0,1,.07-.15,7.69,7.69,0,0,1,.72-1.24l.1-.13c.12-.18-.08.08-.09.11a1.6,1.6,0,0,1,.21-.26c.16-.18.32-.35.49-.52l.53-.47-.11.09a1.09,1.09,0,0,1,.17-.13l.31-.21a1.56,1.56,0,1,0-1.58-2.7Z"/><path class="cls-25" d="M1173.65,530.91c-.06-1.2,2.14-.65,2.77-.48a9.16,9.16,0,0,1,4,2,20.84,20.84,0,0,1,3,4l3.13,4.83c1.09,1.68,3.8.11,2.7-1.58l-3.89-6a14.67,14.67,0,0,0-4.47-4.83,12.28,12.28,0,0,0-6.07-1.87c-2.15,0-4.4,1.51-4.27,3.87.11,2,3.23,2,3.12,0Z"/><path class="cls-24" d="M1168.34,533.53c5-35.5,30.21,34.21,81.24,7.1,46-24.43-2.09-147.62,94.77-9.46,19.74,28.16-31.49,46-82.28,46S1165.22,555.93,1168.34,533.53Z"/><path class="cls-29" d="M1513.25,1031.23c-19,0-31.93-3.21-57.46-7.46l11.45-39.66c62.53,10.42,62.49,20.87,87.49,16.7,26.68-4.46,42.58-6.17,42.7-6.26l-6.25,3.13h0c33.66-20.44,72.24-23.64,109.48-108.63,9.95-22.71,14.79-58,12.63-92-1.85-29.2-9.49-71.43-35.37-106.79-7.12-9.72-17.87-24.42-42.11-36-19.89-9.54-39.23-7.67-57.47,5.53a89.49,89.49,0,0,0-21.72,23c-.59,1.21-10.68,22.46-3.76,42.37,3.94,11.36,12.68,20.24,26,26.41,11.62,5.4,20.87,5.93,27.5,1.6,12.24-8,11.94-30.19,11.93-30.41l3.13-.06c0,1,.34,24.13-13.34,33.09-7.59,5-17.87,4.5-30.54-1.38-14.08-6.54-23.37-16-27.6-28.24-7.52-21.67,3.48-43.91,3.95-44.84l.06-.11a90.86,90.86,0,0,1,22.52-23.94c13.24-9.61,34.52-18.43,60.72-5.88,24.95,12,36,27,43.29,37,45.53,62.21,42.66,157.23,23.08,201.91-37.63,85.89-53.26,95.38-87.51,116.17l-.49.3c-1.26,1-12.92,10.14-38.66,17C1562.25,1027.68,1541.24,1031.23,1513.25,1031.23Z"/><path class="cls-24" d="M1246.45,889.16c25,5.48,123-44.24,116.65-87.66-18.75-128.35,47.9-31.3,79.49,50.13,0,0,48.7,106.91,16.12,199.84-3,8.41-11.13,31.74-23.9,32.55a13,13,0,0,1-7.14-1.82C1389.33,1061,1202.69,879.56,1246.45,889.16Z"/><ellipse class="cls-26" cx="1259.73" cy="402.57" rx="4.43" ry="4.49"/><path class="cls-25" d="M1268.32,384.08s11.14-4.68,20.62,9.33,1,22.67,1,22.67c8.25-5.6,10.08-17.31,4.1-26.14S1276.56,378.48,1268.32,384.08Z"/><path class="cls-13" d="M1210.46,432.63c3.45,1,6.06,3.49,8.61,5.87s5.06,4.78,7.54,7.22c5,4.89,9.85,9.92,14.49,15.13a184.9,184.9,0,0,1,24.19,33.46,128.31,128.31,0,0,1,9.39,21.38c.31.95,1.83.54,1.51-.42A141.83,141.83,0,0,0,1256.81,478a246.82,246.82,0,0,0-27.9-32.17q-4.31-4.26-8.73-8.39c-2.75-2.58-5.58-5.23-9.3-6.28a.78.78,0,0,0-.42,1.51Z"/><path class="cls-26" d="M1378.7,449.75,1305,376c-6.92-6.93-7.45-18.18-1.17-25l57-90.21c7.4-36.32,54.27-14.41,57.39-12.32l61.45,25.05c26,11.47,48.59,88.54,13.79,113.27l-90.84,63.16C1396.41,456.76,1385.62,456.68,1378.7,449.75Z"/><path class="cls-12" d="M1478.09,332.82c8.09,6.2-14,20.51-34.39,42.7s-58.73,61.53-60.13,60.14,34.68-43,55.07-65.2S1470.82,327.24,1478.09,332.82Z"/><path class="cls-12" d="M1433.83,337.93c5.19,3.58-12.57,16.93-30,35.89s-49.93,52.87-50.79,52,30.25-36.16,47.68-55.12S1429.17,334.71,1433.83,337.93Z"/><path class="cls-26" d="M1383.93,469.67l-68.74-83.48c-.18-.45-16.66-15.65-32.29-9.39L1293,354.91c-.06-12.64,3.24-12.8,5.24-10.79l106.48,106.62c2,2,9.33,4.21,7.3,6.41l-18.74,12.52C1393.18,469.35,1385.93,471.68,1383.93,469.67Z"/><path class="cls-24" d="M1225.21,598.46c4.46,13.17-30.42,28.61-30.78,2.2-.52-38.51-26.07-50.56-26.31-61.85-.35-16.26,59.56,3.82,56.67,35.36C1223.67,586.4,1221.54,587.62,1225.21,598.46Z"/><rect class="cls-30" x="1528.59" y="29.53" width="373.41" height="118.47" rx="43.91"/><text class="cls-31" transform="translate(1558.65 111.37) scale(1.02 1)">L<tspan class="cls-32" x="27.48" y="0">i</tspan><tspan x="42.19" y="0">v</tspan></text><rect class="cls-30" x="1533.09" y="167.21" width="369.91" height="150.79" rx="41.5"/><path class="cls-26" d="M1574.63,225.66l-.17-.12a5.44,5.44,0,0,1-1.27-7.62l23.93-33.06a5.56,5.56,0,0,1,7.69-1.26l.17.12a5.43,5.43,0,0,1,1.27,7.61l-23.93,33.07A5.56,5.56,0,0,1,1574.63,225.66Z"/><path class="cls-26" d="M1580.38,226.31h0a5.56,5.56,0,0,1-7.66-1.43L1561,208a5.44,5.44,0,0,1,1.44-7.59h0a5.55,5.55,0,0,1,7.66,1.42l11.69,16.91A5.44,5.44,0,0,1,1580.38,226.31Z"/><path class="cls-26" d="M1565.22,302.7l-.15-.15a5.43,5.43,0,0,1,0-7.71l29.06-28.77a5.58,5.58,0,0,1,7.8,0l.14.15a5.44,5.44,0,0,1,0,7.72L1573,302.7A5.57,5.57,0,0,1,1565.22,302.7Z"/><path class="cls-26" d="M1602.66,302l.14-.15a5.44,5.44,0,0,0-.32-7.71l-30.21-27.58a5.57,5.57,0,0,0-7.79.32l-.14.14a5.45,5.45,0,0,0,.32,7.72l30.21,27.57A5.58,5.58,0,0,0,1602.66,302Z"/><path class="cls-33" d="M1812.14,235.11c-14.07-1.74-5.92-14.15-2.64-27.5s-2.23-31,24.37-27c18.12,2.7,17.37,34.31,15.87,47.4C1848.2,241.51,1826.22,236.85,1812.14,235.11Z"/><path class="cls-34" d="M1816.33,229c-6.45-.79-.22-10.49,2.19-20.38s-7.39-24,11.57-20.25c10,2,15.27,27.26,13.69,36.89C1842.17,235.21,1822.78,229.83,1816.33,229Z"/><path class="cls-34" d="M1824.43,174.55l2.5,3.56a5.12,5.12,0,0,0,3,2l3.46.48-3.59.43.34,2.51-3.56-1.1-4.52,1.52,1.69-2.23-3.49-.64,2.67-.68a2.1,2.1,0,0,0,1.67-2.42l-.78-3.11A.37.37,0,0,1,1824.43,174.55Z"/><path class="cls-35" d="M1761.32,217.79c2.3,11.19-17.74,25.23-33.77,17.11-25.32-12.83-24.28-49.53-13.11-53.17,3.78-1.23,14.76-6,25.69,10.91C1746.7,202.77,1759.43,208.57,1761.32,217.79Z"/><path class="cls-34" d="M1716,175.5l3,3.06a5.2,5.2,0,0,0,3.07,1.52l3.18.58-3.66.45,1.18,1.93-3.29-.45-3.41,1.86.71-2.22-3.68.16,2.67-1.3a1.82,1.82,0,0,0,1-2.44l-1.33-2.82C1715.33,175.52,1715.77,175.24,1716,175.5Z"/><path class="cls-36" d="M1747.53,210.26c-1.3-5.82,5.26,1.37,5.83,2.47,4.16,8-.16,14.78-3.78,16.28-1.55.64-6.48-.86-.5-7.2C1751.73,219,1748.35,214,1747.53,210.26Z"/><path class="cls-26" d="M1749.83,257.27c4.33-4.59,10.6-4.26,15.57-1.23,8,4.85,4.2,10.82-.14,15.42s-11.31,5.15-15.57,1.23S1745.49,261.87,1749.83,257.27Z"/><path class="cls-26" d="M1755.12,268.71c4.34-4.6,10.08-3.35,15.58-1.24,4.79,1.85,5.69,12-.14,15.42-5.42,3.21-11.31,5.15-15.57,1.24S1750.79,273.31,1755.12,268.71Z"/><path class="cls-26" d="M1716.75,295.75l-4.2-12a4.33,4.33,0,0,1,2.51-5.25l34-14.41a3.71,3.71,0,0,1,5.07,2l4.19,12a4.31,4.31,0,0,1-2.51,5.24l-34,14.42A3.7,3.7,0,0,1,1716.75,295.75Z"/><path class="cls-26" d="M1698.59,278.56c3.57-5.89,11.31-5.15,15.57-1.23s4.21,10.82-.13,15.42-10.52,4.21-15.57,1.23S1695.34,283.93,1698.59,278.56Z"/><path class="cls-26" d="M1703.89,290c4.34-4.59,11.31-5.15,15.57-1.23s4.87,11.56-.13,15.42c-9.11,7-11.09,4.9-15.58,1.23C1701.22,303.34,1699.55,294.59,1703.89,290Z"/><rect class="cls-37" x="1749.9" y="424.01" width="52.38" height="222.9"/><rect class="cls-38" x="1750.78" y="392.87" width="52.38" height="31.14"/><rect class="cls-39" x="1749.9" y="391" width="54.1" height="257.9"/><rect class="cls-40" x="238.39" y="274.79" width="449.06" height="592.65" rx="5.14"/><rect class="cls-41" x="204.47" y="274" width="253.35" height="592.65" rx="5.22"/><path class="cls-42" d="M139.57,690.11s58.67,16,74.88,89.85c22.67,103.24,416.28,84.32,67.32,91.42-52.84,1.07-44.65,11.82-109.91-46.5C122.31,780.6,139.57,690.11,139.57,690.11Z"/><path class="cls-42" d="M753,690.21s-58.67,16-74.88,89.84c-22.67,103.24-416.28,84.33-67.32,91.42,52.84,1.08,44.65,11.82,109.91-46.49C770.23,780.7,753,690.21,753,690.21Z"/><path class="cls-42" d="M70.33,690s65.61,15.6,81.72,97.11c22.53,114,466.31,58.27,73.16,99.16-59.36,6.18-50.63,14.86-122.43-47.54C48.27,791.34,70.33,690,70.33,690Z"/><path class="cls-42" d="M821.59,689.85S756,705.45,739.87,787c-22.54,114-466.32,58.27-73.17,99.16,59.37,6.18,50.63,14.86,122.44-47.55C843.65,791.21,821.59,689.85,821.59,689.85Z"/><path class="cls-42" d="M641.31,775.92s-60.57-4.11-100.12,59.21c-55.33,88.56-420.06-56.53-93.53,63.12,49.45,18.11,38.2,25.44,118.88-7.59C627.8,865.58,641.31,775.92,641.31,775.92Z"/><path class="cls-42" d="M251.05,775.61s60.56-4.12,100.12,59.2c55.33,88.57,420.06-56.52,93.52,63.12-49.45,18.12-38.19,25.45-118.88-7.59C264.55,865.26,251.05,775.61,251.05,775.61Z"/><path class="cls-42" d="M177.94,851.56s51.19-37.38,112.59-4.12c85.88,46.53,27.6-25.1,45.49,14.61,23.85,52.89,40.39,31.92-44.12,48.06C227.74,922.37,177.94,851.56,177.94,851.56Z"/><path class="cls-42" d="M710.21,852S659,814.62,597.63,847.89c-85.89,46.53-27.6-25.1-45.5,14.6-23.85,52.89-40.39,31.93,44.12,48.07C660.41,922.81,710.21,852,710.21,852Z"/><path class="cls-43" d="M151.51,712.33s.43,44,56.07,77.87c5.94,3.62,14.42,35.47,8.24,32.31-48.29-24.62,26.79,61.48-38.47,3.16C127.81,781.39,151.51,712.33,151.51,712.33Z"/><path class="cls-43" d="M740.37,714.27s-.44,44-56.08,77.87c-5.94,3.62-14.42,35.46-8.24,32.31,48.29-24.62-26.79,61.47,38.47,3.15C764.06,783.33,740.37,714.27,740.37,714.27Z"/><path class="cls-43" d="M271.09,795.11S303.2,860.48,352.5,857c6.39-.46,91.79,39.15,85.69,36.69-49.94-20.16-52.62,22.18-124.08-18.31C269.76,850.22,271.09,795.11,271.09,795.11Z"/><path class="cls-43" d="M616.49,795.5s-32.12,65.37-81.42,61.84c-6.38-.45-91.78,39.16-85.68,36.7,49.94-20.16,52.61,22.18,124.08-18.31C617.82,850.61,616.49,795.5,616.49,795.5Z"/><path class="cls-44" d="M79.68,707.52s.43,44,56.07,77.87c5.95,3.62,14.43,35.46,8.25,32.31-48.3-24.63,26.79,61.47-38.47,3.15C56,776.58,79.68,707.52,79.68,707.52Z"/><path class="cls-44" d="M814.79,707.52s-.43,44-56.07,77.87c-5.94,3.62-14.42,35.46-8.24,32.31,48.29-24.63-26.79,61.47,38.47,3.15C838.49,776.58,814.79,707.52,814.79,707.52Z"/><path class="cls-45" d="M221.26,843.63s15.15,35.08,44.88,29.55c3.85-.72,52.5,15.84,49,14.86-28.64-8-32.88,16.44-73.13-1.61C217,875.23,221.26,843.63,221.26,843.63Z"/><path class="cls-45" d="M660.72,847.62s-15.15,35.08-44.88,29.55c-3.85-.72-52.49,15.84-49,14.87,28.64-8,32.88,16.43,73.13-1.62C665,879.22,660.72,847.62,660.72,847.62Z"/><path class="cls-35" d="M390.67,111c4.14,21.76-31.88,49.08-60.69,33.28-45.51-25-43.63-96.34-23.56-103.41,6.8-2.4,26.54-11.59,46.18,21.21C364.4,81.8,387.27,93.09,390.67,111Z"/><path class="cls-34" d="M309.26,28.76l5.35,6a9.16,9.16,0,0,0,5.52,3l5.71,1.12-6.57.88,2.12,3.75-5.9-.86-6.14,3.6,1.27-4.31-6.6.31,4.8-2.54a3.62,3.62,0,0,0,1.85-4.74l-2.38-5.47A.6.6,0,0,1,309.26,28.76Z"/><path class="cls-36" d="M365.88,96.38c-2.32-11.33,9.46,2.65,10.49,4.8,7.48,15.55-.29,28.74-6.79,31.66-2.79,1.26-11.65-1.66-.9-14C373.43,113.38,367.36,103.59,365.88,96.38Z"/><path class="cls-33" d="M440.83,233.93c-24.68-3.2-10.39-26.09-4.65-50.69s-3.9-57.05,42.76-49.73c31.78,5,30.46,63.27,27.83,87.4C504.06,245.73,465.51,237.14,440.83,233.93Z"/><path class="cls-34" d="M448.17,222.73c-11.31-1.46-.39-19.35,3.85-37.57s-13-44.21,20.28-37.34c17.53,3.62,26.78,50.25,24,68C493.48,234.11,459.48,224.19,448.17,222.73Z"/><path class="cls-34" d="M462.38,122.29l4.39,6.56a8.87,8.87,0,0,0,5.19,3.63l6.05.87-6.28.79.6,4.64-6.25-2-7.93,2.8,3-4.11L455,134.25l4.69-1.24a3.87,3.87,0,0,0,2.92-4.47l-1.37-5.73A.65.65,0,0,1,462.38,122.29Z"/><path class="cls-26" d="M483.42,63.29c-9.48-3.15-12.75-12.42-11.24-21.66,2.43-14.81,13.6-13.42,23.08-10.27S509.76,44.21,506.49,53,492.89,66.44,483.42,63.29Z"/><path class="cls-26" d="M497.27,47.88C487.8,44.73,486.2,35.58,486,26.21,485.89,18,500.45,9.86,509.11,16c8,5.65,14.5,12.84,11.23,21.66S506.74,51,497.27,47.88Z"/><path class="cls-26" d="M560.74,85l-15.3,14.18a7,7,0,0,1-9.34-.08l-42-39.26a5.87,5.87,0,0,1,0-8.7L509.38,37a7,7,0,0,1,9.34.07l42,39.27A5.87,5.87,0,0,1,560.74,85Z"/><path class="cls-26" d="M546.06,122.88c-10.93-1.15-14.5-12.85-11.23-21.67S548.43,87.8,557.91,91s12.62,12.34,11.23,21.66S556,123.93,546.06,122.88Z"/><path class="cls-26" d="M559.92,107.47c-9.48-3.15-14.5-12.85-11.23-21.67S563,70.93,571.76,75.54c16,8.38,14,12.69,11.23,21.66C581.44,102.27,569.39,110.62,559.92,107.47Z"/><path class="cls-26" d="M1684.6,111.69H1655a5.36,5.36,0,0,1-5.06-5.61l-5.43-34.63c0-8.41,2.53-10.81,9-12.81L1685,53c5.79-.4,14.1,2.8,11.57,16.82l-6.87,36.23A5.36,5.36,0,0,1,1684.6,111.69Z"/><path class="cls-46" d="M1684,61c2.89-.45,1,8.12,1,18.14s-.45,28.29-1,28.29-1-18.27-1-28.29S1681.35,61.44,1684,61Z"/><path class="cls-46" d="M1675.66,72.66c1.77-.38.62,6.94.62,15.51s-.28,24.18-.62,24.18-.63-15.62-.63-24.18S1674.06,73,1675.66,72.66Z"/><rect class="cls-26" x="1646.77" y="105.79" width="45.78" height="11.21"/><path class="cls-26" d="M1760.1,111.4h-29.64a5.37,5.37,0,0,1-5.07-5.61L1720,71.16c0-8.41,2.53-10.81,9-12.81l31.45-5.61c5.79-.4,14.1,2.8,11.57,16.81l-6.87,36.24A5.36,5.36,0,0,1,1760.1,111.4Z"/><path class="cls-46" d="M1759.45,60.75c2.88-.45,1,8.12,1,18.14s-.45,28.29-1,28.29-1-18.28-1-28.29S1756.85,61.15,1759.45,60.75Z"/><path class="cls-46" d="M1751.16,72.37c1.77-.38.62,6.94.62,15.51s-.28,24.18-.62,24.18-.63-15.62-.63-24.18S1749.56,72.71,1751.16,72.37Z"/><rect class="cls-26" x="1722.27" y="105.5" width="45.78" height="11.21"/><path class="cls-26" d="M1834.1,111.4h-29.64a5.37,5.37,0,0,1-5.07-5.61L1794,71.16c0-8.41,2.53-10.81,9-12.81l31.45-5.61c5.79-.4,14.1,2.8,11.57,16.81l-6.87,36.24A5.36,5.36,0,0,1,1834.1,111.4Z"/><path class="cls-46" d="M1833.45,60.75c2.88-.45,1,8.12,1,18.14s-.45,28.29-1,28.29-1-18.28-1-28.29S1830.85,61.15,1833.45,60.75Z"/><path class="cls-46" d="M1825.16,72.37c1.77-.38.62,6.94.62,15.51s-.28,24.18-.62,24.18-.63-15.62-.63-24.18S1823.56,72.71,1825.16,72.37Z"/><rect class="cls-26" x="1796.27" y="105.5" width="45.78" height="11.21"/></g></svg>