<svg xmlns="http://www.w3.org/2000/svg" viewBox="0 0 1920 1080"><defs><style>.cls-1{fill:#ffffe5;}.cls-2{fill:#c69c6d;}.cls-3{fill:#ad7e52;}.cls-4{fill:#603813;}.cls-5{fill:#bfbfbf;}.cls-6{fill:#999;}.cls-7{fill:#fff;}.cls-8{fill:#ca572a;}.cls-9{fill:#ca7c3a;}.cls-10{fill:#ffa86e;}.cls-11{fill:#ffcc94;}.cls-12{fill:#4c9138;}.cls-13{fill:#006a38;}.cls-14{fill:#b93f2a;}.cls-15{fill:#ffb42a;}.cls-16{fill:#5f9d34;}.cls-17{fill:#a0c63f;}.cls-18{fill:#5fc34d;}.cls-19{fill:#93aa3f;}.cls-20{fill:#87b036;}.cls-21{fill:#98bf36;}.cls-22{fill:#7fa23f;}.cls-23{fill:#8cc63f;}.cls-24{fill:#80ad0a;}.cls-25{fill:#84a53f;}.cls-26{fill:#2c003f;}.cls-27{fill:#4c3d6c;}</style></defs><g id="Lag_2" data-name="Lag 2"><rect class="cls-1" width="1920" height="1080"/><rect class="cls-2" x="-12" y="960" width="1943" height="120" rx="14"/></g><g id="Lag_1" data-name="Lag 1"><rect class="cls-2" x="-11" y="959" width="1943" height="120" rx="14"/><rect class="cls-3" x="-4" y="960" width="952.03" height="120" rx="14"/><rect class="cls-4" x="1192.12" y="36.91" width="46.88" height="345.09" rx="14" transform="translate(194.61 -482.73) rotate(24.36)"/><rect class="cls-5" x="624.17" y="177.52" width="653.3" height="780.27" rx="14"/><rect class="cls-6" x="624.53" y="176.49" width="326.45" height="780.27" rx="14"/><ellipse class="cls-7" cx="950.04" cy="465.4" rx="212.63" ry="102.76"/><text/><path class="cls-8" d="M572,712.45s72.5,20.19,92.52,113.13c28,130,514.39,106.19,83.19,115.13-65.29,1.35-55.17,14.88-135.81-58.56C550.69,826.4,572,712.45,572,712.45Z"/><path class="cls-8" d="M1330.69,712.45s-72.55,20.21-92.6,113.23c-28,130.12-514.81,106.28-83.25,115.22,65.35,1.35,55.22,14.9,135.92-58.6C1352,826.5,1330.69,712.45,1330.69,712.45Z"/><path class="cls-8" d="M486.45,712.29s81.07,19.64,101,122.29c27.85,143.58,576.21,73.38,90.41,124.87-73.35,7.78-62.56,18.71-151.29-59.87C459.2,839.92,486.45,712.29,486.45,712.29Z"/><path class="cls-8" d="M1415.54,712s-81.14,19.66-101.06,122.4c-27.87,143.7-576.7,73.43-90.48,125,73.41,7.79,62.61,18.73,151.41-59.92C1442.82,839.74,1415.54,712,1415.54,712Z"/><path class="cls-8" d="M1192,820.5s-74.84-5.18-123.72,74.56c-68.37,111.53-519-71.18-115.56,79.48,61.1,22.81,47.19,32.05,146.9-9.56C1175.3,933.4,1192,820.5,1192,820.5Z"/><path class="cls-8" d="M709.76,820.1s74.84-5.17,123.72,74.56c68.37,111.53,519.05-71.18,115.56,79.48-61.1,22.82-47.19,32.05-146.9-9.55C726.45,933,709.76,820.1,709.76,820.1Z"/><path class="cls-8" d="M619.43,915.75s63.24-47.07,139.11-5.18C864.67,969.16,792.65,879,814.76,929c29.47,66.6,49.91,40.2-54.52,60.53C681,1004.91,619.43,915.75,619.43,915.75Z"/><path class="cls-8" d="M1277.13,916.3s-63.24-47.07-139.11-5.18c-106.13,58.6-34.11-31.6-56.22,18.4-29.47,66.6-49.91,40.2,54.52,60.52C1215.6,1005.47,1277.13,916.3,1277.13,916.3Z"/><path class="cls-9" d="M586.76,740.43s.53,55.38,69.29,98.06c7.34,4.55,17.82,44.65,10.18,40.69-59.67-31,33.11,77.4-47.53,4C557.48,827.39,586.76,740.43,586.76,740.43Z"/><path class="cls-9" d="M1315.1,742.77s-.54,55.43-69.35,98.14c-7.35,4.57-17.84,44.7-10.19,40.73,59.72-31-33.14,77.47,47.57,4C1344.4,829.81,1315.1,742.77,1315.1,742.77Z"/><path class="cls-9" d="M734.52,844.66S774.21,927,835.13,922.54C843,922,948.54,971.85,941,968.75c-61.71-25.39-65,27.93-153.32-23C732.88,914.06,734.52,844.66,734.52,844.66Z"/><path class="cls-9" d="M1161.32,845.15s-39.68,82.32-100.6,77.88c-7.89-.57-113.41,49.31-105.88,46.21,61.71-25.39,65,27.93,153.32-23C1163,914.55,1161.32,845.15,1161.32,845.15Z"/><path class="cls-10" d="M498,734.36s.53,55.39,69.28,98.06c7.35,4.56,17.83,44.66,10.19,40.69-59.67-31,33.1,77.41-47.53,4C468.73,821.33,498,734.36,498,734.36Z"/><path class="cls-10" d="M1407.14,734.26s-.53,55.43-69.34,98.14c-7.35,4.56-17.84,44.7-10.2,40.73,59.73-31-33.13,77.47,47.58,4C1436.45,821.3,1407.14,734.26,1407.14,734.26Z"/><path class="cls-11" d="M673,905.76s18.72,44.18,55.45,37.21c4.76-.9,64.87,19.95,60.55,18.72-35.39-10-40.63,20.7-90.36-2C667.73,945.55,673,905.76,673,905.76Z"/><path class="cls-11" d="M1216,910.79S1197.26,955,1160.52,948c-4.75-.9-64.86,20-60.54,18.72,35.38-10,40.62,20.69,90.36-2C1221.2,950.58,1216,910.79,1216,910.79Z"/></g><g id="Lag_3" data-name="Lag 3"><path class="cls-12" d="M1519.14,555.28c-42.72-38.91,14.77-67.46,58.25-110.74s68.08-122.89,147.16-46.72c53.87,51.89-25.75,170.48-62.7,216.85C1623.84,662.37,1561.86,594.19,1519.14,555.28Z"/><path class="cls-13" d="M1547.94,541.76c-19.59-17.82,24.87-40.46,57-72.54s33.83-108.23,88-50.55c28.57,30.42-15.55,138.79-44.3,171.86C1619.1,624.56,1567.52,559.57,1547.94,541.76Z"/><path class="cls-13" d="M1707.9,353l-.34,19.3a21.54,21.54,0,0,0,5.08,14.28l10.36,9.73-13-6.6-5,10.37-9.21-12.38L1677,383.08l11.08-4.6L1678,368l10.57,3.58a9.21,9.21,0,0,0,11.48-5.41l5-13.62A1.48,1.48,0,0,1,1707.9,353Z"/><path class="cls-8" d="M1553.16,75.25C1627.3,129.69,1580,166,1547,215.47c-22.54,33.75-58.49,85-132.85,23.84-64.11-52.72-37.78-99.37.61-144.68S1483.31,23.94,1553.16,75.25Z"/><path class="cls-14" d="M1541,92c59.8,44.27,22.67,72.33-2.94,111-17.47,26.4-45.37,66.47-105.45,16.88-51.79-42.75-31.48-79.32-1.55-114.64S1484.68,50.26,1541,92Z"/><ellipse class="cls-15" cx="1488.26" cy="84.51" rx="6.71" ry="5.57" transform="translate(548.37 1241.52) rotate(-54.16)"/><ellipse class="cls-15" cx="1534.14" cy="106.92" rx="6.71" ry="5.57" transform="translate(549.22 1288) rotate(-54.16)"/><ellipse class="cls-15" cx="1420.07" cy="149.08" rx="6.71" ry="5.57" transform="translate(467.75 1213) rotate(-54.16)"/><ellipse class="cls-15" cx="1547.24" cy="152.63" rx="6.71" ry="5.57" transform="translate(517.59 1317.57) rotate(-54.16)"/><path class="cls-8" d="M1454.18,117.27,1437.45,137a9.26,9.26,0,0,1-13.36,1l-18.74-17a10.1,10.1,0,0,1-.78-13.86l16.73-19.74a9.28,9.28,0,0,1,13.36-1l18.75,17A10.08,10.08,0,0,1,1454.18,117.27Z"/><path class="cls-8" d="M1556.28,197.05l-13,18.77c-3.54,5.11-14.94,9.41-19,6.28l-11.83-13.93c-4.38-3-5.08-9.72-1.54-14.82l13-18.78c3.54-5.1,10-6.78,14.4-3.73l18.87,5.27C1561.6,179.15,1559.82,192,1556.28,197.05Z"/><ellipse class="cls-15" cx="1502.02" cy="214.86" rx="6.71" ry="5.57" transform="translate(448.4 1306.7) rotate(-54.16)"/><ellipse class="cls-15" cx="1421.47" cy="174.15" rx="6.71" ry="5.57" transform="translate(437.74 1214.91) rotate(-53.6)"/><ellipse class="cls-15" cx="1462.32" cy="93.79" rx="6.71" ry="5.57" transform="translate(530.09 1224.33) rotate(-54.16)"/><ellipse class="cls-15" cx="1513.05" cy="89.3" rx="6.71" ry="5.57" transform="matrix(0.59, -0.81, 0.81, 0.59, 554.76, 1263.6)"/><ellipse class="cls-15" cx="1548.08" cy="126.57" rx="6.71" ry="5.57" transform="translate(539.07 1307.44) rotate(-54.16)"/><ellipse class="cls-15" cx="1479.66" cy="218.02" rx="6.71" ry="5.57" transform="translate(436.57 1289.88) rotate(-54.16)"/><ellipse class="cls-15" cx="1435.08" cy="197.38" rx="6.71" ry="5.57" transform="translate(434.82 1245.19) rotate(-54.16)"/><ellipse class="cls-15" cx="1456.49" cy="211.42" rx="6.71" ry="5.57" transform="matrix(0.59, -0.81, 0.81, 0.59, 432.31, 1268.36)"/><ellipse class="cls-16" cx="434.2" cy="149.55" rx="109.8" ry="102.45"/><path class="cls-17" d="M335.78,152.15c-6.4-51,48.05-88.87,98.77-92.86C486,55.24,528,99.54,528,149.2S508.76,239,434.55,239.11C383,239.17,341.5,197.61,335.78,152.15Z"/><path class="cls-18" d="M350.52,149.3c0-43.09,37.59-81,83.39-78s83.4,34.94,83.4,78S474.59,227,429.75,222C384,217,350.52,192.4,350.52,149.3Z"/><path class="cls-19" d="M517.61,178.17l1.78,1.43a1.4,1.4,0,0,1,.52,1.1c.38,9.4-3.37,12.59-3.22,12.83l-9.22,12.94c-19.39,26.57-33.25,13.26-14.35,4.66a3.84,3.84,0,0,0,.59-.33l2.14-1.47.39-.29c7.71-6.58,4.72-3.88,10.55-10.73a5.32,5.32,0,0,0,.36-.47l2-3a4.78,4.78,0,0,0,.39-.74c2.26-5.9,2.33-14.17,6.12-16A1.88,1.88,0,0,1,517.61,178.17Z"/><path class="cls-20" d="M367.82,149c0-34.59,31-53.77,66.61-62.62S501,114.41,501,149s-35.67,68.93-69.93,58.37C394.51,196.08,367.82,183.58,367.82,149Z"/><path class="cls-21" d="M383.83,150.34c3.21-31.14,23.49-38.78,50.53-45.16s59.45,22,50.53,45.16c-9,23.47-27.06,49.73-53.05,42.11C404.08,184.31,381.28,175.17,383.83,150.34Z"/><path class="cls-18" d="M403.05,147.91c0-17.5,19.08-27.83,35.83-30.45s35.47,15.19,30.81,32.69-16.43,26.48-32.35,30.47C420.92,184.73,403.05,166,403.05,147.91Z"/><path class="cls-17" d="M417.34,147a18.08,18.08,0,0,1,18.28-17.86c10.1,0,20.93,3.86,18.28,17.86-1.83,9.71-8.18,17.87-18.28,17.87A18.08,18.08,0,0,1,417.34,147Z"/><path class="cls-22" d="M433.8,136.39l1.28-.95a1.51,1.51,0,0,1,.74-.31c5.18-.69,5.84,1,6,.88l4.36,3.82c8.82,8.07-2.31,15.57-1.57,6.78a1.2,1.2,0,0,0,0-.27l-.18-1a.84.84,0,0,0-.05-.17c-1.36-3.43-.75-2.11-2.79-4.6a1,1,0,0,0-.15-.14l-1.07-.8a1.13,1.13,0,0,0-.29-.15c-2.53-.79-7-.38-6.89-2.14A1.41,1.41,0,0,1,433.8,136.39Z"/><path class="cls-22" d="M439,159.4l-.7.66a.91.91,0,0,1-.46.23c-3.39.51-4.11-.64-4.21-.58L430,157.09c-7.29-5.54-1-10.81-.05-4.71a1.33,1.33,0,0,0,.05.19l.29.67a.34.34,0,0,0,.06.12c1.48,2.36.85,1.45,2.64,3.16l.13.1.85.55a.88.88,0,0,0,.22.1c1.84.54,4.78.22,5,1.44A.77.77,0,0,1,439,159.4Z"/><path class="cls-23" d="M439.13,96l1.44-2.44a2.76,2.76,0,0,1,1.07-1c8.76-4.49,11.46-2.07,11.69-2.32L464.71,94c23.31,8.14,10,28.08,3.31,12.58a2.07,2.07,0,0,0-.27-.45l-1.21-1.54a1.55,1.55,0,0,0-.24-.27c-5.57-5-3.27-3.12-9.23-6.06a2,2,0,0,0-.41-.15L454,97.4a2.39,2.39,0,0,0-.66-.07c-5.32.27-13,3.81-14.43.75A2.21,2.21,0,0,1,439.13,96Z"/><path class="cls-24" d="M368.93,114.86h0c-12.05,9.31,2-7.85,8.17-13l14.4-13.4c6.13-5.13,40.2-14.9,15.41-4.86l-.3-.32c5.48,5.73-6.13,3-12.26,8.15L380.66,105.6C371.2,112.18,374.41,120.59,368.93,114.86Z"/><path class="cls-24" d="M502.2,118.46h0c-1.17-14.57,5.67,6.1,6.61,13.74l3.38,18.74c.93,7.63-10.22,39.29-4.66,14.57l.44,0c-8.16.87.91-6.43,0-14.07l-4.43-18.62C503.23,121.75,494,119.34,502.2,118.46Z"/><path class="cls-24" d="M411.2,242.73h0c13.84,6.8-8.53,1.27-16-2l-18.78-7.25c-7.42-3.3-30.21-28.92-10.74-11.41l-.19.38c3.53-6.94,5.34,4.12,12.77,7.43l19.24,6.35C407.68,241.81,414.73,235.79,411.2,242.73Z"/><path class="cls-24" d="M493.67,72.63h0c-10.64-10.7,8.5,1.46,14.34,6.88l15.14,12.66c5.84,5.41,18.26,36.65,6.1,14.1l.31-.3c-5.79,5.45-3.58-5.55-9.42-11l-15.89-12C496.66,74.6,487.88,78.09,493.67,72.63Z"/><path class="cls-25" d="M388.45,65.7h0c-9.78,2.66,3-5.09,8.1-6.73l12.19-4.85c5.06-1.65,29.13,3.07,11,1.8l-.13-.34c2.29,6.16-4.6.09-9.67,1.73L398,63C390.5,64.51,390.74,71.85,388.45,65.7Z"/><path class="cls-23" d="M404.2,206.1,403,207.3a1.19,1.19,0,0,1-1,.27c-8.25-.66-11.07-3.8-11.29-3.72l-11.42-8.23c-23.45-17.25-11.87-26.3-4.18-11.24a3.31,3.31,0,0,0,.29.47l1.3,1.76c.08.11.17.21.26.32,5.83,6.45,3.44,3.94,9.49,9,.14.11.28.22.42.31l2.64,1.77a5.47,5.47,0,0,0,.66.37c5.19,2.3,12.45,3.19,14.09,6.22A1.21,1.21,0,0,1,404.2,206.1Z"/><path class="cls-26" d="M403.63,555.88c10.58,55.35-81.55,124.83-155.25,84.65-116.4-63.46-111.6-245-60.26-263C205.51,371.43,256,348,306.24,431.46,336.42,481.57,394.92,510.29,403.63,555.88Z"/><path class="cls-13" d="M195.39,346.68l13.68,15.14a23.58,23.58,0,0,0,14.13,7.55l14.6,2.85L221,374.44l5.44,9.55-15.1-2.2-15.69,9.15,3.24-11-16.89.79,12.27-6.45A9.17,9.17,0,0,0,199,362.27l-6.09-13.93A1.51,1.51,0,0,1,195.39,346.68Z"/><path class="cls-27" d="M340.21,518.65c-5.94-28.82,24.19,6.75,26.83,12.21,19.13,39.56-.75,73.09-17.37,80.53-7.12,3.19-29.8-4.23-2.3-35.62C359.53,561.89,344,537,340.21,518.65Z"/></g></svg>